<?xml version="1.0" encoding="UTF-8" standalone="no"?>
<svg
   xmlns:dc="http://purl.org/dc/elements/1.1/"
   xmlns:cc="http://creativecommons.org/ns#"
   xmlns:rdf="http://www.w3.org/1999/02/22-rdf-syntax-ns#"
   xmlns:svg="http://www.w3.org/2000/svg"
   xmlns="http://www.w3.org/2000/svg"
   xmlns:sodipodi="http://sodipodi.sourceforge.net/DTD/sodipodi-0.dtd"
   xmlns:inkscape="http://www.inkscape.org/namespaces/inkscape"
   version="1.1"
   id="Layer_1"
   x="0px"
   y="0px"
   viewBox="0 0 1000 1000"
   style="enable-background:new 0 0 1000 1000;"
   xml:space="preserve"
   sodipodi:docname="almost-there-white.svg"
   inkscape:version="1.0.1 (3bc2e813f5, 2020-09-07)"><metadata
   id="metadata796"><rdf:RDF><cc:Work
       rdf:about=""><dc:format>image/svg+xml</dc:format><dc:type
         rdf:resource="http://purl.org/dc/dcmitype/StillImage" /><dc:title></dc:title></cc:Work></rdf:RDF></metadata><defs
   id="defs794" /><sodipodi:namedview
   pagecolor="#ffffff"
   bordercolor="#666666"
   borderopacity="1"
   objecttolerance="10"
   gridtolerance="10"
   guidetolerance="10"
   inkscape:pageopacity="0"
   inkscape:pageshadow="2"
   inkscape:window-width="1920"
   inkscape:window-height="1017"
   id="namedview792"
   showgrid="false"
   inkscape:zoom="0.85"
   inkscape:cx="803.6556"
   inkscape:cy="537.36467"
   inkscape:window-x="-8"
   inkscape:window-y="-8"
   inkscape:window-maximized="1"
   inkscape:current-layer="XMLID_5_"
   inkscape:document-rotation="0" />
<style
   type="text/css"
   id="style504">
	.st0{fill:#7330C1;}
	.st1{opacity:0.34;fill:#6027A6;}
	.st2{opacity:0.51;fill:#6027A6;}
	.st3{fill:#6027A6;}
	.st4{fill:#FDB130;}
	.st5{opacity:0.32;fill:#FFFFFF;}
	.st6{opacity:0.16;fill:#FFFFFF;}
	.st7{opacity:0.44;fill:#FFFFFF;}
	.st8{opacity:0.39;}
	.st9{fill:#FFFFFF;}
	.st10{opacity:0.11;}
	.st11{fill:#414042;}
	.st12{fill:none;stroke:#2A2A2A;stroke-width:6;stroke-linecap:round;stroke-linejoin:round;stroke-miterlimit:10;}
	.st13{fill:#2A2A2A;}
	.st14{opacity:0.41;fill:#2A2A2A;}
	.st15{fill:#AAD543;}
	.st16{opacity:0.49;}
	.st17{fill:#8EC42B;}
	.st18{fill:#C6E65B;}
	.st19{fill:#E9342B;}
	.st20{fill:#EE368C;}
	.st21{fill:#E41B64;}
	.st22{opacity:0.39;fill:#FFFFFB;}
	.st23{opacity:0.49;fill:#AAD543;}
	.st24{opacity:0.29;fill:#E41B64;}
	.st25{fill:none;stroke:#F4CD39;stroke-width:2;stroke-linecap:round;stroke-linejoin:round;stroke-miterlimit:10;}
	.st26{opacity:0.46;fill:none;stroke:#F4CD39;stroke-width:2;stroke-linecap:round;stroke-linejoin:round;stroke-miterlimit:10;}
	.st27{fill:none;stroke:#FDB130;stroke-width:2;stroke-linecap:round;stroke-linejoin:round;stroke-miterlimit:10;}
	.st28{fill:none;stroke:#E03F8D;stroke-width:2;stroke-linecap:round;stroke-linejoin:round;stroke-miterlimit:10;}
	.st29{fill:none;stroke:#1DB7C2;stroke-width:2;stroke-linecap:round;stroke-linejoin:round;stroke-miterlimit:10;}
	.st30{fill:none;stroke:#9E3FB7;stroke-width:2;stroke-linecap:round;stroke-linejoin:round;stroke-miterlimit:10;}
	.st31{opacity:0.6;}
	.st32{fill:none;stroke:#FFFFFF;stroke-width:2;stroke-linecap:round;stroke-linejoin:round;stroke-miterlimit:10;}
	.st33{opacity:0.4;}
	.st34{opacity:0.53;}
	.st35{fill:#EEF2F4;}
</style>



<g
   id="g517"
   transform="matrix(1.3459295,0,0,1.4708952,-118.13932,-603.91488)">
	<path
   id="XMLID_379_"
   class="st5"
   d="m 258,700.5 v 0 c 0,-6.1 -4.9,-11 -11,-11 H 140.5 c -6.1,0 -11,4.9 -11,11 v 0 c 0,6.1 4.9,11 11,11 h 20.8 c 6.1,0 11,4.9 11,11 v 0 c 0,6.1 -4.9,11 -11,11 h -25.7 c -6.1,0 -11,4.9 -11,11 v 0 c 0,6.1 4.9,11 11,11 h 88.6 c 6.1,0 11,-4.9 11,-11 v 0 c 0,-6.1 -4.9,-11 -11,-11 H 217 c -6.1,0 -11,-4.9 -11,-11 v 0 c 0,-6.1 4.9,-11 11,-11 h 30 c 6.1,-0.1 11,-5 11,-11 z" />
	<path
   id="XMLID_378_"
   class="st6"
   d="m 172.1,777.2 h -1.8 c -6.1,0 -11,4.9 -11,11 v 0 c 0,6.1 4.9,11 11,11 h 1.8 c 6.1,0 11,-4.9 11,-11 v 0 c -0.1,-6.1 -5,-11 -11,-11 z" />
	<path
   id="XMLID_377_"
   class="st6"
   d="m 315.7,755.3 h -14.3 c -6.1,0 -11,4.9 -11,11 v 0 c 0,6.1 4.9,11 11,11 h 14.3 c 6.1,0 11,-4.9 11,-11 v 0 c -0.1,-6.1 -5,-11 -11,-11 z" />
	<path
   id="XMLID_376_"
   class="st7"
   d="m 290.9,689.5 h -1 c -6.1,0 -11,4.9 -11,11 v 0 c 0,6.1 4.9,11 11,11 h 1 c 6.1,0 11,-4.9 11,-11 v 0 c 0,-6.1 -4.9,-11 -11,-11 z" />
</g>
<g
   id="g531"
   transform="matrix(1.3459295,0,0,1.4708952,-118.13932,-603.91488)">
	<g
   id="XMLID_368_"
   class="st8">
		<path
   id="XMLID_372_"
   class="st9"
   d="m 401.9,711.4 h 87.4 c 6.1,0 11,4.9 11,11 v 0 c 0,6.1 -4.9,11 -11,11 H 447 c -6.1,0 -11,4.9 -11,11 v 0 c 0,6.1 4.9,11 11,11 h 5.7 c 6.1,0 11,4.9 11,11 v 0 c 0,6.1 -4.9,11 -11,11 h -37.2 c -6.1,0 -11,4.9 -11,11 v 0 c 0,6.1 4.9,11 11,11 H 692 c 6.1,0 11,-4.9 11,-11 v 0 c 0,-6.1 -4.9,-11 -11,-11 h -65.3 c -6.1,0 -11,-4.9 -11,-11 v 0 c 0,-6.1 4.9,-11 11,-11 H 692 c 6.1,0 11,-4.9 11,-11 v 0 c 0,-6.1 -4.9,-11 -11,-11 h -8.2 c -6.1,0 -11,-4.9 -11,-11 v 0 c 0,-6.1 4.9,-11 11,-11 h 67.4 c 6.1,0 11,-4.9 11,-11 v 0 c 0,-6.1 -4.9,-11 -11,-11 H 401.9 c -6.1,0 -11,4.9 -11,11 v 0 c 0.1,6.1 5,11 11,11 z m 144.7,65.8 h -35.3 c -6.1,0 -11,-4.9 -11,-11 v 0 c 0,-6.1 4.9,-11 11,-11 h 35.3 c 6.1,0 11,4.9 11,11 v 0 c -0.1,6.1 -5,11 -11,11 z m 66.2,-54.8 v 0 c 0,6.1 -4.9,11 -11,11 h -15.5 c -6.1,0 -11,-4.9 -11,-11 v 0 c 0,-6.1 4.9,-11 11,-11 h 15.5 c 6.1,0 11,4.9 11,11 z" />
		<path
   id="XMLID_371_"
   class="st9"
   d="m 791.3,700.5 v 0 c 0,6.1 4.9,11 11,11 h 8.4 c 6.1,0 11,-4.9 11,-11 v 0 c 0,-6.1 -4.9,-11 -11,-11 h -8.4 c -6.1,0 -11,4.9 -11,11 z" />
		<path
   id="XMLID_370_"
   class="st9"
   d="M 395.4,733.3 H 387 c -6.1,0 -11,4.9 -11,11 v 0 c 0,6.1 4.9,11 11,11 h 8.4 c 6.1,0 11,-4.9 11,-11 v 0 c -0.1,-6.1 -5,-11 -11,-11 z" />
		<path
   id="XMLID_369_"
   class="st9"
   d="m 733.5,755.3 h 16.4 c 6.1,0 11,-4.9 11,-11 v 0 c 0,-6.1 -4.9,-11 -11,-11 h -16.4 c -6.1,0 -11,4.9 -11,11 v 0 c 0.1,6.1 5,11 11,11 z" />
	</g>
	<g
   id="XMLID_358_"
   class="st10">
		<path
   id="XMLID_367_"
   class="st9"
   d="m 895.9,700.5 v 0 c 0,6.1 4.9,11 11,11 h 8.4 c 6.1,0 11,-4.9 11,-11 v 0 c 0,-6.1 -4.9,-11 -11,-11 h -8.4 c -6.1,0 -11,4.9 -11,11 z" />
		<path
   id="XMLID_366_"
   class="st9"
   d="m 793.1,799.1 h 13.7 c 6.1,0 11,-4.9 11,-11 v 0 c 0,-6.1 -4.9,-11 -11,-11 h -13.7 c -6.1,0 -11,4.9 -11,11 v 0 c 0,6.1 4.9,11 11,11 z" />
		<path
   id="XMLID_365_"
   class="st9"
   d="m 718.3,842.9 h 3.2 c 6.1,0 11,-4.9 11,-11 v 0 c 0,-6.1 -4.9,-11 -11,-11 h -3.2 c -6.1,0 -11,4.9 -11,11 v 0 c 0,6.1 5,11 11,11 z" />
		<path
   id="XMLID_361_"
   class="st9"
   d="m 695.7,755.3 h 7.4 c 6.1,0 11,-4.9 11,-11 v 0 c 0,-6.1 -4.9,-11 -11,-11 h -15.8 c -6.1,0 -11,-4.9 -11,-11 v 0 c 0,-6.1 4.9,-11 11,-11 h 168.5 c 6.1,0 11,-4.9 11,-11 v 0 c 0,-6.1 -4.9,-11 -11,-11 H 506.5 c -6.1,0 -11,4.9 -11,11 v 0 c 0,6.1 4.9,11 11,11 h 75.7 c 6.1,0 11,4.9 11,11 v 0 c 0,6.1 -4.9,11 -11,11 h -30 c -6.1,0 -11,4.9 -11,11 v 0 c 0,6.1 4.9,11 11,11 h 31.6 c 6.1,0 11,4.9 11,11 v 0 c 0,6.1 -4.9,11 -11,11 h -45.7 c -6.1,0 -11,4.9 -11,11 v 0 c 0,6.1 4.9,11 11,11 h 35.1 c 6.1,0 11,4.9 11,11 v 0 c 0,6.1 -4.9,11 -11,11 h -24.9 c -6.1,0 -11,4.9 -11,11 v 0 c 0,6.1 4.9,11 11,11 H 676 c 6.1,0 11,-4.9 11,-11 v 0 c 0,-6.1 -4.9,-11 -11,-11 h -12.7 c -6.1,0 -11,-4.9 -11,-11 v 0 c 0,-6.1 4.9,-11 11,-11 h 77.9 c 6.1,0 11,-4.9 11,-11 v 0 c 0,-6.1 -4.9,-11 -11,-11 h -45.5 c -6.1,0 -11,-4.9 -11,-11 v 0 c 0,-6.1 4.9,-11 11,-11 z m -63.2,-43.9 h 4.4 c 6.1,0 11,4.9 11,11 v 0 c 0,6.1 -4.9,11 -11,11 h -4.4 c -6.1,0 -11,-4.9 -11,-11 v 0 c 0.1,-6.1 5,-11 11,-11 z m -10.3,54.8 v 0 c 0,-6.1 4.9,-11 11,-11 h 3 c 6.1,0 11,4.9 11,11 v 0 c 0,6.1 -4.9,11 -11,11 h -3 c -6.1,0 -11,-4.9 -11,-11 z" />
		<path
   id="XMLID_360_"
   class="st9"
   d="m 810.9,755.3 h 18.3 c 6.1,0 11,-4.9 11,-11 v 0 c 0,-6.1 -4.9,-11 -11,-11 h -18.3 c -6.1,0 -11,4.9 -11,11 v 0 c 0,6.1 4.9,11 11,11 z" />
		<path
   id="XMLID_359_"
   class="st9"
   d="m 869.1,755.3 h 3.1 c 6.1,0 11,-4.9 11,-11 v 0 c 0,-6.1 -4.9,-11 -11,-11 h -3.1 c -6.1,0 -11,4.9 -11,11 v 0 c 0,6.1 5,11 11,11 z" />
	</g>
</g>
<g
   id="XMLID_69_"
   transform="matrix(1.3459295,0,0,1.4708952,-156.49831,-169.55952)">
	<g
   id="XMLID_126_">
		<path
   id="XMLID_357_"
   class="st11"
   d="M 189.9,689.5 H 176.1 V 242.9 c 0,-3.8 3.1,-6.9 6.9,-6.9 v 0 c 3.8,0 6.9,3.1 6.9,6.9 z" />
		<path
   id="XMLID_356_"
   class="st12"
   d="M 189.9,689.5 H 176.1 V 242.9 c 0,-3.8 3.1,-6.9 6.9,-6.9 v 0 c 3.8,0 6.9,3.1 6.9,6.9 z" />
		<line
   id="XMLID_355_"
   class="st12"
   x1="218.2"
   y1="689.5"
   x2="147.7"
   y2="689.5" />
		<line
   id="XMLID_354_"
   class="st12"
   x1="235.10001"
   y1="689.5"
   x2="230.60001"
   y2="689.5" />
	</g>
	<g
   id="XMLID_94_">
		<g
   id="g550">
			<g
   id="XMLID_98_">
				<path
   id="XMLID_107_"
   class="st13"
   d="m 295.3,312.7 c -10.1,0.4 -20.1,1.2 -30.1,2.4 0,-10 0,-20.1 0,-30.1 10,-1.2 20,-2 30.1,-2.4 0,10 0,20.1 0,30.1 z" />
				<path
   id="XMLID_106_"
   class="st13"
   d="m 295.3,372.9 c -10.1,0.4 -20.1,1.2 -30.1,2.4 0,-10 0,-20.1 0,-30.1 10,-1.2 20,-2 30.1,-2.4 0,10 0,20.1 0,30.1 z" />
				<path
   id="XMLID_105_"
   class="st9"
   d="m 325.5,312.7 c -10.1,-0.4 -20.1,-0.4 -30.2,0 0,-10 0,-20.1 0,-30.1 10.1,-0.4 20.1,-0.4 30.2,0 0,10 0,20.1 0,30.1 z" />
				<path
   id="XMLID_104_"
   class="st13"
   d="m 325.5,342.8 c -10.1,-0.4 -20.1,-0.4 -30.2,0 0,-10 0,-20.1 0,-30.1 10.1,-0.4 20.1,-0.4 30.2,0 0,10 0,20.1 0,30.1 z" />
				<path
   id="XMLID_103_"
   class="st9"
   d="m 325.5,372.9 c -10.1,-0.4 -20.1,-0.4 -30.2,0 0,-10 0,-20.1 0,-30.1 10.1,-0.4 20.1,-0.4 30.2,0 0,10 0,20.1 0,30.1 z" />
				<path
   id="XMLID_102_"
   class="st13"
   d="m 355.6,315.1 c -10,-1.2 -20,-2 -30.1,-2.4 0,-10 0,-20.1 0,-30.1 10.1,0.4 20.1,1.2 30.1,2.4 0,10 0,20 0,30.1 z" />
				<path
   id="XMLID_101_"
   class="st9"
   d="m 355.6,345.2 c -10,-1.2 -20,-2 -30.1,-2.4 0,-10 0,-20.1 0,-30.1 10.1,0.4 20.1,1.2 30.1,2.4 0,10 0,20 0,30.1 z" />
				<path
   id="XMLID_100_"
   class="st13"
   d="m 355.6,375.3 c -10,-1.2 -20,-2 -30.1,-2.4 0,-10 0,-20.1 0,-30.1 10.1,0.4 20.1,1.2 30.1,2.4 0,10 0,20.1 0,30.1 z" />
				<path
   id="XMLID_99_"
   class="st9"
   d="m 295.3,342.8 c -10.1,0.4 -20.1,1.2 -30.1,2.4 0,-10 0,-20.1 0,-30.1 10,-1.2 20,-2 30.1,-2.4 0,10 0,20.1 0,30.1 z" />
			</g>
			<path
   id="XMLID_97_"
   class="st12"
   d="m 355.6,375.3 c -30,-3.6 -60.3,-3.6 -90.4,0 0,-30.1 0,-60.2 0,-90.3 30,-3.6 60.3,-3.6 90.4,0 0,30.1 0,60.2 0,90.3 z" />
			<path
   id="XMLID_96_"
   class="st14"
   d="m 265.2,284.9 c 9.1,-1.1 18.3,-1.8 27.4,-2.3 0,30.1 0,60.2 0,90.3 -9.2,0.4 -18.3,1.2 -27.4,2.3 0,-30 0,-60.1 0,-90.3 z" />
		</g>
	</g>
	<g
   id="XMLID_70_">
		<g
   id="g564">
			<g
   id="XMLID_73_">
				<path
   id="XMLID_82_"
   class="st13"
   d="m 220,286.9 c -10.1,0.4 -20.1,1.2 -30.1,2.4 0,-10 0,-20.1 0,-30.1 10,-1.2 20,-2 30.1,-2.4 0,10 0,20 0,30.1 z" />
				<path
   id="XMLID_81_"
   class="st13"
   d="m 220,347.1 c -10.1,0.4 -20.1,1.2 -30.1,2.4 0,-10 0,-20.1 0,-30.1 10,-1.2 20,-2 30.1,-2.4 0,10 0,20.1 0,30.1 z" />
				<path
   id="XMLID_80_"
   class="st9"
   d="m 250.2,286.9 c -10.1,-0.4 -20.1,-0.4 -30.2,0 0,-10 0,-20.1 0,-30.1 10.1,-0.4 20.1,-0.4 30.2,0 0,10 0,20 0,30.1 z" />
				<path
   id="XMLID_79_"
   class="st13"
   d="m 250.2,317 c -10.1,-0.4 -20.1,-0.4 -30.2,0 0,-10 0,-20.1 0,-30.1 10.1,-0.4 20.1,-0.4 30.2,0 0,10 0,20.1 0,30.1 z" />
				<path
   id="XMLID_78_"
   class="st9"
   d="m 250.2,347.1 c -10.1,-0.4 -20.1,-0.4 -30.2,0 0,-10 0,-20.1 0,-30.1 10.1,-0.4 20.1,-0.4 30.2,0 0,10 0,20.1 0,30.1 z" />
				<path
   id="XMLID_77_"
   class="st13"
   d="m 280.3,289.2 c -10,-1.2 -20,-2 -30.1,-2.4 0,-10 0,-20.1 0,-30.1 10.1,0.4 20.1,1.2 30.1,2.4 0,10.1 0,20.1 0,30.1 z" />
				<path
   id="XMLID_76_"
   class="st9"
   d="m 280.3,319.4 c -10,-1.2 -20,-2 -30.1,-2.4 0,-10 0,-20.1 0,-30.1 10.1,0.4 20.1,1.2 30.1,2.4 0,10 0,20 0,30.1 z" />
				<path
   id="XMLID_75_"
   class="st13"
   d="m 280.3,349.5 c -10,-1.2 -20,-2 -30.1,-2.4 0,-10 0,-20.1 0,-30.1 10.1,0.4 20.1,1.2 30.1,2.4 0,10 0,20 0,30.1 z" />
				<path
   id="XMLID_74_"
   class="st9"
   d="m 220,317 c -10.1,0.4 -20.1,1.2 -30.1,2.4 0,-10 0,-20.1 0,-30.1 10,-1.2 20,-2 30.1,-2.4 0,10 0,20.1 0,30.1 z" />
			</g>
			<path
   id="XMLID_72_"
   class="st12"
   d="m 280.3,349.5 c -30,-3.6 -60.3,-3.6 -90.4,0 0,-30.1 0,-60.2 0,-90.3 30,-3.6 60.3,-3.6 90.4,0 0,30 0,60.2 0,90.3 z" />
		</g>
	</g>
</g>
<g
   id="XMLID_5_"
   transform="matrix(1.3459295,0,0,1.4708952,-156.49831,-169.55952)">
	<g
   id="XMLID_67_">
		<path
   class="st15"
   d="m 440.7,555.6 c -5.1,-0.4 -10.2,-0.8 -15.3,-1.2 2.6,-19.6 1.4,-39.3 -3.2,-58.1 3.6,-1 7.2,-2.1 10.8,-3.2 6.4,19.8 9.1,41 7.7,62.5 z"
   id="path568" />
	</g>
	<g
   id="XMLID_65_"
   class="st16">
		<path
   class="st15"
   d="m 440.7,555.6 c -5.1,-0.4 -10.2,-0.8 -15.3,-1.2 2.6,-19.6 1.4,-39.3 -3.2,-58.1 3.6,-1 7.2,-2.1 10.8,-3.2 6.4,19.8 9.1,41 7.7,62.5 z"
   id="path571"
   style="fill:#ffffff;fill-opacity:1" />
	</g>
	<g
   id="XMLID_63_">
		<path
   class="st12"
   d="m 440.7,555.6 -15.3,-1.2 c 2.6,-19.6 1.4,-39.3 -3.2,-58.1 3.6,-1 7.2,-2.1 10.8,-3.2 2.84193,8.79221 4.95428,17.86047 6.30204,27.10847 1.68739,11.57844 2.17629,23.43862 1.39796,35.39153 z"
   id="path574"
   sodipodi:nodetypes="ccccsc"
   style="fill:#ffffff" />
	</g>
	<path
   id="XMLID_62_"
   class="st9"
   d="M 676.2,649.7 532.6,634.5 C 510.1,632.3 493,613.4 493,590.8 l -2.3,-18.4 c -3.2,-27.1 -23.4,-36 -43.7,-36 -29,0 -33.5,19.7 -34.1,56.9 2.1,0.9 4.3,1 7.8,1.2 0.9,11.3 -3.8,21.5 -7.7,28.1 2.5,37.9 26,65.7 59.8,65.7 h 216.8 c 5.4,0 14.2,-0.8 21.7,-1.6 7.5,-0.8 11.3,-9.5 6.7,-15.5 -7.8,-10.1 -15.8,-16.9 -41.8,-21.5 z" />
	<path
   id="XMLID_61_"
   class="st15"
   d="M 676.2,649.7 532.6,634.5 C 510.1,632.3 493,613.4 493,590.8 l -2.3,-18.4 c -3.2,-27.1 -23.4,-36 -43.7,-36 -29,0 -33.5,19.7 -34.1,56.9 2.1,0.9 4.3,1 7.8,1.2 0.9,11.3 -3.8,21.5 -7.7,28.1 2.5,37.9 26,65.7 59.8,65.7 h 216.8 c 5.4,0 14.2,-0.8 21.7,-1.6 7.5,-0.8 11.3,-9.5 6.7,-15.5 -7.8,-10.1 -15.8,-16.9 -41.8,-21.5 z"
   style="fill:#ffffff;fill-opacity:1" />
	<path
   id="XMLID_60_"
   class="st17"
   d="m 716.5,669.3 c 0,9.3 -19,10.4 -24.1,10.4 l -214.6,-3.6 c -21.3,0 -36,-5.6 -49.9,-22.6 -3.8,-4.7 -11.6,-19.6 -13.9,-28.1 3.8,42.3 32.2,63.1 58.7,63.1 h 216.8 c 5.4,0 12,-0.8 19.5,-1.6 6.7,-0.8 13.9,-9.2 7.5,-17.6 z"
   style="fill:#ffffff;fill-opacity:1" />
	<path
   id="XMLID_59_"
   class="st18"
   d="m 718.8,668.4 c -7.7,-10.1 -16.5,-14.1 -42.3,-18.6 -0.1,0 -0.2,0 -0.4,-0.1 L 532.7,634.5 c -22.4,-2.1 -39.5,-20.9 -39.6,-43.4 0,-0.2 0,-0.3 0,-0.5 l -2.3,-18.2 c -3.2,-27.1 -23.4,-36 -43.7,-36 -3.3,0 -6.3,0.3 -9,0.8 -5.7,1.1 -5.4,1.7 -11.1,4.5 -6.7,3.4 -12.3,25.6 -12.3,25.7 0.8,18.4 0.8,-17.3 19.7,-22.3 21.8,-5.8 41.9,1.8 45.6,27.8 0,0 2.5,24.3 3.4,30.4 3.3,22.2 21.5,37.9 43.9,40.1 L 668.4,660 c 0.1,0 -3.8,-4 -3.7,-4 25.8,4.6 52.5,7.5 54.1,20.1 0,0.2 -2.8,4.4 -2.7,4.6 1.2,1.2 1.1,1.5 2.7,-1.6 1.7,-3.2 2.4,-7.5 0,-10.7 z"
   style="fill:#ffffff;fill-opacity:1" />
	<path
   id="XMLID_58_"
   class="st12"
   d="M 676.2,649.7 532.6,634.5 C 510.1,632.3 493,613.4 493,590.8 l -2.3,-18.4 c -3.2,-27.1 -23.4,-36 -43.7,-36 -29,0 -33.5,19.7 -34.1,56.9 2.1,0.9 4.3,1 7.8,1.2 0.9,11.3 -3.8,21.5 -7.7,28.1 2.5,37.9 26,65.7 59.8,65.7 h 216.8 c 5.4,0 17.5,-1.1 23.7,-5.3 7.6,-5.2 7.8,-12.8 2.5,-18.1 -7.5,-7.5 -13.6,-10.6 -39.6,-15.2 z" />
	<path
   id="XMLID_57_"
   class="st13"
   d="m 412.9,593.4 c 0,0 6.9,3.9 30.2,-2.4 0.2,8.6 -12.8,29.6 -30,31.7 1,-1.8 7.1,-13.5 7.6,-21.7 0,-1.5 0.6,-5.4 0.1,-6.4 -5.2,0 -7.9,-1.2 -7.9,-1.2 z" />
	<path
   id="XMLID_56_"
   class="st12"
   d="m 412.9,593.4 c 0,0 6.9,3.9 30.2,-2.4 0.2,8.6 -12.8,29.6 -30,31.7 1,-1.8 7.1,-13.5 7.6,-21.7 0,-1.5 0.6,-5.4 0.1,-6.4 -5.2,0 -7.9,-1.2 -7.9,-1.2 z" />
	<path
   id="XMLID_55_"
   class="st12"
   d="m 440.3,585.8 c 0.3,0.3 5.1,4.9 6.4,9.7" />
	<path
   id="XMLID_54_"
   class="st15"
   d="m 472.2,556.2 c -5.4,-0.4 -10.7,-0.9 -16.1,-1.3 3.4,-27.4 1.5,-54.9 -5.2,-81 3.8,-1.1 7.6,-2.2 11.4,-3.3 8.4,27.1 12,56.1 9.9,85.6 z"
   style="fill:#ffffff;fill-opacity:1" />
	<path
   id="XMLID_53_"
   class="st17"
   d="m 462.3,470.6 c -2.5,0.7 -4.9,1.4 -7.4,2.2 3.4,9.1 2.4,32.5 4.1,32.3 1.7,-0.2 5.2,-1.3 5.6,0.3 3.1,14.5 4.8,30.1 4.8,48.4 2.4,0.2 0.4,2.3 2.8,2.5 2.1,-29.6 -1.5,-58.6 -9.9,-85.7 z"
   style="fill:#fdb130;fill-opacity:1" />
	<path
   id="XMLID_52_"
   class="st12"
   d="m 457,546.2 c 2,-24.5 -0.1,-48.9 -6.1,-72.2 3.8,-1.1 7.6,-2.2 11.4,-3.3 8.5,27.1 12,56.1 9.9,85.6"
   style="fill:#ffffff" />
	<g
   id="XMLID_44_">
		<g
   id="XMLID_49_">
			<circle
   id="XMLID_51_"
   class="st15"
   cx="422.5"
   cy="480.5"
   r="24.299999"
   style="fill:#fdb130;fill-opacity:1" />
			<circle
   id="XMLID_50_"
   class="st12"
   cx="422.5"
   cy="480.5"
   r="24.299999"
   style="fill:#ffffff" />
		</g>
		<g
   id="XMLID_45_">
			<circle
   id="XMLID_48_"
   class="st9"
   cx="419.89999"
   cy="484.39999"
   r="19.9" />
			<circle
   id="XMLID_47_"
   class="st13"
   cx="414.60001"
   cy="487.29999"
   r="7.4000001" />
			<circle
   id="XMLID_46_"
   class="st12"
   cx="419.89999"
   cy="484.39999"
   r="19.9" />
		</g>
	</g>
	<g
   id="XMLID_36_">
		<g
   id="XMLID_41_">
			<circle
   id="XMLID_43_"
   class="st15"
   cx="461.5"
   cy="463.60001"
   r="32.799999"
   style="fill:#fdb130;fill-opacity:1" />
			<circle
   id="XMLID_42_"
   class="st12"
   cx="461.5"
   cy="463.60001"
   r="32.799999"
   style="fill:#ffffff" />
		</g>
		<g
   id="XMLID_37_">
			<circle
   id="XMLID_40_"
   class="st9"
   cx="457.89999"
   cy="468.79999"
   r="26.9" />
			<circle
   id="XMLID_39_"
   class="st13"
   cx="450.70001"
   cy="472.70001"
   r="9.8999996" />
			<circle
   id="XMLID_38_"
   class="st12"
   cx="457.89999"
   cy="468.79999"
   r="26.9" />
		</g>
	</g>
	<path
   id="XMLID_35_"
   class="st19"
   d="M 612.2,624.5" />
	<path
   id="XMLID_34_"
   class="st20"
   d="m 543.8,653.4 c -15.9,-2.2 -31.4,-28.1 -31.4,-62.5 0,-54.8 42.7,-95.3 95.3,-95.3 52.6,0 95.3,42.7 95.3,95.4 0,52.7 -42.7,95.3 -95.3,95.3 -26.3,0 -63.8,-12.1 -70,-51.4 -6.2,-39.3 18.3,-76.6 61.3,-79.1 27.9,-1.6 53.2,21.2 53.2,49.1 0,27.9 -23.3,48.7 -44.5,48.7 -21,0 -32.2,-13 -32.2,-28.6 0,-15.6 10.6,-26.2 26.2,-26.2 10.4,0 15.8,9.9 15.4,17.5"
   style="fill:#cf264d;fill-opacity:1" />
	<path
   id="XMLID_33_"
   class="st21"
   d="m 586.7,648.3 c 0,0 41.6,12 65.2,-37.7 -6.4,19 -8.6,29.1 -26.5,38.5 -20.9,4.4 -19.1,6.6 -38.7,-0.8 z" />
	<path
   id="XMLID_25_"
   class="st21"
   d="m 679.2,528.7 c 11.7,15.8 19.5,31.3 20.9,47.8 5.2,63.3 -56.4,106.8 -106.9,101.5 -21.5,-2.2 -34,-10.5 -49.3,-24.6 l -16.6,-11.3 c -5,-0.7 -1.8,-5.5 -6.3,-10.3 6,12.4 14.4,20.4 22.9,21.5 v 0 c 13.1,24.7 42.3,32.9 63.9,32.9 52.6,0 95.3,-42.7 95.3,-95.3 -0.1,-22.1 -7.3,-45.6 -23.9,-62.2 z" />
	<path
   id="XMLID_24_"
   class="st22"
   d="m 517.8,599.6 c 0,-54.8 42.7,-95.3 95.3,-95.3 32.1,0 60.6,15.9 77.8,40.3 -16.3,-29.2 -47.5,-48.9 -83.3,-48.9 -52.6,0 -95.3,40.5 -95.3,95.3 0,21.8 6.2,40.1 14.8,51.2 -5.6,-11 -9.3,-25.8 -9.3,-42.6 z" />
	<path
   id="XMLID_23_"
   class="st22"
   d="m 545.2,656 c -0.5,-0.8 -1,-1.7 -1.5,-2.6 l 0.5,-0.2 c -0.9,-2.9 -1.6,-5.9 -2.1,-9.1 -6.2,-39.3 18.3,-76.6 61.3,-79.1 18.9,-1.1 36.6,9 46,24.3 -7.2,-20.3 -28,-34.8 -50.5,-33.5 -43,2.4 -67.5,39.8 -61.3,79.1 1.1,7 3.2,13.2 6.1,18.6" />
	<path
   id="XMLID_229_"
   class="st22"
   d="m 577.6,636.3 c -1.5,-3.5 -2.2,-7.3 -2.2,-11.3 0,-15.6 10.6,-26.2 26.2,-26.2 7.3,0 12.1,2.9 14.2,8.4 -2.4,-2 -7,-3.6 -10.8,-3.6 -20,0 -26.4,14.6 -26.4,30.3 0,1 0.2,1.5 0.3,2.4 z" />
	<path
   id="XMLID_228_"
   class="st12"
   d="m 543.8,653.4 c -15.9,-2.2 -31.4,-28.1 -31.4,-62.5 0,-54.8 42.7,-95.3 95.3,-95.3 52.6,0 95.3,42.7 95.3,95.4 0,52.7 -42.7,95.3 -95.3,95.3 -26.3,0 -63.8,-12.1 -70,-51.4 -6.2,-39.3 18.3,-76.6 61.3,-79.1 27.9,-1.6 53.2,21.2 53.2,49.1 0,27.9 -23.3,48.7 -44.5,48.7 -21,0 -32.2,-13 -32.2,-28.6 0,-15.6 10.6,-27.3 26.2,-26.2 14.2,1 18.9,13.6 15.4,19.1" />
	
	<line
   id="XMLID_17_"
   class="st12"
   x1="790.59998"
   y1="689.5"
   x2="792.09998"
   y2="689.5" />
	<line
   id="XMLID_16_"
   class="st12"
   x1="754.20001"
   y1="689.5"
   x2="780"
   y2="689.5" />
	<line
   id="XMLID_15_"
   class="st12"
   x1="738.40002"
   y1="689.5"
   x2="745.09998"
   y2="689.5" />
	<line
   id="XMLID_14_"
   class="st12"
   x1="422.10001"
   y1="689.5"
   x2="729.40002"
   y2="689.5" />
	<line
   id="XMLID_13_"
   class="st12"
   x1="400.70001"
   y1="689.5"
   x2="408.60001"
   y2="689.5" />
	<line
   id="XMLID_12_"
   class="st12"
   x1="365"
   y1="689.5"
   x2="386.89999"
   y2="689.5" />
	<g
   id="g638">
		<circle
   id="XMLID_32_"
   class="st24"
   cx="642.20001"
   cy="589.5"
   r="7.6999998" />
		<circle
   id="XMLID_31_"
   class="st24"
   cx="672.90002"
   cy="532.79999"
   r="8.5" />
		<circle
   id="XMLID_30_"
   class="st24"
   cx="546.79999"
   cy="648.29999"
   r="4.4000001" />
		<circle
   id="XMLID_29_"
   class="st24"
   cx="567.40002"
   cy="627.70001"
   r="3.2" />
		<circle
   id="XMLID_28_"
   class="st24"
   cx="525.5"
   cy="595.09998"
   r="2.2" />
		<circle
   id="XMLID_27_"
   class="st24"
   cx="537.70001"
   cy="572.09998"
   r="1" />
		<circle
   id="XMLID_26_"
   class="st24"
   cx="583.40002"
   cy="577.90002"
   r="3.2" />
		<circle
   id="XMLID_11_"
   class="st24"
   cx="556.70001"
   cy="536.90002"
   r="4.0999999" />
		<circle
   id="XMLID_10_"
   class="st24"
   cx="632.40002"
   cy="554.09998"
   r="4.0999999" />
		<circle
   id="XMLID_9_"
   class="st24"
   cx="607.70001"
   cy="513.40002"
   r="5.9000001" />
		<circle
   id="XMLID_8_"
   class="st24"
   cx="664.40002"
   cy="604.70001"
   r="5.9000001" />
		<circle
   id="XMLID_7_"
   class="st24"
   cx="686"
   cy="570.90002"
   r="4.8000002"
   style="fill:#cf264d;fill-opacity:1" />
		<circle
   id="XMLID_6_"
   class="st24"
   cx="602.20001"
   cy="666.29999"
   r="3.5999999" />
		<circle
   id="XMLID_202_"
   class="st24"
   cx="647.70001"
   cy="653.70001"
   r="1.8" />
	</g>
</g>
<g
   id="g687"
   transform="matrix(1.3459295,0,0,1.4708952,-156.49831,-169.55952)">
	<circle
   id="XMLID_200_"
   class="st25"
   cx="745.09998"
   cy="545.79999"
   r="3.3" />
	<circle
   id="XMLID_199_"
   class="st26"
   cx="947.29999"
   cy="494.60001"
   r="3.3" />
	<circle
   id="XMLID_198_"
   class="st26"
   cx="349.20001"
   cy="159.39999"
   r="3.3" />
	<circle
   id="XMLID_197_"
   class="st27"
   cx="665.29999"
   cy="357.79999"
   r="5" />
	<circle
   id="XMLID_196_"
   class="st28"
   cx="115.7"
   cy="594.59998"
   r="3.0999999" />
	<circle
   id="XMLID_195_"
   class="st29"
   cx="556.70001"
   cy="462.70001"
   r="4" />
	<circle
   id="XMLID_194_"
   class="st27"
   cx="440.79999"
   cy="376.70001"
   r="3.3" />
	<circle
   id="XMLID_193_"
   class="st29"
   cx="911.09998"
   cy="604.70001"
   r="4" />
	<circle
   id="XMLID_192_"
   class="st27"
   cx="218"
   cy="407.5"
   r="2.0999999" />
	<circle
   id="XMLID_191_"
   class="st30"
   cx="70.599998"
   cy="468.79999"
   r="2.0999999" />
	<g
   id="XMLID_188_">
		<line
   id="XMLID_190_"
   class="st30"
   x1="835.20001"
   y1="521.70001"
   x2="842.5"
   y2="521.70001" />
		<line
   id="XMLID_189_"
   class="st30"
   x1="838.79999"
   y1="518.09998"
   x2="838.79999"
   y2="525.40002" />
	</g>
	<g
   id="XMLID_185_"
   class="st31">
		<line
   id="XMLID_187_"
   class="st30"
   x1="763.40002"
   y1="195.5"
   x2="770.79999"
   y2="195.5" />
		<line
   id="XMLID_186_"
   class="st30"
   x1="767.09998"
   y1="191.8"
   x2="767.09998"
   y2="199.2" />
	</g>
	<g
   id="XMLID_182_">
		<line
   id="XMLID_184_"
   class="st28"
   x1="697.29999"
   y1="439.10001"
   x2="703"
   y2="439.10001" />
		<line
   id="XMLID_183_"
   class="st28"
   x1="700.20001"
   y1="436.20001"
   x2="700.20001"
   y2="441.89999" />
	</g>
	<g
   id="XMLID_179_">
		<line
   id="XMLID_181_"
   class="st28"
   x1="481.89999"
   y1="259.5"
   x2="487.60001"
   y2="259.5" />
		<line
   id="XMLID_180_"
   class="st28"
   x1="484.79999"
   y1="256.70001"
   x2="484.79999"
   y2="262.29999" />
	</g>
	<g
   id="XMLID_170_">
		<line
   id="XMLID_4_"
   class="st28"
   x1="270.70001"
   y1="445.79999"
   x2="278.5"
   y2="445.79999" />
		<line
   id="XMLID_3_"
   class="st28"
   x1="274.60001"
   y1="441.89999"
   x2="274.60001"
   y2="449.60001" />
	</g>
	<g
   id="XMLID_167_">
		<line
   id="XMLID_169_"
   class="st29"
   x1="232.89999"
   y1="557.70001"
   x2="243.2"
   y2="557.70001" />
		<line
   id="XMLID_168_"
   class="st29"
   x1="238"
   y1="552.5"
   x2="238"
   y2="562.90002" />
	</g>
	<g
   id="XMLID_165_">
		<path
   class="st32"
   d="m 319.1,501.8 c 1.1,-1.5 2.7,-0.4 3.8,-1.9 1.1,-1.5 -0.5,-2.7 0.6,-4.2 1.1,-1.5 2.7,-0.4 3.8,-1.9 1.1,-1.5 -0.5,-2.7 0.6,-4.3 1.1,-1.5 2.7,-0.4 3.8,-1.9"
   id="path669" />
	</g>
	<g
   id="XMLID_163_"
   class="st33">
		<path
   class="st32"
   d="m 103.3,546.2 c -0.6,-1.8 1.2,-2.5 0.6,-4.2 -0.6,-1.8 -2.5,-1.1 -3.2,-2.9 -0.6,-1.8 1.2,-2.5 0.6,-4.2 -0.6,-1.8 -2.5,-1.1 -3.2,-2.9 -0.6,-1.8 1.2,-2.5 0.6,-4.2"
   id="path672" />
	</g>
	<g
   id="XMLID_161_">
		<path
   class="st32"
   d="m 799.3,447.1 c -1.7,-0.9 -0.8,-2.6 -2.5,-3.5 -1.7,-0.9 -2.6,0.9 -4.3,0.1 -1.7,-0.9 -0.8,-2.6 -2.5,-3.5 -1.7,-0.9 -2.6,0.9 -4.3,0.1 -1.7,-0.9 -0.8,-2.6 -2.5,-3.5"
   id="path675" />
	</g>
	<g
   id="XMLID_159_"
   class="st34">
		<path
   class="st29"
   d="m 349.7,594.7 c -1.2,0.7 -2.2,-1 -3.4,-0.3 -1.2,0.7 -0.2,2.4 -1.3,3.1 -1.2,0.7 -2.2,-1 -3.4,-0.3 -1.2,0.7 -0.2,2.4 -1.3,3.1 -1.1,0.7 -2.2,-1 -3.4,-0.3"
   id="path678" />
	</g>
	<g
   id="XMLID_155_">
		<path
   class="st30"
   d="m 886.6,408.6 c 1.8,-0.6 2.4,1.4 4.2,0.8 1.8,-0.6 1.2,-2.5 3,-3 1.8,-0.6 2.4,1.4 4.2,0.8 1.8,-0.6 1.2,-2.5 3,-3 1.8,-0.5 2.4,1.4 4.2,0.8"
   id="path681" />
	</g>
	<g
   id="XMLID_2_">
		<path
   class="st30"
   d="m 554.9,362.4 c 1.8,-0.6 2.4,1.4 4.2,0.8 1.8,-0.6 1.2,-2.5 3,-3 1.8,-0.6 2.4,1.4 4.2,0.8 1.8,-0.6 1.2,-2.5 3,-3 1.8,-0.5 2.4,1.4 4.2,0.8"
   id="path684" />
	</g>
</g>


</svg>
