<?xml version="1.0" encoding="UTF-8" standalone="no"?>
<svg
   xmlns:dc="http://purl.org/dc/elements/1.1/"
   xmlns:cc="http://creativecommons.org/ns#"
   xmlns:rdf="http://www.w3.org/1999/02/22-rdf-syntax-ns#"
   xmlns:svg="http://www.w3.org/2000/svg"
   xmlns="http://www.w3.org/2000/svg"
   xmlns:sodipodi="http://sodipodi.sourceforge.net/DTD/sodipodi-0.dtd"
   xmlns:inkscape="http://www.inkscape.org/namespaces/inkscape"
   version="1.1"
   id="Layer_1"
   x="0px"
   y="0px"
   viewBox="0 0 1000 1000"
   style="enable-background:new 0 0 1000 1000;"
   xml:space="preserve"
   sodipodi:docname="calc1.svg"
   inkscape:version="1.0.1 (3bc2e813f5, 2020-09-07)"><metadata
   id="metadata1709"><rdf:RDF><cc:Work
       rdf:about=""><dc:format>image/svg+xml</dc:format><dc:type
         rdf:resource="http://purl.org/dc/dcmitype/StillImage" /><dc:title></dc:title></cc:Work></rdf:RDF></metadata><defs
   id="defs1707" /><sodipodi:namedview
   pagecolor="#ffffff"
   bordercolor="#666666"
   borderopacity="1"
   objecttolerance="10"
   gridtolerance="10"
   guidetolerance="10"
   inkscape:pageopacity="0"
   inkscape:pageshadow="2"
   inkscape:window-width="1920"
   inkscape:window-height="1017"
   id="namedview1705"
   showgrid="false"
   inkscape:zoom="0.85"
   inkscape:cx="500"
   inkscape:cy="452.94118"
   inkscape:window-x="-8"
   inkscape:window-y="-8"
   inkscape:window-maximized="1"
   inkscape:current-layer="Layer_1" />
<style
   type="text/css"
   id="style1380">
	.st0{fill:#602A77;}
	.st1{fill:#EEF2F4;}
	.st2{opacity:0.2;fill:#241228;stroke:#241228;stroke-width:6;stroke-linecap:round;stroke-linejoin:round;stroke-miterlimit:10;}
	.st3{fill:#EB6331;}
	.st4{fill:#DD562C;}
	.st5{fill:none;stroke:#511C64;stroke-width:6;stroke-linecap:round;stroke-linejoin:round;stroke-miterlimit:10;}
	.st6{fill:#FDA22F;}
	.st7{fill:#FC9435;}
	.st8{fill:#FFB331;}
	.st9{fill:#A5F3FF;}
	.st10{fill:#511C64;}
	.st11{opacity:0.2;fill:#511C64;}
	.st12{opacity:0.2;}
	.st13{opacity:0.43;fill:#D2FCFB;}
	.st14{fill:#FC9435;stroke:#FC9435;stroke-width:6;stroke-miterlimit:10;}
	.st15{fill:#FF82A0;}
	.st16{fill:#B078FD;}
	.st17{fill:#A270F2;}
	.st18{fill:none;stroke:#FFFFFF;stroke-width:3;stroke-linecap:round;stroke-linejoin:round;stroke-miterlimit:10;}
	.st19{fill:#F27095;}
</style>


<path
   id="XMLID_2_"
   class="st2"
   d="M 748.00427,818.36294 H 298.29222 c -31.58691,0 -57.10629,-22.38303 -57.10629,-50.08788 V 296.97924 c 0,-27.70487 25.51938,-50.08791 57.10629,-50.08791 h 449.71205 c 31.58692,0 57.10628,22.38304 57.10628,50.08791 v 471.29582 c 0,27.70485 -25.51936,50.08788 -57.10628,50.08788 z" />
<path
   id="XMLID_17_"
   class="st3"
   d="M 771.20371,791.12765 H 321.49166 c -31.58693,0 -57.10629,-22.38304 -57.10629,-50.08792 V 317.32746 c 0,-27.70488 25.51936,-50.08792 57.10629,-50.08792 h 449.71205 c 31.58691,0 57.10629,22.38304 57.10629,50.08792 v 423.71227 c 0,27.70488 -25.51938,50.08792 -57.10629,50.08792 z"
   style="stroke-width:1.67133" />
<path
   id="XMLID_27_"
   class="st4"
   d="M 771.20371,767.64895 H 321.49166 c -31.58693,0 -57.10629,-22.38303 -57.10629,-50.0879 v 23.47868 c 0,27.70488 25.51936,50.08792 57.10629,50.08792 h 449.71205 c 31.58691,0 57.10629,-22.38304 57.10629,-50.08792 v -23.47868 c 0,27.70487 -25.51938,50.0879 -57.10629,50.0879 z"
   style="stroke-width:1.67133" />
<path
   id="XMLID_16_"
   class="st5"
   d="M 771.20371,791.12765 H 321.49166 c -31.58693,0 -57.10629,-22.38304 -57.10629,-50.08792 V 317.32746 c 0,-27.70488 25.51936,-50.08792 57.10629,-50.08792 h 449.71205 c 31.58691,0 57.10629,22.38304 57.10629,50.08792 v 423.71227 c 0,27.70488 -25.51938,50.08792 -57.10629,50.08792 z" />
<path
   id="XMLID_9_"
   class="st6"
   d="M 771.20371,755.12697 H 321.49166 c -31.58693,0 -57.10629,-22.38303 -57.10629,-50.0879 V 281.32676 c 0,-27.70485 25.51936,-50.08789 57.10629,-50.08789 h 449.71205 c 31.58691,0 57.10629,22.38304 57.10629,50.08789 v 423.71231 c 0,27.70487 -25.51938,50.0879 -57.10629,50.0879 z"
   style="stroke-width:1.67133" />
<path
   id="XMLID_15_"
   class="st6"
   d="M 771.20371,755.12697 H 321.49166 c -31.58693,0 -57.10629,-22.38303 -57.10629,-50.0879 V 281.32676 c 0,-27.70485 25.51936,-50.08789 57.10629,-50.08789 h 449.71205 c 31.58691,0 57.10629,22.38304 57.10629,50.08789 v 423.71231 c 0,27.70487 -25.51938,50.0879 -57.10629,50.0879 z"
   style="stroke-width:1.67133" />
<path
   id="XMLID_25_"
   class="st7"
   d="M 297.75685,705.03907 V 281.32676 c 0,-27.70485 25.51937,-50.08789 57.1063,-50.08789 h -33.37149 c -31.58693,0 -57.10629,22.38304 -57.10629,50.08789 v 423.71231 c 0,27.70487 25.51936,50.0879 57.10629,50.0879 h 33.37149 c -31.58693,0 -57.1063,-22.38303 -57.1063,-50.0879 z"
   style="stroke-width:1.67133" />
<path
   id="XMLID_24_"
   class="st8"
   d="m 771.20371,231.23887 h -33.37149 c 31.58692,0 57.1063,22.38304 57.1063,50.08789 v 423.71231 c 0,27.70487 -25.51938,50.0879 -57.1063,50.0879 h 33.37149 c 31.58691,0 57.10629,-22.38303 57.10629,-50.0879 V 281.32676 c 0,-27.70485 -25.51938,-50.08789 -57.10629,-50.08789 z"
   style="stroke-width:1.67133" />
<path
   id="XMLID_1_"
   class="st5"
   d="M 771.20371,755.12697 H 321.49166 c -31.58693,0 -57.10629,-22.38303 -57.10629,-50.0879 V 281.32676 c 0,-27.70485 25.51936,-50.08789 57.10629,-50.08789 h 449.71205 c 31.58691,0 57.10629,22.38304 57.10629,50.08789 v 423.71231 c 0,27.70487 -25.51938,50.0879 -57.10629,50.0879 z" />
<path
   id="XMLID_11_"
   class="st9"
   d="M 746.21971,396.68545 H 346.47567 c -7.85213,0 -14.27659,-5.63489 -14.27659,-12.52198 v -81.39282 c 0,-6.88708 6.42446,-12.52198 14.27659,-12.52198 h 399.74404 c 7.85211,0 14.27656,5.6349 14.27656,12.52198 v 81.39282 c 0,6.88709 -6.42445,12.52198 -14.27656,12.52198 z"
   style="stroke-width:1.67133" />
<g
   id="XMLID_47_"
   transform="matrix(1.7845717,0,0,1.5652467,-363.07003,-248.19623)">
	<polygon
   id="XMLID_73_"
   class="st10"
   points="591,358.5 592.9,356.6 607.6,356.6 609.5,358.2 607.5,360.5 592.9,360.5 " />
	<polygon
   id="XMLID_72_"
   class="st11"
   points="588.5,361 590.4,359.1 592.3,361 592.3,375.7 590.4,377.6 588.5,375.7 " />
	<polygon
   id="XMLID_71_"
   class="st10"
   points="608.1,361 610,358.7 611.9,361 611.9,375.7 610,377.6 608.1,375.7 " />
	<polygon
   id="XMLID_70_"
   class="st11"
   points="591,378.1 592.9,376.2 607.5,376.2 609.5,378.1 607.5,380 592.9,380 " />
	<polygon
   id="XMLID_69_"
   class="st11"
   points="588.5,380.9 590.4,379 592.3,380.9 592.3,395.6 590.4,397.5 588.5,395.6 " />
	<polygon
   id="XMLID_68_"
   class="st10"
   points="608.1,380.9 610,378.7 611.9,380.9 611.9,395.6 610,397.5 608.1,395.6 " />
	<polygon
   id="XMLID_67_"
   class="st11"
   points="591,398 592.9,396.1 607.5,396.1 609.5,398 607.5,400 592.9,400 " />
</g>
<g
   id="XMLID_54_"
   transform="matrix(1.7845717,0,0,1.5652467,-363.07003,-248.19623)">
	<polygon
   id="XMLID_74_"
   class="st10"
   points="556.3,358.5 558.3,356.6 572.9,356.6 574.8,358.2 572.9,360.5 558.3,360.5 " />
	<polygon
   id="XMLID_65_"
   class="st11"
   points="553.9,361 555.8,359.1 557.7,361 557.7,375.7 555.8,377.6 553.9,375.7 " />
	<polygon
   id="XMLID_64_"
   class="st10"
   points="573.5,361 575.4,358.7 577.3,361 577.3,375.7 575.4,377.6 573.5,375.7 " />
	<polygon
   id="XMLID_63_"
   class="st10"
   points="556.3,378.1 558.3,376.2 572.9,376.2 574.8,378.1 572.9,380 558.3,380 " />
	<polygon
   id="XMLID_62_"
   class="st11"
   points="553.9,380.9 555.8,379 557.7,380.9 557.7,395.6 555.8,397.5 553.9,395.6 " />
	<polygon
   id="XMLID_57_"
   class="st10"
   points="573.5,380.9 575.4,378.7 577.3,380.9 577.3,395.6 575.4,397.5 573.5,395.6 " />
	<polygon
   id="XMLID_55_"
   class="st10"
   points="556.3,398 558.3,396.1 572.9,396.1 574.8,398 572.9,400 558.3,400 " />
</g>
<g
   id="XMLID_83_"
   class="st12"
   transform="matrix(1.7845717,0,0,1.5652467,-363.07003,-248.19623)">
	<polygon
   id="XMLID_90_"
   class="st10"
   points="486.9,358.5 488.8,356.6 503.5,356.6 505.4,358.2 503.5,360.5 488.8,360.5 " />
	<polygon
   id="XMLID_89_"
   class="st10"
   points="484.4,361 486.4,359.1 488.3,361 488.3,375.7 486.4,377.6 484.4,375.7 " />
	<polygon
   id="XMLID_88_"
   class="st10"
   points="504,361 505.9,358.7 507.9,361 507.9,375.7 505.9,377.6 504,375.7 " />
	<polygon
   id="XMLID_87_"
   class="st10"
   points="486.9,378.1 488.8,376.2 503.5,376.2 505.4,378.1 503.5,380 488.8,380 " />
	<polygon
   id="XMLID_86_"
   class="st10"
   points="484.4,380.9 486.4,379 488.3,380.9 488.3,395.6 486.4,397.5 484.4,395.6 " />
	<polygon
   id="XMLID_85_"
   class="st10"
   points="504,380.9 505.9,378.7 507.9,380.9 507.9,395.6 505.9,397.5 504,395.6 " />
	<polygon
   id="XMLID_84_"
   class="st10"
   points="486.9,398 488.8,396.1 503.5,396.1 505.4,398 503.5,400 488.8,400 " />
</g>
<g
   id="XMLID_76_"
   class="st12"
   transform="matrix(1.7845717,0,0,1.5652467,-363.07003,-248.19623)">
	<polygon
   id="XMLID_107_"
   class="st10"
   points="521.6,358.5 523.5,356.6 538.2,356.6 540.1,358.2 538.1,360.5 523.5,360.5 " />
	<polygon
   id="XMLID_82_"
   class="st10"
   points="519.1,361 521,359.1 523,361 523,375.7 521,377.6 519.1,375.7 " />
	<polygon
   id="XMLID_81_"
   class="st10"
   points="538.7,361 540.6,358.7 542.6,361 542.6,375.7 540.6,377.6 538.7,375.7 " />
	<polygon
   id="XMLID_80_"
   class="st10"
   points="521.6,378.1 523.5,376.2 538.2,376.2 540.1,378.1 538.2,380 523.5,380 " />
	<polygon
   id="XMLID_79_"
   class="st10"
   points="519.1,380.9 521,379 523,380.9 523,395.6 521,397.5 519.1,395.6 " />
	<polygon
   id="XMLID_78_"
   class="st10"
   points="538.7,380.9 540.6,378.7 542.6,380.9 542.6,395.6 540.6,397.5 538.7,395.6 " />
	<polygon
   id="XMLID_77_"
   class="st10"
   points="521.6,398 523.5,396.1 538.2,396.1 540.1,398 538.2,400 523.5,400 " />
</g>
<g
   id="XMLID_91_"
   class="st12"
   transform="matrix(1.7845717,0,0,1.5652467,-363.07003,-248.19623)">
	<polygon
   id="XMLID_98_"
   class="st10"
   points="417.5,358.5 419.5,356.6 434.1,356.6 436,358.2 434.1,360.5 419.5,360.5 " />
	<polygon
   id="XMLID_97_"
   class="st10"
   points="415.1,361 417,359.1 418.9,361 418.9,375.7 417,377.6 415.1,375.7 " />
	<polygon
   id="XMLID_96_"
   class="st10"
   points="434.7,361 436.6,358.7 438.5,361 438.5,375.7 436.6,377.6 434.7,375.7 " />
	<polygon
   id="XMLID_95_"
   class="st10"
   points="417.5,378.1 419.5,376.2 434.1,376.2 436,378.1 434.1,380 419.5,380 " />
	<polygon
   id="XMLID_94_"
   class="st10"
   points="415.1,380.9 417,379 418.9,380.9 418.9,395.6 417,397.5 415.1,395.6 " />
	<polygon
   id="XMLID_93_"
   class="st10"
   points="434.7,380.9 436.6,378.7 438.5,380.9 438.5,395.6 436.6,397.5 434.7,395.6 " />
	<polygon
   id="XMLID_92_"
   class="st10"
   points="417.5,398 419.5,396.1 434.1,396.1 436,398 434.1,400 419.5,400 " />
</g>
<g
   id="XMLID_99_"
   class="st12"
   transform="matrix(1.7845717,0,0,1.5652467,-363.07003,-248.19623)">
	<polygon
   id="XMLID_106_"
   class="st10"
   points="452.2,358.5 454.1,356.6 468.8,356.6 470.7,358.2 468.8,360.5 454.1,360.5 " />
	<polygon
   id="XMLID_105_"
   class="st10"
   points="449.8,361 451.7,359.1 453.6,361 453.6,375.7 451.7,377.6 449.8,375.7 " />
	<polygon
   id="XMLID_104_"
   class="st10"
   points="469.3,361 471.3,358.7 473.2,361 473.2,375.7 471.3,377.6 469.3,375.7 " />
	<polygon
   id="XMLID_103_"
   class="st10"
   points="452.2,378.1 454.1,376.2 468.8,376.2 470.7,378.1 468.8,380 454.1,380 " />
	<polygon
   id="XMLID_102_"
   class="st10"
   points="449.8,380.9 451.7,379 453.6,380.9 453.6,395.6 451.7,397.5 449.8,395.6 " />
	<polygon
   id="XMLID_101_"
   class="st10"
   points="469.3,380.9 471.3,378.7 473.2,380.9 473.2,395.6 471.3,397.5 469.3,395.6 " />
	<polygon
   id="XMLID_100_"
   class="st10"
   points="452.2,398 454.1,396.1 468.8,396.1 470.7,398 468.8,400 454.1,400 " />
</g>
<path
   id="XMLID_42_"
   class="st13"
   d="M 746.21971,324.68411 H 346.47567 c -7.85213,0 -14.27659,-5.63488 -14.27659,-12.52197 v -9.39149 c 0,-6.88708 6.42446,-12.52198 14.27659,-12.52198 h 399.74404 c 7.85211,0 14.27656,5.6349 14.27656,12.52198 v 9.39149 c 0,6.88709 -6.42445,12.52197 -14.27656,12.52197 z"
   style="stroke-width:1.67133" />
<path
   id="XMLID_3_"
   class="st5"
   d="M 746.21971,396.68545 H 346.47567 c -7.85213,0 -14.27659,-5.63489 -14.27659,-12.52198 v -81.39282 c 0,-6.88708 6.42446,-12.52198 14.27659,-12.52198 h 399.74404 c 7.85211,0 14.27656,5.6349 14.27656,12.52198 v 81.39282 c 0,6.88709 -6.42445,12.52198 -14.27656,12.52198 z" />
<path
   id="XMLID_41_"
   class="st14"
   d="m 419.64309,554.46234 h -85.65944 c -7.8521,0 -14.27656,-5.63488 -14.27656,-12.52197 v -75.13184 c 0,-6.8871 6.42446,-12.52199 14.27656,-12.52199 h 85.65944 c 7.85211,0 14.27659,5.63489 14.27659,12.52199 v 75.13184 c 0,7.04361 -6.42448,12.52197 -14.27659,12.52197 z" />
<path
   id="XMLID_43_"
   class="st14"
   d="M 577.75613,554.46234 H 492.0967 c -7.85211,0 -14.27657,-5.63488 -14.27657,-12.52197 v -75.13184 c 0,-6.8871 6.42446,-12.52199 14.27657,-12.52199 h 85.65943 c 7.85212,0 14.2766,5.63489 14.2766,12.52199 v 75.13184 c 0,7.04361 -6.42448,12.52197 -14.2766,12.52197 z" />
<path
   id="XMLID_45_"
   class="st14"
   d="m 419.64309,692.98667 h -85.65944 c -7.8521,0 -14.27656,-5.6349 -14.27656,-12.52195 v -75.13187 c 0,-6.88707 6.42446,-12.52197 14.27656,-12.52197 h 85.65944 c 7.85211,0 14.27659,5.6349 14.27659,12.52197 v 75.13187 c 0,7.04358 -6.42448,12.52195 -14.27659,12.52195 z" />
<path
   id="XMLID_44_"
   class="st14"
   d="M 577.75613,692.98667 H 492.0967 c -7.85211,0 -14.27657,-5.6349 -14.27657,-12.52195 v -75.13187 c 0,-6.88707 6.42446,-12.52197 14.27657,-12.52197 h 85.65943 c 7.85212,0 14.2766,5.6349 14.2766,12.52197 v 75.13187 c 0,7.04358 -6.42448,12.52195 -14.2766,12.52195 z" />
<path
   id="XMLID_46_"
   class="st14"
   d="M 734.79844,692.98667 H 649.139 c -7.8521,0 -14.27658,-5.6349 -14.27658,-12.52195 V 466.80853 c 0,-6.8871 6.42448,-12.52199 14.27658,-12.52199 h 85.65944 c 7.85211,0 14.27659,5.63489 14.27659,12.52199 v 213.65619 c 0,7.04358 -6.42448,12.52195 -14.27659,12.52195 z" />
<path
   id="XMLID_19_"
   class="st15"
   d="m 589.17739,545.07085 h -85.65943 c -7.85211,0 -14.27657,-5.63489 -14.27657,-12.52196 v -75.13187 c 0,-6.88706 6.42446,-12.52195 14.27657,-12.52195 h 85.65943 c 7.85213,0 14.27658,5.63489 14.27658,12.52195 v 75.13187 c 0,7.04359 -6.42445,12.52196 -14.27658,12.52196 z"
   style="stroke-width:1.67133" />
<g
   id="g1668"
   transform="matrix(1.7845717,0,0,1.5652467,-363.07003,-248.19623)">
	<path
   id="XMLID_14_"
   class="st16"
   d="m 621.6,594.8 h -48 c -4.4,0 -8,-3.6 -8,-8 v -136 c 0,-4.4 3.6,-8 8,-8 h 48 c 4.4,0 8,3.6 8,8 v 136 c 0,4.5 -3.6,8 -8,8 z" />
	<path
   id="XMLID_56_"
   class="st17"
   d="m 577.5,587.8 c -2.1,0 -3.9,-1.7 -3.9,-3.9 V 442.8 c -4.4,0 -8,3.6 -8,8 v 136 c 0,4.4 3.6,8 8,8 h 48 c 4.1,0 7.4,-3.1 7.9,-7 z" />
	<path
   id="XMLID_8_"
   class="st5"
   d="m 621.6,594.8 h -48 c -4.4,0 -8,-3.6 -8,-8 v -136 c 0,-4.4 3.6,-8 8,-8 h 48 c 4.4,0 8,3.6 8,8 v 136 c 0,4.5 -3.6,8 -8,8 z" />
	<g
   id="XMLID_29_">
		<rect
   id="XMLID_38_"
   x="583.20001"
   y="506"
   class="st10"
   width="28.799999"
   height="7.1999998" />
		<rect
   id="XMLID_39_"
   x="583.20001"
   y="516.79999"
   class="st10"
   width="28.799999"
   height="7.1999998" />
	</g>
	<path
   id="XMLID_50_"
   class="st18"
   d="m 609,451.5 h 4.8 c 3.7,0 6.7,3 6.7,6.7 v 19.7" />
</g>
<g
   id="g1674"
   transform="matrix(1.7845717,0,0,1.5652467,-363.07003,-248.19623)">
	<path
   id="XMLID_59_"
   class="st19"
   d="m 489.5,499.8 c -2.1,0 -3.9,-1.7 -3.9,-3.9 v -53.1 c -4.4,0 -8,3.6 -8,8 v 48 c 0,4.4 3.6,8 8,8 h 48 c 4.1,0 7.4,-3.1 7.9,-7 z" />
	<path
   id="XMLID_7_"
   class="st5"
   d="m 533.6,506.8 h -48 c -4.4,0 -8,-3.6 -8,-8 v -48 c 0,-4.4 3.6,-8 8,-8 h 48 c 4.4,0 8,3.6 8,8 v 48 c 0,4.5 -3.6,8 -8,8 z" />
	<rect
   id="XMLID_30_"
   x="497"
   y="471.70001"
   class="st10"
   width="25.1"
   height="6.3000002" />
	<path
   id="XMLID_49_"
   class="st18"
   d="m 525.8,451.5 h 2.2 c 2.5,0 4.6,2.1 4.6,4.6 v 6.9" />
</g>
<g
   id="g1683"
   transform="matrix(1.7845717,0,0,1.5652467,-363.07003,-248.19623)">
	<path
   id="XMLID_10_"
   class="st15"
   d="m 445.6,506.8 h -48 c -4.4,0 -8,-3.6 -8,-8 v -48 c 0,-4.4 3.6,-8 8,-8 h 48 c 4.4,0 8,3.6 8,8 v 48 c 0,4.5 -3.6,8 -8,8 z" />
	<path
   id="XMLID_60_"
   class="st19"
   d="m 401.5,499.8 c -2.1,0 -3.9,-1.7 -3.9,-3.9 v -53.1 c -4.4,0 -8,3.6 -8,8 v 48 c 0,4.4 3.6,8 8,8 h 48 c 4.1,0 7.4,-3.1 7.9,-7 z" />
	<path
   id="XMLID_5_"
   class="st5"
   d="m 445.6,506.8 h -48 c -4.4,0 -8,-3.6 -8,-8 v -48 c 0,-4.4 3.6,-8 8,-8 h 48 c 4.4,0 8,3.6 8,8 v 48 c 0,4.5 -3.6,8 -8,8 z" />
	<g
   id="XMLID_37_">
		<rect
   id="XMLID_21_"
   x="407.60001"
   y="471.70001"
   class="st10"
   width="25.1"
   height="6.3000002" />
		
			<rect
   id="XMLID_22_"
   x="407.60001"
   y="471.70001"
   transform="rotate(90,420.133,474.8428)"
   class="st10"
   width="25.1"
   height="6.3000002" />
	</g>
	<path
   id="XMLID_48_"
   class="st18"
   d="m 437.3,451.5 h 2.2 c 2.5,0 4.6,2.1 4.6,4.6 v 6.9" />
</g>
<g
   id="g1692"
   transform="matrix(1.7845717,0,0,1.5652467,-363.07003,-248.19623)">
	<path
   id="XMLID_18_"
   class="st15"
   d="m 445.6,594.8 h -48 c -4.4,0 -8,-3.6 -8,-8 v -48 c 0,-4.4 3.6,-8 8,-8 h 48 c 4.4,0 8,3.6 8,8 v 48 c 0,4.5 -3.6,8 -8,8 z" />
	<path
   id="XMLID_61_"
   class="st19"
   d="m 401.5,587.8 c -2.1,0 -3.9,-1.7 -3.9,-3.9 v -53.1 c -4.4,0 -8,3.6 -8,8 v 48 c 0,4.4 3.6,8 8,8 h 48 c 4.1,0 7.4,-3.1 7.9,-7 z" />
	<path
   id="XMLID_13_"
   class="st5"
   d="m 445.6,594.8 h -48 c -4.4,0 -8,-3.6 -8,-8 v -48 c 0,-4.4 3.6,-8 8,-8 h 48 c 4.4,0 8,3.6 8,8 v 48 c 0,4.5 -3.6,8 -8,8 z" />
	<g
   id="XMLID_36_">
		
			<rect
   id="XMLID_32_"
   x="409"
   y="559.70001"
   transform="matrix(0.7071,0.7071,-0.7071,0.7071,521.4716,-133.2583)"
   class="st10"
   width="25.1"
   height="6.3000002" />
		
			<rect
   id="XMLID_31_"
   x="409"
   y="559.70001"
   transform="matrix(-0.7071,0.7071,-0.7071,-0.7071,1117.6938,662.7217)"
   class="st10"
   width="25.1"
   height="6.3000002" />
	</g>
	<path
   id="XMLID_40_"
   class="st18"
   d="m 437.3,540.2 h 2.2 c 2.5,0 4.6,2.1 4.6,4.6 v 6.9" />
</g>
<g
   id="g1702"
   transform="matrix(1.7845717,0,0,1.5652467,-363.07003,-248.19623)">
	<path
   id="XMLID_20_"
   class="st15"
   d="m 533.6,594.8 h -48 c -4.4,0 -8,-3.6 -8,-8 v -48 c 0,-4.4 3.6,-8 8,-8 h 48 c 4.4,0 8,3.6 8,8 v 48 c 0,4.5 -3.6,8 -8,8 z" />
	<path
   id="XMLID_58_"
   class="st19"
   d="m 489.5,587.8 c -2.1,0 -3.9,-1.7 -3.9,-3.9 v -53.1 c -4.4,0 -8,3.6 -8,8 v 48 c 0,4.4 3.6,8 8,8 h 48 c 4.1,0 7.4,-3.1 7.9,-7 z" />
	<path
   id="XMLID_12_"
   class="st5"
   d="m 533.6,594.8 h -48 c -4.4,0 -8,-3.6 -8,-8 v -48 c 0,-4.4 3.6,-8 8,-8 h 48 c 4.4,0 8,3.6 8,8 v 48 c 0,4.5 -3.6,8 -8,8 z" />
	<g
   id="XMLID_35_">
		<rect
   id="XMLID_34_"
   x="497"
   y="559.70001"
   class="st10"
   width="25.1"
   height="6.3000002" />
		
			<rect
   id="XMLID_33_"
   x="506.39999"
   y="569.09998"
   transform="rotate(90,509.59275,572.27135)"
   class="st10"
   width="6.3000002"
   height="6.3000002" />
		
			<rect
   id="XMLID_23_"
   x="506.39999"
   y="550.29999"
   transform="rotate(90,509.5928,553.4143)"
   class="st10"
   width="6.3000002"
   height="6.3000002" />
	</g>
	<path
   id="XMLID_4_"
   class="st18"
   d="m 525.8,540.2 h 2.2 c 2.5,0 4.6,2.1 4.6,4.6 v 6.9" />
</g>
</svg>
