<?xml version="1.0" encoding="UTF-8" standalone="no"?>
<svg
   xmlns:dc="http://purl.org/dc/elements/1.1/"
   xmlns:cc="http://creativecommons.org/ns#"
   xmlns:rdf="http://www.w3.org/1999/02/22-rdf-syntax-ns#"
   xmlns:svg="http://www.w3.org/2000/svg"
   xmlns="http://www.w3.org/2000/svg"
   xmlns:sodipodi="http://sodipodi.sourceforge.net/DTD/sodipodi-0.dtd"
   xmlns:inkscape="http://www.inkscape.org/namespaces/inkscape"
   version="1.1"
   id="Layer_1"
   x="0px"
   y="0px"
   viewBox="0 0 1000 1000"
   style="enable-background:new 0 0 1000 1000;"
   xml:space="preserve"
   sodipodi:docname="game.svg"
   inkscape:version="1.0.1 (3bc2e813f5, 2020-09-07)"><metadata
   id="metadata1039"><rdf:RDF><cc:Work
       rdf:about=""><dc:format>image/svg+xml</dc:format><dc:type
         rdf:resource="http://purl.org/dc/dcmitype/StillImage" /><dc:title></dc:title></cc:Work></rdf:RDF></metadata><defs
   id="defs1037" /><sodipodi:namedview
   pagecolor="#ffffff"
   bordercolor="#666666"
   borderopacity="1"
   objecttolerance="10"
   gridtolerance="10"
   guidetolerance="10"
   inkscape:pageopacity="0"
   inkscape:pageshadow="2"
   inkscape:window-width="1465"
   inkscape:window-height="1040"
   id="namedview1035"
   showgrid="false"
   inkscape:zoom="0.827"
   inkscape:cx="500"
   inkscape:cy="500"
   inkscape:window-x="208"
   inkscape:window-y="0"
   inkscape:window-maximized="0"
   inkscape:current-layer="Layer_1" />
<style
   type="text/css"
   id="style574">
	.st0{fill:#D14657;}
	.st1{opacity:0.24;stroke:#000000;stroke-width:6;stroke-linecap:round;stroke-linejoin:round;stroke-miterlimit:10;}
	.st2{fill:#FCA417;}
	.st3{opacity:0.33;fill:#FFFFFF;}
	.st4{fill:#FCA84C;}
	.st5{opacity:0.66;fill:#FCA84C;}
	.st6{fill:none;stroke:#000000;stroke-width:6;stroke-linecap:round;stroke-linejoin:round;stroke-miterlimit:10;}
	.st7{fill:#514447;}
	.st8{fill:none;stroke:#000000;stroke-width:4;stroke-linecap:round;stroke-linejoin:round;stroke-miterlimit:10;}
	.st9{fill:#83906F;}
	.st10{fill:#664A4A;}
	.st11{fill:#FF1F1F;}
</style>

<path
   id="XMLID_81_"
   class="st1"
   d="M 677.60067,876.65814 H 315.98974 c -8.21843,0 -14.9426,-6.44084 -14.9426,-14.31301 V 188.3453 c 0,-7.87215 6.72417,-14.31301 14.9426,-14.31301 h 418.39283 c 8.21842,0 14.94258,6.44086 14.94258,14.31301 v 619.61039 c 0,37.92949 -32.12658,68.70245 -71.72448,68.70245 z" />
<g
   id="XMLID_5_"
   transform="matrix(1.4942601,0,0,1.4313016,-264.67972,-220.86377)">
	<path
   id="XMLID_125_"
   class="st2"
   d="M 602,745.5 H 360 c -5.5,0 -10,-4.5 -10,-10 v -471 c 0,-5.5 4.5,-10 10,-10 h 280 c 5.5,0 10,4.5 10,10 v 432.9 c 0,26.6 -21.5,48.1 -48,48.1 z" />
	<path
   id="XMLID_123_"
   class="st3"
   d="M 361.8,731.8 V 268.2 c 0,-7.5 6.1,-13.6 13.6,-13.6 h -11.8 c -7.5,0 -13.6,6.1 -13.6,13.6 v 463.6 c 0,7.5 6.1,13.6 13.6,13.6 h 11.8 c -7.5,0.1 -13.6,-6.1 -13.6,-13.6 z" />
	<circle
   id="XMLID_121_"
   class="st4"
   cx="440"
   cy="591.40002"
   r="51.799999" />
	<path
   id="XMLID_119_"
   class="st5"
   d="m 402.1,561 c 17.5,-21.9 49.2,-25.8 71.5,-9.1 -0.4,-0.3 -0.8,-0.7 -1.2,-1 -22.3,-17.9 -55,-14.3 -72.8,8.1 -17.8,22.4 -14.3,55 8.1,72.8 0.4,0.3 0.9,0.7 1.3,1 -21.3,-18.1 -24.5,-49.9 -6.9,-71.8 z" />
	<g
   id="XMLID_112_">
		<path
   id="XMLID_117_"
   class="st4"
   d="m 636.4,254.5 h -12.5 c 7.5,0 13.9,6.1 13.9,13.6 V 680 c 0,36.1 -29.5,65.5 -65.7,65.5 h 12.5 c 36.1,0 65.5,-29.3 65.5,-65.5 V 268.2 c -0.1,-7.5 -6.2,-13.7 -13.7,-13.7 z" />
		<path
   id="XMLID_115_"
   class="st4"
   d="m 544.7,745.5 h 39.8 c 36.1,0 65.5,-29.3 65.5,-65.5 v -39.8 z" />
		<path
   id="XMLID_113_"
   class="st4"
   d="M 584.5,735.9 H 372 c -5.1,0 -9.3,4.2 -9.3,9.3 v 0.2 h 221.8 c 58.1,0 65.5,-29.3 65.5,-65.5 v -9.5 c 0,36.2 -29.3,65.5 -65.5,65.5 z" />
	</g>
	<path
   id="XMLID_111_"
   class="st6"
   d="M 602,745.5 H 360 c -5.5,0 -10,-4.5 -10,-10 v -471 c 0,-5.5 4.5,-10 10,-10 h 280 c 5.5,0 10,4.5 10,10 v 432.9 c 0,26.6 -21.5,48.1 -48,48.1 z" />
	<path
   id="XMLID_110_"
   class="st7"
   d="M 593.1,482.5 H 394.9 c -2.2,0 -4,-1.8 -4,-4 v -164 c 0,-2.2 1.8,-4 4,-4 h 210.2 c 2.2,0 4,1.8 4,4 v 152 c 0,8.8 -7.2,16 -16,16 z" />
	<path
   id="XMLID_109_"
   class="st8"
   d="M 593.1,482.5 H 394.9 c -2.2,0 -4,-1.8 -4,-4 v -164 c 0,-2.2 1.8,-4 4,-4 h 210.2 c 2.2,0 4,1.8 4,4 v 152 c 0,8.8 -7.2,16 -16,16 z" />
	<path
   id="XMLID_108_"
   class="st9"
   d="M 567.2,463.4 H 432.8 c -0.6,0 -1,-0.4 -1,-1 V 338.9 c 0,-0.6 0.4,-1 1,-1 h 134.4 c 0.6,0 1,0.4 1,1 v 123.5 c 0,0.6 -0.5,1 -1,1 z" />
	<path
   id="XMLID_107_"
   class="st8"
   d="M 567.2,463.4 H 432.8 c -0.6,0 -1,-0.4 -1,-1 V 338.9 c 0,-0.6 0.4,-1 1,-1 h 134.4 c 0.6,0 1,0.4 1,1 v 123.5 c 0,0.6 -0.5,1 -1,1 z" />
	<path
   id="XMLID_106_"
   class="st8"
   d="M 636.4,254.5 H 363.6 c -7.5,0 -13.6,6.1 -13.6,13.6 v 13.6 h 300 v -13.6 c 0,-7.4 -6.1,-13.6 -13.6,-13.6 z" />
	<line
   id="XMLID_105_"
   class="st8"
   x1="528.59998"
   y1="508.20001"
   x2="609.09998"
   y2="508.20001" />
	<line
   id="XMLID_104_"
   class="st8"
   x1="390.89999"
   y1="508.20001"
   x2="471.39999"
   y2="508.20001" />
	<g
   id="XMLID_94_">
		<g
   id="g599">
			<g
   id="XMLID_152_">
				<path
   id="XMLID_153_"
   class="st10"
   d="m 474.8,602.5 h -67.2 c -2.5,0 -4.6,-2 -4.6,-4.6 v -13.1 c 0,-2.5 2,-4.6 4.6,-4.6 h 67.2 c 2.5,0 4.6,2 4.6,4.6 v 13.1 c -0.1,2.6 -2.1,4.6 -4.6,4.6 z" />
			</g>
			<g
   id="XMLID_150_">
				<path
   id="XMLID_151_"
   class="st10"
   d="m 430,625 v -67.2 c 0,-2.5 2,-4.6 4.6,-4.6 h 13.1 c 2.5,0 4.6,2 4.6,4.6 V 625 c 0,2.5 -2,4.6 -4.6,4.6 H 434.6 C 432,629.5 430,627.5 430,625 Z" />
			</g>
		</g>
	</g>
	<path
   id="XMLID_93_"
   class="st8"
   d="m 473.6,580.5 h -19.1 c -1.2,0 -2.1,-1 -2.1,-2.1 v -18.9 c 0,-3.4 -2.8,-6.2 -6.2,-6.2 h -9.8 c -3.2,0 -5.8,2.6 -5.8,5.8 v 19.4 c 0,1.2 -1,2.1 -2.1,2.1 h -19.1 c -3.3,0 -6,2.7 -6,6 v 9.8 c 0,3.3 2.7,6 6,6 h 19.1 c 1.2,0 2.1,1 2.1,2.1 v 18.9 c 0,3.4 2.8,6.2 6.2,6.2 h 9.4 c 3.4,0 6.2,-2.8 6.2,-6.2 v -18.9 c 0,-1.2 1,-2.1 2.1,-2.1 h 18.7 c 3.6,0 6.4,-2.9 6.4,-6.4 v -9.4 c -0.1,-3.5 -2.7,-6.1 -6,-6.1 z" />
	<g
   id="XMLID_77_">
		<path
   id="XMLID_91_"
   class="st4"
   d="m 557.1,629.2 c -5.5,0 -10.6,-2.1 -14.5,-6 -3.9,-3.9 -6,-9 -6,-14.5 0,-5.5 2.1,-10.6 6,-14.5 l 34.7,-34.7 c 3.9,-3.9 9,-6 14.5,-6 5.5,0 10.6,2.1 14.5,6 8,8 8,21 0,28.9 l -34.7,34.7 c -3.9,3.9 -9,6.1 -14.5,6.1 z" />
		<path
   id="XMLID_88_"
   class="st5"
   d="m 544.2,623.2 c -3.9,-3.9 -6,-9 -6,-14.5 0,-5.5 2.1,-10.6 6,-14.5 l 34.7,-34.7 c 3.7,-3.7 8.5,-5.8 13.7,-5.9 -0.3,0 -0.5,0 -0.8,0 -5.5,0 -10.6,2.1 -14.5,6 l -34.7,34.7 c -3.9,3.9 -6,9 -6,14.5 0,5.5 2.1,10.6 6,14.5 3.9,3.9 9,6 14.5,6 0.3,0 0.5,0 0.8,0 -5.2,-0.4 -10,-2.4 -13.7,-6.1 z" />
		<circle
   id="XMLID_86_"
   class="st11"
   cx="591.79999"
   cy="574"
   r="13.6" />
		<circle
   id="XMLID_80_"
   class="st11"
   cx="557.09998"
   cy="608.70001"
   r="13.6" />
		<circle
   id="XMLID_79_"
   class="st8"
   cx="591.79999"
   cy="574"
   r="13.6" />
		<circle
   id="XMLID_78_"
   class="st8"
   cx="557.09998"
   cy="608.70001"
   r="13.6" />
	</g>
	<path
   id="XMLID_76_"
   class="st8"
   d="m 472,683.2 -2.1,-2.1 c -1.2,-1.2 -1.2,-3.1 0,-4.2 L 491,655.8 c 1.2,-1.2 3.1,-1.2 4.2,0 l 2.1,2.1 c 1.2,1.2 1.2,3.1 0,4.2 l -21.1,21.1 c -1.2,1.2 -3.1,1.2 -4.2,0 z" />
	<path
   id="XMLID_75_"
   class="st8"
   d="m 506.2,683.2 -2.1,-2.1 c -1.2,-1.2 -1.2,-3.1 0,-4.2 l 21.1,-21.1 c 1.2,-1.2 3.1,-1.2 4.2,0 l 2.1,2.1 c 1.2,1.2 1.2,3.1 0,4.2 l -21.1,21.1 c -1.1,1.2 -3,1.2 -4.2,0 z" />
	<g
   id="XMLID_61_">
		<line
   id="XMLID_74_"
   class="st6"
   x1="576.90002"
   y1="690.40002"
   x2="593.20001"
   y2="706.79999" />
		<line
   id="XMLID_70_"
   class="st6"
   x1="566.20001"
   y1="701"
   x2="582.59998"
   y2="717.40002" />
		<line
   id="XMLID_64_"
   class="st6"
   x1="588.40002"
   y1="678.79999"
   x2="604.79999"
   y2="695.20001" />
		<line
   id="XMLID_63_"
   class="st6"
   x1="599"
   y1="668.20001"
   x2="615.40002"
   y2="684.59998" />
		<line
   id="XMLID_62_"
   class="st6"
   x1="609.59998"
   y1="657.59998"
   x2="626"
   y2="674" />
	</g>
	<rect
   id="XMLID_60_"
   x="381.39999"
   y="254.5"
   class="st8"
   width="238"
   height="27.299999" />
	<g
   id="XMLID_57_">
		<line
   id="XMLID_59_"
   class="st8"
   x1="411.39999"
   y1="325.5"
   x2="509.10001"
   y2="325.5" />
		<line
   id="XMLID_58_"
   class="st8"
   x1="561.40002"
   y1="325.5"
   x2="592.70001"
   y2="325.5" />
	</g>
	<g
   id="XMLID_37_">
		<line
   id="XMLID_56_"
   class="st8"
   x1="485.20001"
   y1="504.60001"
   x2="485.20001"
   y2="511.79999" />
		<line
   id="XMLID_46_"
   class="st8"
   x1="495.10001"
   y1="504.60001"
   x2="495.10001"
   y2="511.79999" />
		<line
   id="XMLID_45_"
   class="st8"
   x1="504.89999"
   y1="504.60001"
   x2="504.89999"
   y2="511.79999" />
		<line
   id="XMLID_41_"
   class="st8"
   x1="514.79999"
   y1="504.60001"
   x2="514.79999"
   y2="511.79999" />
	</g>
</g>

</svg>
