<?xml version="1.0" encoding="UTF-8" standalone="no"?>
<svg
   xmlns:dc="http://purl.org/dc/elements/1.1/"
   xmlns:cc="http://creativecommons.org/ns#"
   xmlns:rdf="http://www.w3.org/1999/02/22-rdf-syntax-ns#"
   xmlns:svg="http://www.w3.org/2000/svg"
   xmlns="http://www.w3.org/2000/svg"
   xmlns:sodipodi="http://sodipodi.sourceforge.net/DTD/sodipodi-0.dtd"
   xmlns:inkscape="http://www.inkscape.org/namespaces/inkscape"
   version="1.1"
   id="Layer_1"
   x="0px"
   y="0px"
   viewBox="0 0 1000 1000"
   style="enable-background:new 0 0 1000 1000;"
   xml:space="preserve"
   sodipodi:docname="pad.svg"
   inkscape:version="1.0.1 (3bc2e813f5, 2020-09-07)"><metadata
   id="metadata1783"><rdf:RDF><cc:Work
       rdf:about=""><dc:format>image/svg+xml</dc:format><dc:type
         rdf:resource="http://purl.org/dc/dcmitype/StillImage" /><dc:title></dc:title></cc:Work></rdf:RDF></metadata><defs
   id="defs1781" /><sodipodi:namedview
   pagecolor="#ffffff"
   bordercolor="#666666"
   borderopacity="1"
   objecttolerance="10"
   gridtolerance="10"
   guidetolerance="10"
   inkscape:pageopacity="0"
   inkscape:pageshadow="2"
   inkscape:window-width="1920"
   inkscape:window-height="1017"
   id="namedview1779"
   showgrid="false"
   inkscape:zoom="0.85"
   inkscape:cx="500"
   inkscape:cy="217.64706"
   inkscape:window-x="-8"
   inkscape:window-y="-8"
   inkscape:window-maximized="1"
   inkscape:current-layer="Layer_1" />
<style
   type="text/css"
   id="style1585">
	.st0{fill:#53BCBD;}
	.st1{opacity:0.41;stroke:#000000;stroke-width:10;stroke-linecap:round;stroke-linejoin:round;stroke-miterlimit:10;}
	.st2{opacity:0.41;fill:none;stroke:#000000;stroke-width:10;stroke-linecap:round;stroke-linejoin:round;stroke-miterlimit:10;}
	.st3{fill:none;stroke:#663C3B;stroke-width:10;stroke-linejoin:round;stroke-miterlimit:10;}
	.st4{fill:#663C3B;}
	.st5{fill:#FEC556;}
	.st6{fill:#F29940;}
	.st7{fill:#835559;}
	.st8{fill:#95676B;}
	.st9{fill:none;stroke:#663C3B;stroke-width:6;stroke-linecap:round;stroke-linejoin:round;stroke-miterlimit:10;}
	.st10{fill:none;stroke:#663C3B;stroke-width:3;stroke-linecap:round;stroke-linejoin:round;stroke-miterlimit:10;}
	.st11{fill:none;stroke:#663C3B;stroke-width:8;stroke-linecap:round;stroke-linejoin:round;stroke-miterlimit:10;}
	.st12{opacity:0.17;}
	.st13{fill:#32B94D;}
	.st14{fill:none;stroke:#663C3B;stroke-width:2;stroke-linecap:round;stroke-linejoin:round;stroke-miterlimit:10;}
	.st15{fill:#8BD8F5;}
	.st16{fill:#FEF585;}
	.st17{fill:#E7503B;}
	.st18{fill:#EEF2F4;}
</style>

<path
   id="XMLID_20_"
   class="st1"
   d="M692.3,414.8h-380c-72.9,0-132,59.1-132,132s59.1,132,132,132c51.3,0,95.8-29.3,117.6-72h144.8  c21.8,42.7,66.3,72,117.6,72c72.9,0,132-59.1,132-132S765.2,414.8,692.3,414.8z" />
<path
   id="XMLID_19_"
   class="st2"
   d="M502.3,382.5V263.1c0-13.7-11.1-24.8-24.8-24.8H290c-13.7,0-24.8-11.1-24.8-24.8v0  c0-13.7,11.1-24.8,24.8-24.8h397.5c13.7,0,24.8-11.1,24.8-24.8v0c0-13.7-11.1-24.8-24.8-24.8H527c-13.7,0-24.8-11.1-24.8-24.8V9" />
<path
   id="XMLID_43_"
   class="st3"
   d="M502.3,369.2V249.8c0-13.7-11.1-24.8-24.8-24.8H290c-13.7,0-24.8-11.1-24.8-24.8v0  c0-13.7,11.1-24.8,24.8-24.8h397.5c13.7,0,24.8-11.1,24.8-24.8v0c0-13.7-11.1-24.8-24.8-24.8H527c-13.7,0-24.8-11.1-24.8-24.8V0" />
<rect
   id="XMLID_37_"
   x="473.3"
   y="379"
   class="st4"
   width="58"
   height="12.5" />
<rect
   id="XMLID_41_"
   x="481.5"
   y="372.8"
   class="st4"
   width="41.5"
   height="9.8" />
<rect
   id="XMLID_54_"
   x="487"
   y="366.5"
   class="st4"
   width="30.5"
   height="9.4" />
<path
   id="XMLID_44_"
   class="st5"
   d="M692.3,391.8h-380c-72.9,0-132,59.1-132,132s59.1,132,132,132c51.3,0,95.8-29.3,117.6-72h144.8  c21.8,42.7,66.3,72,117.6,72c72.9,0,132-59.1,132-132S765.2,391.8,692.3,391.8z" />
<path
   id="XMLID_74_"
   class="st6"
   d="M481.7,443.6h-28c-2.2,0-4-1.8-4-4l0,0c0-2.2,1.8-4,4-4h28c2.2,0,4,1.8,4,4l0,0  C485.7,441.8,484,443.6,481.7,443.6z" />
<path
   id="XMLID_73_"
   class="st6"
   d="M560.4,443.9h-56.9c-2.2,0-4-1.8-4-4l0,0c0-2.2,1.8-4,4-4h56.9c2.2,0,4,1.8,4,4l0,0  C564.4,442.1,562.7,443.9,560.4,443.9z" />
<path
   id="XMLID_71_"
   class="st6"
   d="M560.4,460.4H453.6c-2.2,0-4-1.8-4-4l0,0c0-2.2,1.8-4,4-4h106.8c2.2,0,4,1.8,4,4l0,0  C564.4,458.6,562.6,460.4,560.4,460.4z" />
<path
   id="XMLID_67_"
   class="st6"
   d="M452.4,542.7L452.4,542.7c-3.5-3.5-3.5-9.2,0-12.7l29.7-29.7c3.5-3.5,9.2-3.5,12.7,0l0,0  c3.5,3.5,3.5,9.2,0,12.7l-29.7,29.7C461.6,546.2,455.9,546.2,452.4,542.7z" />
<path
   id="XMLID_56_"
   class="st6"
   d="M519.4,542.7L519.4,542.7c-3.5-3.5-3.5-9.2,0-12.7l29.7-29.7c3.5-3.5,9.2-3.5,12.7,0h0  c3.5,3.5,3.5,9.2,0,12.7l-29.7,29.7C528.6,546.2,522.9,546.2,519.4,542.7z" />
<path
   id="XMLID_53_"
   class="st6"
   d="M312.3,403.3h380c71.3,0,129.4,55.6,131.9,125.1c0.1-1.6,0.1-3.1,0.1-4.7  c0-72.9-59.1-132-132-132h-380c-72.9,0-132,59.1-132,132c0,1.6,0,3.1,0.1,4.7C182.8,458.9,240.9,403.3,312.3,403.3z" />
<path
   id="XMLID_52_"
   class="st6"
   d="M692.3,638.8c-51.3,0-92.8-21.3-114.6-64H426.9c-21.8,42.7-63.3,64-114.6,64  c-70,0-127.3-54.6-131.7-123.5c-0.2,2.8-0.3,5.6-0.3,8.5c0,72.9,59.1,132,132,132c51.3,0,95.8-29.3,117.6-72h144.8  c21.8,42.7,66.3,72,117.6,72c72.9,0,132-59.1,132-132c0-2.9-0.1-5.7-0.3-8.5C819.6,584.2,762.3,638.8,692.3,638.8z" />
<circle
   id="XMLID_48_"
   class="st6"
   cx="312.8"
   cy="531"
   r="85" />
<circle
   id="XMLID_46_"
   class="st7"
   cx="312.8"
   cy="523.8"
   r="84" />
<circle
   id="XMLID_50_"
   class="st8"
   cx="312.8"
   cy="523.8"
   r="71" />
<path
   id="XMLID_6_"
   class="st4"
   d="M363.2,507.8h-34.4v-34.4c0-2.5-2.1-4.6-4.6-4.6h-22.8c-2.5,0-4.6,2.1-4.6,4.6v34.4h-34.4  c-2.5,0-4.6,2.1-4.6,4.6v22.8c0,2.5,2.1,4.6,4.6,4.6h34.4v34.4c0,2.5,2.1,4.6,4.6,4.6h22.8c2.5,0,4.6-2.1,4.6-4.6v-34.4h34.4  c2.5,0,4.6-2.1,4.6-4.6v-22.8C367.8,509.8,365.7,507.8,363.2,507.8z" />
<circle
   id="XMLID_7_"
   class="st9"
   cx="312.8"
   cy="523.8"
   r="84" />
<circle
   id="XMLID_51_"
   class="st6"
   cx="692.8"
   cy="531"
   r="85" />
<circle
   id="XMLID_49_"
   class="st7"
   cx="692.8"
   cy="523.8"
   r="84" />
<circle
   id="XMLID_66_"
   class="st8"
   cx="692.8"
   cy="523.8"
   r="71" />
<circle
   id="XMLID_16_"
   class="st9"
   cx="692.8"
   cy="523.8"
   r="84" />
<path
   id="XMLID_10_"
   class="st5"
   d="M306.3,487.2l5.5-9.6c0.4-0.7,1.4-0.7,1.8,0l5.5,9.6c0.4,0.7-0.1,1.6-0.9,1.6h-11.1  C306.4,488.8,305.9,487.9,306.3,487.2z" />
<path
   id="XMLID_12_"
   class="st5"
   d="M306.3,560.4l5.5,9.6c0.4,0.7,1.4,0.7,1.8,0l5.5-9.6c0.4-0.7-0.1-1.6-0.9-1.6h-11.1  C306.4,558.8,305.9,559.7,306.3,560.4z" />
<path
   id="XMLID_55_"
   class="st10"
   d="M363.2,507.8h-34.4v-34.4c0-2.5-2.1-4.6-4.6-4.6h-22.8c-2.5,0-4.6,2.1-4.6,4.6v34.4h-34.4  c-2.5,0-4.6,2.1-4.6,4.6v22.8c0,2.5,2.1,4.6,4.6,4.6h34.4v34.4c0,2.5,2.1,4.6,4.6,4.6h22.8c2.5,0,4.6-2.1,4.6-4.6v-34.4h34.4  c2.5,0,4.6-2.1,4.6-4.6v-22.8C367.8,509.8,365.7,507.8,363.2,507.8z" />
<path
   id="XMLID_11_"
   class="st5"
   d="M347.6,517.3l9.6,5.5c0.7,0.4,0.7,1.4,0,1.8l-9.6,5.5c-0.7,0.4-1.6-0.1-1.6-0.9v-11.1  C346,517.4,346.9,516.9,347.6,517.3z" />
<path
   id="XMLID_9_"
   class="st5"
   d="M276.2,517.3l-9.6,5.5c-0.7,0.4-0.7,1.4,0,1.8l9.6,5.5c0.7,0.4,1.6-0.1,1.6-0.9v-11.1  C277.8,517.4,276.9,516.9,276.2,517.3z" />
<path
   id="XMLID_45_"
   class="st11"
   d="M602,385.8h90.8c19.5,0,38.1,4.1,55,11.4" />
<path
   id="XMLID_36_"
   class="st11"
   d="M257.8,397.2c16.9-7.4,35.5-11.4,55-11.4H402" />
<path
   id="XMLID_32_"
   class="st9"
   d="M692.3,391.8h-380c-72.9,0-132,59.1-132,132s59.1,132,132,132c51.3,0,95.8-29.3,117.6-72h144.8  c21.8,42.7,66.3,72,117.6,72c72.9,0,132-59.1,132-132S765.2,391.8,692.3,391.8z" />
<path
   id="XMLID_65_"
   class="st12"
   d="M706.3,511.5l-39.6,39.6c-8.6,8.6-22.5,8.6-31.1,0l0,0c-8.6-8.6-8.6-22.5,0-31.1l39.6-39.6  c8.6-8.6,22.5-8.6,31.1,0v0C714.9,488.9,714.9,502.9,706.3,511.5z" />
<path
   id="XMLID_59_"
   class="st5"
   d="M704.3,507.5l-39.6,39.6c-8.6,8.6-22.5,8.6-31.1,0l0,0c-8.6-8.6-8.6-22.5,0-31.1l39.6-39.6  c8.6-8.6,22.5-8.6,31.1,0v0C712.9,484.9,712.9,498.9,704.3,507.5z" />
<path
   id="XMLID_2_"
   class="st10"
   d="M704.3,507.5l-39.6,39.6c-8.6,8.6-22.5,8.6-31.1,0l0,0c-8.6-8.6-8.6-22.5,0-31.1l39.6-39.6  c8.6-8.6,22.5-8.6,31.1,0v0C712.9,484.9,712.9,498.9,704.3,507.5z" />
<circle
   id="XMLID_63_"
   class="st13"
   cx="649.2"
   cy="531.5"
   r="14" />
<path
   id="XMLID_8_"
   class="st14"
   d="M640.2,530.7c0.4-5,4.8-8.6,9.8-8.2" />
<circle
   id="XMLID_18_"
   class="st10"
   cx="649.2"
   cy="531.5"
   r="14" />
<circle
   id="XMLID_62_"
   class="st15"
   cx="688.8"
   cy="491.9"
   r="14" />
<path
   id="XMLID_13_"
   class="st14"
   d="M679.8,491.9c0-5,4-9,9-9" />
<circle
   id="XMLID_17_"
   class="st10"
   cx="688.8"
   cy="491.9"
   r="14" />
<path
   id="XMLID_64_"
   class="st12"
   d="M752.9,537.7l-39.6,39.6c-8.6,8.6-22.5,8.6-31.1,0h0c-8.6-8.6-8.6-22.5,0-31.1l39.6-39.6  c8.6-8.6,22.5-8.6,31.1,0l0,0C761.5,515.2,761.5,529.1,752.9,537.7z" />
<path
   id="XMLID_57_"
   class="st5"
   d="M751.9,532.7l-39.6,39.6c-8.6,8.6-22.5,8.6-31.1,0h0c-8.6-8.6-8.6-22.5,0-31.1l39.6-39.6  c8.6-8.6,22.5-8.6,31.1,0l0,0C760.5,510.2,760.5,524.1,751.9,532.7z" />
<path
   id="XMLID_35_"
   class="st10"
   d="M751.9,532.7l-39.6,39.6c-8.6,8.6-22.5,8.6-31.1,0h0c-8.6-8.6-8.6-22.5,0-31.1l39.6-39.6  c8.6-8.6,22.5-8.6,31.1,0l0,0C760.5,510.2,760.5,524.1,751.9,532.7z" />
<circle
   id="XMLID_61_"
   class="st16"
   cx="696.8"
   cy="556.8"
   r="14" />
<path
   id="XMLID_15_"
   class="st14"
   d="M687.8,556.8c0-5,4-9,9-9" />
<circle
   id="XMLID_34_"
   class="st10"
   cx="696.8"
   cy="556.8"
   r="14" />
<circle
   id="XMLID_33_"
   class="st17"
   cx="736.4"
   cy="517.2"
   r="14" />
<path
   id="XMLID_70_"
   class="st14"
   d="M727.4,517.2c0-5,4-9,9-9" />
<circle
   id="XMLID_60_"
   class="st10"
   cx="736.4"
   cy="517.2"
   r="14" />
<path
   id="XMLID_14_"
   class="st4"
   d="M452.4,538.7L452.4,538.7c-3.5-3.5-3.5-9.2,0-12.7l29.7-29.7c3.5-3.5,9.2-3.5,12.7,0l0,0  c3.5,3.5,3.5,9.2,0,12.7l-29.7,29.7C461.6,542.2,455.9,542.2,452.4,538.7z" />
<path
   id="XMLID_38_"
   class="st4"
   d="M519.4,538.7L519.4,538.7c-3.5-3.5-3.5-9.2,0-12.7l29.7-29.7c3.5-3.5,9.2-3.5,12.7,0h0  c3.5,3.5,3.5,9.2,0,12.7l-29.7,29.7C528.6,542.2,522.9,542.2,519.4,538.7z" />
<circle
   id="XMLID_58_"
   class="st5"
   cx="312.8"
   cy="523.8"
   r="16" />
<path
   id="XMLID_72_"
   class="st6"
   d="M312.8,536.5c-8.1,0-15.1-6.4-15.9-14.4c-0.1,0.5-0.1,1.1-0.1,1.6c0,8.7,7.3,16,16,16  s16-7.3,16-16c0-0.6,0-1.1-0.1-1.6C327.8,530.1,320.9,536.5,312.8,536.5z" />
<path
   id="XMLID_68_"
   class="st14"
   d="M300.8,523.8c0-6.5,5.5-12,12-12" />

</svg>
