<?xml version="1.0" encoding="UTF-8" standalone="no"?>
<svg
   xmlns:dc="http://purl.org/dc/elements/1.1/"
   xmlns:cc="http://creativecommons.org/ns#"
   xmlns:rdf="http://www.w3.org/1999/02/22-rdf-syntax-ns#"
   xmlns:svg="http://www.w3.org/2000/svg"
   xmlns="http://www.w3.org/2000/svg"
   xmlns:sodipodi="http://sodipodi.sourceforge.net/DTD/sodipodi-0.dtd"
   xmlns:inkscape="http://www.inkscape.org/namespaces/inkscape"
   version="1.1"
   id="Layer_1"
   x="0px"
   y="0px"
   viewBox="0 0 1000 1000"
   style="enable-background:new 0 0 1000 1000;"
   xml:space="preserve"
   sodipodi:docname="padv2.svg"
   inkscape:version="1.0.1 (3bc2e813f5, 2020-09-07)"><metadata
   id="metadata408"><rdf:RDF><cc:Work
       rdf:about=""><dc:format>image/svg+xml</dc:format><dc:type
         rdf:resource="http://purl.org/dc/dcmitype/StillImage" /><dc:title></dc:title></cc:Work></rdf:RDF></metadata><defs
   id="defs406" /><sodipodi:namedview
   pagecolor="#ffffff"
   bordercolor="#666666"
   borderopacity="1"
   objecttolerance="10"
   gridtolerance="10"
   guidetolerance="10"
   inkscape:pageopacity="0"
   inkscape:pageshadow="2"
   inkscape:window-width="1920"
   inkscape:window-height="1017"
   id="namedview404"
   showgrid="false"
   showguides="false"
   inkscape:zoom="0.818"
   inkscape:cx="500"
   inkscape:cy="462.65686"
   inkscape:window-x="-8"
   inkscape:window-y="-8"
   inkscape:window-maximized="1"
   inkscape:current-layer="Layer_1" />
<style
   type="text/css"
   id="style210">
	.st0{fill:#53BCBD;}
	.st1{opacity:0.41;stroke:#000000;stroke-width:10;stroke-linecap:round;stroke-linejoin:round;stroke-miterlimit:10;}
	.st2{opacity:0.41;fill:none;stroke:#000000;stroke-width:10;stroke-linecap:round;stroke-linejoin:round;stroke-miterlimit:10;}
	.st3{fill:none;stroke:#663C3B;stroke-width:10;stroke-linejoin:round;stroke-miterlimit:10;}
	.st4{fill:#663C3B;}
	.st5{fill:#FEC556;}
	.st6{fill:#F29940;}
	.st7{fill:#835559;}
	.st8{fill:#95676B;}
	.st9{fill:none;stroke:#663C3B;stroke-width:6;stroke-linecap:round;stroke-linejoin:round;stroke-miterlimit:10;}
	.st10{fill:none;stroke:#663C3B;stroke-width:3;stroke-linecap:round;stroke-linejoin:round;stroke-miterlimit:10;}
	.st11{fill:none;stroke:#663C3B;stroke-width:8;stroke-linecap:round;stroke-linejoin:round;stroke-miterlimit:10;}
	.st12{opacity:0.17;}
	.st13{fill:#32B94D;}
	.st14{fill:none;stroke:#663C3B;stroke-width:2;stroke-linecap:round;stroke-linejoin:round;stroke-miterlimit:10;}
	.st15{fill:#8BD8F5;}
	.st16{fill:#FEF585;}
	.st17{fill:#E7503B;}
	.st18{fill:#EEF2F4;}
</style>

<path
   id="XMLID_20_"
   class="st1"
   d="m 678.85257,526.04694 h -380 c -72.9,0 -132,59.1 -132,132 0,72.9 59.1,132 132,132 51.3,0 95.8,-29.3 117.6,-72 h 144.8 c 21.8,42.7 66.3,72 117.6,72 72.9,0 132,-59.1 132,-132 0,-72.9 -59.1,-132 -132,-132 z" />
<path
   id="XMLID_19_"
   class="st2"
   d="m 488.85257,493.74694 v -119.4 c 0,-13.7 -11.1,-24.8 -24.8,-24.8 h -187.5 c -13.7,0 -24.8,-11.1 -24.8,-24.8 v 0 c 0,-13.7 11.1,-24.8 24.8,-24.8 h 397.5 c 13.7,0 24.8,-11.1 24.8,-24.8 v 0 c 0,-13.7 -11.1,-24.8 -24.8,-24.8 h -160.5 c -13.7,0 -24.8,-11.1 -24.8,-24.8 v -105.3" />
<path
   id="XMLID_43_"
   class="st3"
   d="m 488.85257,480.44694 v -119.4 c 0,-13.7 -11.1,-24.8 -24.8,-24.8 h -187.5 c -13.7,0 -24.8,-11.1 -24.8,-24.8 v 0 c 0,-13.7 11.1,-24.8 24.8,-24.8 h 397.5 c 13.7,0 24.8,-11.1 24.8,-24.8 v 0 c 0,-13.7 -11.1,-24.8 -24.8,-24.8 h -160.5 c -13.7,0 -24.8,-11.1 -24.8,-24.8 V 12.224935"
   sodipodi:nodetypes="cssssssssssssc" />
<rect
   id="XMLID_37_"
   x="459.85257"
   y="490.24695"
   class="st4"
   width="58"
   height="12.5" />
<rect
   id="XMLID_41_"
   x="468.05258"
   y="484.04694"
   class="st4"
   width="41.5"
   height="9.8000002" />
<rect
   id="XMLID_54_"
   x="473.55258"
   y="477.74695"
   class="st4"
   width="30.5"
   height="9.3999996" />
<path
   id="XMLID_44_"
   class="st5"
   d="m 678.85257,503.04694 h -380 c -72.9,0 -132,59.1 -132,132 0,72.9 59.1,132 132,132 51.3,0 95.8,-29.3 117.6,-72 h 144.8 c 21.8,42.7 66.3,72 117.6,72 72.9,0 132,-59.1 132,-132 0,-72.9 -59.1,-132 -132,-132 z" />
<path
   id="XMLID_74_"
   class="st6"
   d="m 468.25257,554.84694 h -28 c -2.2,0 -4,-1.8 -4,-4 v 0 c 0,-2.2 1.8,-4 4,-4 h 28 c 2.2,0 4,1.8 4,4 v 0 c 0,2.2 -1.7,4 -4,4 z" />
<path
   id="XMLID_73_"
   class="st6"
   d="m 546.95257,555.14694 h -56.9 c -2.2,0 -4,-1.8 -4,-4 v 0 c 0,-2.2 1.8,-4 4,-4 h 56.9 c 2.2,0 4,1.8 4,4 v 0 c 0,2.2 -1.7,4 -4,4 z" />
<path
   id="XMLID_71_"
   class="st6"
   d="m 546.95257,571.64694 h -106.8 c -2.2,0 -4,-1.8 -4,-4 v 0 c 0,-2.2 1.8,-4 4,-4 h 106.8 c 2.2,0 4,1.8 4,4 v 0 c 0,2.2 -1.8,4 -4,4 z" />
<path
   id="XMLID_67_"
   class="st6"
   d="m 438.95257,653.94694 v 0 c -3.5,-3.5 -3.5,-9.2 0,-12.7 l 29.7,-29.7 c 3.5,-3.5 9.2,-3.5 12.7,0 v 0 c 3.5,3.5 3.5,9.2 0,12.7 l -29.7,29.7 c -3.5,3.5 -9.2,3.5 -12.7,0 z" />
<path
   id="XMLID_56_"
   class="st6"
   d="m 505.95257,653.94694 v 0 c -3.5,-3.5 -3.5,-9.2 0,-12.7 l 29.7,-29.7 c 3.5,-3.5 9.2,-3.5 12.7,0 v 0 c 3.5,3.5 3.5,9.2 0,12.7 l -29.7,29.7 c -3.5,3.5 -9.2,3.5 -12.7,0 z" />
<path
   id="XMLID_53_"
   class="st6"
   d="m 298.85257,514.54694 h 380 c 71.3,0 129.4,55.6 131.9,125.1 0.1,-1.6 0.1,-3.1 0.1,-4.7 0,-72.9 -59.1,-132 -132,-132 h -380 c -72.9,0 -132,59.1 -132,132 0,1.6 0,3.1 0.1,4.7 2.4,-69.5 60.5,-125.1 131.9,-125.1 z" />
<path
   id="XMLID_52_"
   class="st6"
   d="m 678.85257,750.04694 c -51.3,0 -92.8,-21.3 -114.6,-64 h -150.8 c -21.8,42.7 -63.3,64 -114.6,64 -70,0 -127.3,-54.6 -131.7,-123.5 -0.2,2.8 -0.3,5.6 -0.3,8.5 0,72.9 59.1,132 132,132 51.3,0 95.8,-29.3 117.6,-72 h 144.8 c 21.8,42.7 66.3,72 117.6,72 72.9,0 132,-59.1 132,-132 0,-2.9 -0.1,-5.7 -0.3,-8.5 -4.4,68.9 -61.7,123.5 -131.7,123.5 z" />
<circle
   id="XMLID_48_"
   class="st6"
   cx="299.35257"
   cy="642.24695"
   r="85" />
<circle
   id="XMLID_46_"
   class="st7"
   cx="299.35257"
   cy="635.04694"
   r="84" />
<circle
   id="XMLID_50_"
   class="st8"
   cx="299.35257"
   cy="635.04694"
   r="71" />
<path
   id="XMLID_6_"
   class="st4"
   d="m 349.75257,619.04694 h -34.4 v -34.4 c 0,-2.5 -2.1,-4.6 -4.6,-4.6 h -22.8 c -2.5,0 -4.6,2.1 -4.6,4.6 v 34.4 h -34.4 c -2.5,0 -4.6,2.1 -4.6,4.6 v 22.8 c 0,2.5 2.1,4.6 4.6,4.6 h 34.4 v 34.4 c 0,2.5 2.1,4.6 4.6,4.6 h 22.8 c 2.5,0 4.6,-2.1 4.6,-4.6 v -34.4 h 34.4 c 2.5,0 4.6,-2.1 4.6,-4.6 v -22.8 c 0,-2.6 -2.1,-4.6 -4.6,-4.6 z" />
<circle
   id="XMLID_7_"
   class="st9"
   cx="299.35257"
   cy="635.04694"
   r="84" />
<circle
   id="XMLID_51_"
   class="st6"
   cx="679.35254"
   cy="642.24695"
   r="85" />
<circle
   id="XMLID_49_"
   class="st7"
   cx="679.35254"
   cy="635.04694"
   r="84" />
<circle
   id="XMLID_66_"
   class="st8"
   cx="679.35254"
   cy="635.04694"
   r="71" />
<circle
   id="XMLID_16_"
   class="st9"
   cx="679.35254"
   cy="635.04694"
   r="84" />
<path
   id="XMLID_10_"
   class="st5"
   d="m 292.85257,598.44694 5.5,-9.6 c 0.4,-0.7 1.4,-0.7 1.8,0 l 5.5,9.6 c 0.4,0.7 -0.1,1.6 -0.9,1.6 h -11.1 c -0.7,0 -1.2,-0.9 -0.8,-1.6 z" />
<path
   id="XMLID_12_"
   class="st5"
   d="m 292.85257,671.64694 5.5,9.6 c 0.4,0.7 1.4,0.7 1.8,0 l 5.5,-9.6 c 0.4,-0.7 -0.1,-1.6 -0.9,-1.6 h -11.1 c -0.7,0 -1.2,0.9 -0.8,1.6 z" />
<path
   id="XMLID_55_"
   class="st10"
   d="m 349.75257,619.04694 h -34.4 v -34.4 c 0,-2.5 -2.1,-4.6 -4.6,-4.6 h -22.8 c -2.5,0 -4.6,2.1 -4.6,4.6 v 34.4 h -34.4 c -2.5,0 -4.6,2.1 -4.6,4.6 v 22.8 c 0,2.5 2.1,4.6 4.6,4.6 h 34.4 v 34.4 c 0,2.5 2.1,4.6 4.6,4.6 h 22.8 c 2.5,0 4.6,-2.1 4.6,-4.6 v -34.4 h 34.4 c 2.5,0 4.6,-2.1 4.6,-4.6 v -22.8 c 0,-2.6 -2.1,-4.6 -4.6,-4.6 z" />
<path
   id="XMLID_11_"
   class="st5"
   d="m 334.15257,628.54694 9.6,5.5 c 0.7,0.4 0.7,1.4 0,1.8 l -9.6,5.5 c -0.7,0.4 -1.6,-0.1 -1.6,-0.9 v -11.1 c 0,-0.7 0.9,-1.2 1.6,-0.8 z" />
<path
   id="XMLID_9_"
   class="st5"
   d="m 262.75257,628.54694 -9.6,5.5 c -0.7,0.4 -0.7,1.4 0,1.8 l 9.6,5.5 c 0.7,0.4 1.6,-0.1 1.6,-0.9 v -11.1 c 0,-0.7 -0.9,-1.2 -1.6,-0.8 z" />
<path
   id="XMLID_45_"
   class="st11"
   d="m 588.55257,497.04694 h 90.8 c 19.5,0 38.1,4.1 55,11.4" />
<path
   id="XMLID_36_"
   class="st11"
   d="m 244.35257,508.44694 c 16.9,-7.4 35.5,-11.4 55,-11.4 h 89.2" />
<path
   id="XMLID_32_"
   class="st9"
   d="m 678.85257,503.04694 h -380 c -72.9,0 -132,59.1 -132,132 0,72.9 59.1,132 132,132 51.3,0 95.8,-29.3 117.6,-72 h 144.8 c 21.8,42.7 66.3,72 117.6,72 72.9,0 132,-59.1 132,-132 0,-72.9 -59.1,-132 -132,-132 z" />
<path
   id="XMLID_65_"
   class="st12"
   d="m 692.85257,622.74694 -39.6,39.6 c -8.6,8.6 -22.5,8.6 -31.1,0 v 0 c -8.6,-8.6 -8.6,-22.5 0,-31.1 l 39.6,-39.6 c 8.6,-8.6 22.5,-8.6 31.1,0 v 0 c 8.6,8.5 8.6,22.5 0,31.1 z" />
<path
   id="XMLID_59_"
   class="st5"
   d="m 690.85257,618.74694 -39.6,39.6 c -8.6,8.6 -22.5,8.6 -31.1,0 v 0 c -8.6,-8.6 -8.6,-22.5 0,-31.1 l 39.6,-39.6 c 8.6,-8.6 22.5,-8.6 31.1,0 v 0 c 8.6,8.5 8.6,22.5 0,31.1 z" />
<path
   id="XMLID_2_"
   class="st10"
   d="m 690.85257,618.74694 -39.6,39.6 c -8.6,8.6 -22.5,8.6 -31.1,0 v 0 c -8.6,-8.6 -8.6,-22.5 0,-31.1 l 39.6,-39.6 c 8.6,-8.6 22.5,-8.6 31.1,0 v 0 c 8.6,8.5 8.6,22.5 0,31.1 z" />
<circle
   id="XMLID_63_"
   class="st13"
   cx="635.75256"
   cy="642.74695"
   r="14" />
<path
   id="XMLID_8_"
   class="st14"
   d="m 626.75257,641.94694 c 0.4,-5 4.8,-8.6 9.8,-8.2" />
<circle
   id="XMLID_18_"
   class="st10"
   cx="635.75256"
   cy="642.74695"
   r="14" />
<circle
   id="XMLID_62_"
   class="st15"
   cx="675.35254"
   cy="603.14691"
   r="14" />
<path
   id="XMLID_13_"
   class="st14"
   d="m 666.35257,603.14694 c 0,-5 4,-9 9,-9" />
<circle
   id="XMLID_17_"
   class="st10"
   cx="675.35254"
   cy="603.14691"
   r="14" />
<path
   id="XMLID_64_"
   class="st12"
   d="m 739.45257,648.94694 -39.6,39.6 c -8.6,8.6 -22.5,8.6 -31.1,0 v 0 c -8.6,-8.6 -8.6,-22.5 0,-31.1 l 39.6,-39.6 c 8.6,-8.6 22.5,-8.6 31.1,0 v 0 c 8.6,8.6 8.6,22.5 0,31.1 z" />
<path
   id="XMLID_57_"
   class="st5"
   d="m 738.45257,643.94694 -39.6,39.6 c -8.6,8.6 -22.5,8.6 -31.1,0 v 0 c -8.6,-8.6 -8.6,-22.5 0,-31.1 l 39.6,-39.6 c 8.6,-8.6 22.5,-8.6 31.1,0 v 0 c 8.6,8.6 8.6,22.5 0,31.1 z" />
<path
   id="XMLID_35_"
   class="st10"
   d="m 738.45257,643.94694 -39.6,39.6 c -8.6,8.6 -22.5,8.6 -31.1,0 v 0 c -8.6,-8.6 -8.6,-22.5 0,-31.1 l 39.6,-39.6 c 8.6,-8.6 22.5,-8.6 31.1,0 v 0 c 8.6,8.6 8.6,22.5 0,31.1 z" />
<circle
   id="XMLID_61_"
   class="st16"
   cx="683.35254"
   cy="668.04694"
   r="14" />
<path
   id="XMLID_15_"
   class="st14"
   d="m 674.35257,668.04694 c 0,-5 4,-9 9,-9" />
<circle
   id="XMLID_34_"
   class="st10"
   cx="683.35254"
   cy="668.04694"
   r="14" />
<circle
   id="XMLID_33_"
   class="st17"
   cx="722.95258"
   cy="628.44696"
   r="14" />
<path
   id="XMLID_70_"
   class="st14"
   d="m 713.95257,628.44694 c 0,-5 4,-9 9,-9" />
<circle
   id="XMLID_60_"
   class="st10"
   cx="722.95258"
   cy="628.44696"
   r="14" />
<path
   id="XMLID_14_"
   class="st4"
   d="m 438.95257,649.94694 v 0 c -3.5,-3.5 -3.5,-9.2 0,-12.7 l 29.7,-29.7 c 3.5,-3.5 9.2,-3.5 12.7,0 v 0 c 3.5,3.5 3.5,9.2 0,12.7 l -29.7,29.7 c -3.5,3.5 -9.2,3.5 -12.7,0 z" />
<path
   id="XMLID_38_"
   class="st4"
   d="m 505.95257,649.94694 v 0 c -3.5,-3.5 -3.5,-9.2 0,-12.7 l 29.7,-29.7 c 3.5,-3.5 9.2,-3.5 12.7,0 v 0 c 3.5,3.5 3.5,9.2 0,12.7 l -29.7,29.7 c -3.5,3.5 -9.2,3.5 -12.7,0 z" />
<circle
   id="XMLID_58_"
   class="st5"
   cx="299.35257"
   cy="635.04694"
   r="16" />
<path
   id="XMLID_72_"
   class="st6"
   d="m 299.35257,647.74694 c -8.1,0 -15.1,-6.4 -15.9,-14.4 -0.1,0.5 -0.1,1.1 -0.1,1.6 0,8.7 7.3,16 16,16 8.7,0 16,-7.3 16,-16 0,-0.6 0,-1.1 -0.1,-1.6 -0.9,8 -7.8,14.4 -15.9,14.4 z" />
<path
   id="XMLID_68_"
   class="st14"
   d="m 287.35257,635.04694 c 0,-6.5 5.5,-12 12,-12" />

</svg>
