<?xml version="1.0" encoding="UTF-8" standalone="no"?>
<svg
   xmlns:dc="http://purl.org/dc/elements/1.1/"
   xmlns:cc="http://creativecommons.org/ns#"
   xmlns:rdf="http://www.w3.org/1999/02/22-rdf-syntax-ns#"
   xmlns:svg="http://www.w3.org/2000/svg"
   xmlns="http://www.w3.org/2000/svg"
   xmlns:sodipodi="http://sodipodi.sourceforge.net/DTD/sodipodi-0.dtd"
   xmlns:inkscape="http://www.inkscape.org/namespaces/inkscape"
   version="1.1"
   id="Layer_1"
   x="0px"
   y="0px"
   viewBox="0 0 1000 1000"
   style="enable-background:new 0 0 1000 1000;"
   xml:space="preserve"
   sodipodi:docname="rob.svg"
   inkscape:version="1.0.1 (3bc2e813f5, 2020-09-07)"><metadata
   id="metadata492"><rdf:RDF><cc:Work
       rdf:about=""><dc:format>image/svg+xml</dc:format><dc:type
         rdf:resource="http://purl.org/dc/dcmitype/StillImage" /><dc:title></dc:title></cc:Work></rdf:RDF></metadata><defs
   id="defs490" /><sodipodi:namedview
   pagecolor="#ffffff"
   bordercolor="#666666"
   borderopacity="1"
   objecttolerance="10"
   gridtolerance="10"
   guidetolerance="10"
   inkscape:pageopacity="0"
   inkscape:pageshadow="2"
   inkscape:window-width="1920"
   inkscape:window-height="1017"
   id="namedview488"
   showgrid="false"
   inkscape:zoom="0.85"
   inkscape:cx="499.41176"
   inkscape:cy="538.673"
   inkscape:window-x="-8"
   inkscape:window-y="-8"
   inkscape:window-maximized="1"
   inkscape:current-layer="g470" />
<style
   type="text/css"
   id="style252">
	.st0{fill:#FE3E4B;}
	.st1{fill:#EEF2F4;}
	.st2{opacity:0.17;fill:#FC8B3F;}
	.st3{opacity:0.17;fill:#FF9F2C;}
	.st4{fill:#430B48;}
	.st5{fill:#E0E0E0;}
	.st6{fill:#CFC3D8;}
	.st7{fill:none;stroke:#430B48;stroke-width:8;stroke-linecap:round;stroke-linejoin:round;stroke-miterlimit:10;}
	.st8{fill:#BFB0CC;}
	.st9{fill:#4B1151;}
	.st10{fill:none;stroke:#430B48;stroke-width:6;stroke-linecap:round;stroke-linejoin:round;stroke-miterlimit:10;}
	.st11{fill:#FFFFFF;}
	.st12{fill:#E6EEF1;}
	.st13{fill:#FEA74A;}
	.st14{fill:#BBC6CC;}
	.st15{fill:#CFC3D8;stroke:#CFC3D8;stroke-width:8;stroke-linecap:round;stroke-linejoin:round;stroke-miterlimit:10;}
	.st16{fill:#23B5E2;}
	.st17{fill:none;stroke:#BBC6CC;stroke-width:8;stroke-linecap:round;stroke-linejoin:round;stroke-miterlimit:10;}
	.st18{fill:url(#XMLID_198_);}
	.st19{fill:none;stroke:#3A3A3A;stroke-width:4;stroke-linecap:round;stroke-linejoin:round;stroke-miterlimit:10;}
	.st20{opacity:0.3;fill:#FFFFFF;}
	.st21{fill:none;stroke:#430B48;stroke-width:4;stroke-linecap:round;stroke-linejoin:round;stroke-miterlimit:10;}
	.st22{fill:#FE4B49;}
	.st23{fill:#FE5944;}
	.st24{fill:url(#XMLID_202_);}
</style>




<g
   id="g470"
   transform="matrix(1.2115966,0,0,1.2785782,-53.809035,-46.899296)">
	<ellipse
   id="XMLID_22_"
   class="st4"
   cx="504.20001"
   cy="776.79999"
   rx="92.5"
   ry="17.200001" />
	<path
   id="XMLID_104_"
   class="st5"
   d="m 475.2,660.3 c -23.5,0 -42.5,17.4 -42.5,39 v 1.4 c 0,42.1 31.3,76.1 69.9,76.1 38.6,0 69.9,-34.1 69.9,-76.1 v -1.4 c 0,-21.5 -19,-39 -42.5,-39 z" />
	<ellipse
   id="XMLID_24_"
   class="st6"
   cx="502.70001"
   cy="674"
   rx="49.299999"
   ry="13.7" />
	<ellipse
   id="XMLID_10_"
   class="st4"
   cx="502.70001"
   cy="672.70001"
   rx="36.799999"
   ry="10.2" />
	<path
   id="XMLID_188_"
   class="st6"
   d="m 502.7,744.7 c -34.9,0 -63.8,-16.8 -69.1,-53.2 -0.6,2.5 -0.9,5.1 -0.9,7.8 v 1.4 c 0,42.1 31.3,76.1 69.9,76.1 38.6,0 69.9,-34.1 69.9,-76.1 v -1.4 c 0,-2.7 -0.3,-5.3 -0.9,-7.8 -5.1,36.4 -34,53.2 -68.9,53.2 z" />
	<path
   id="XMLID_184_"
   class="st7"
   d="m 475.2,660.3 c -23.5,0 -42.5,17.4 -42.5,39 v 1.4 c 0,42.1 31.3,76.1 69.9,76.1 38.6,0 69.9,-34.1 69.9,-76.1 v -1.4 c 0,-21.5 -19,-39 -42.5,-39 z" />
	<line
   id="XMLID_17_"
   class="st7"
   x1="612.5"
   y1="285.10001"
   x2="648.5"
   y2="285.10001" />
	<circle
   id="XMLID_53_"
   class="st8"
   cx="664.5"
   cy="285.10001"
   r="16" />
	<circle
   id="XMLID_16_"
   class="st7"
   cx="664.5"
   cy="285.10001"
   r="16" />
	<g
   id="XMLID_42_">
		<path
   id="XMLID_50_"
   class="st9"
   d="m 626,522.5 c -0.9,-7.5 -0.6,-15 0.8,-22.4 0.9,-3.8 5,-6.8 8.6,-6.6 v 0 c 3.7,0.1 7.5,3.3 8.2,7.2 0.9,7.5 0.6,15 -0.8,22.4 -0.9,3.8 -5,6.8 -8.6,6.6 v 0 c -3.7,-0.1 -7.6,-3.3 -8.2,-7.2 z" />
		<g
   id="XMLID_101_">
			<path
   id="XMLID_49_"
   class="st4"
   d="m 647.3,522.1 c -2.5,-6.9 -4.1,-14.2 -4.3,-21.6 -0.1,-3.8 3.2,-7.6 6.8,-8.3 v 0 c 3.6,-0.7 8,1.5 9.4,5.1 2.7,6.9 4.1,14.2 4.3,21.6 0.1,3.8 -3.2,7.6 -6.8,8.3 v 0 c -3.5,0.7 -7.9,-1.5 -9.4,-5.1 z" />
			<path
   id="XMLID_48_"
   class="st9"
   d="m 667.6,517 c -4,-6 -7.2,-12.6 -9.1,-19.6 -1,-3.6 1.3,-8 4.5,-9.4 v 0 c 3.4,-1.5 8,-0.5 10.1,2.6 4.1,5.9 7.2,12.6 9.1,19.6 1,3.6 -1.3,8 -4.5,9.4 v 0 c -3.2,1.5 -7.9,0.4 -10.1,-2.6 z" />
			<path
   id="XMLID_47_"
   class="st9"
   d="m 685.8,507.5 c -5.2,-4.8 -9.7,-10.4 -13.1,-16.6 -1.8,-3.3 -0.5,-7.9 2.2,-10 v 0 c 3,-2.3 7.5,-2.2 10.3,0.2 5.3,4.7 9.7,10.4 13.1,16.6 1.8,3.3 0.5,7.9 -2.2,10 v 0 c -2.8,2.2 -7.5,2.2 -10.3,-0.2 z" />
			<path
   id="XMLID_46_"
   class="st9"
   d="m 701.3,494.3 c -6,-3.4 -11.6,-7.7 -16.2,-12.9 -2.4,-2.7 -2.3,-7.4 -0.2,-10 v 0 c 2.4,-2.9 6.6,-3.8 9.8,-2.1 6.1,3.3 11.6,7.7 16.2,12.9 2.4,2.7 2.3,7.4 0.2,10 v 0 c -2.1,2.7 -6.6,3.8 -9.8,2.1 z" />
			<path
   id="XMLID_45_"
   class="st9"
   d="m 713.5,477.9 c -6.5,-1.9 -12.8,-4.7 -18.4,-8.6 -2.9,-2 -3.9,-6.5 -2.5,-9.5 v 0 c 1.7,-3.4 5.4,-5.2 8.9,-4.2 6.6,1.8 12.8,4.7 18.4,8.6 2.9,2 3.9,6.5 2.5,9.5 v 0 c -1.4,3 -5.5,5.1 -8.9,4.2 z" />
			<path
   id="XMLID_44_"
   class="st9"
   d="m 721.7,458.9 c -6.7,-0.3 -13.3,-1.4 -19.5,-3.8 -3.2,-1.2 -5.2,-5.3 -4.6,-8.5 v 0 c 0.9,-3.8 4,-6.2 7.4,-6.1 6.7,0.1 13.3,1.4 19.5,3.8 3.2,1.2 5.2,5.3 4.6,8.5 v 0 c -0.5,3.1 -3.9,6.1 -7.4,6.1 z" />
			<path
   id="XMLID_43_"
   class="st9"
   d="m 724.5,439.3 c -6.5,0.4 -13,-0.2 -19.3,-1.8 -3.3,-1 -5.6,-4.6 -5.3,-7.8 v 0 c 0.5,-3.9 3.3,-6.3 6.7,-6.7 6.5,-0.4 13,0.2 19.3,1.8 3.3,1 5.6,4.6 5.3,7.8 v 0 c -0.3,3.2 -3.3,6.4 -6.7,6.7 z" />
		</g>
	</g>
	<g
   id="XMLID_97_">
		<path
   id="XMLID_68_"
   class="st10"
   d="m 626,522.5 c -0.9,-7.5 -0.6,-15 0.8,-22.4 0.9,-3.8 5,-6.8 8.6,-6.6 v 0 c 3.7,0.1 7.5,3.3 8.2,7.2 0.9,7.5 0.6,15 -0.8,22.4 -0.9,3.8 -5,6.8 -8.6,6.6 v 0 c -3.7,-0.1 -7.6,-3.3 -8.2,-7.2 z" />
		<path
   id="XMLID_66_"
   class="st10"
   d="m 647.3,522.1 c -2.5,-6.9 -4.1,-14.2 -4.3,-21.6 -0.1,-3.8 3.2,-7.6 6.8,-8.3 v 0 c 3.6,-0.7 8,1.5 9.4,5.1 2.7,6.9 4.1,14.2 4.3,21.6 0.1,3.8 -3.2,7.6 -6.8,8.3 v 0 c -3.5,0.7 -7.9,-1.5 -9.4,-5.1 z" />
		<path
   id="XMLID_65_"
   class="st10"
   d="m 667.6,517 c -4,-6 -7.2,-12.6 -9.1,-19.6 -1,-3.6 1.3,-8 4.5,-9.4 v 0 c 3.4,-1.5 8,-0.5 10.1,2.6 4.1,5.9 7.2,12.6 9.1,19.6 1,3.6 -1.3,8 -4.5,9.4 v 0 c -3.2,1.5 -7.9,0.4 -10.1,-2.6 z" />
		<path
   id="XMLID_64_"
   class="st10"
   d="m 685.8,507.5 c -5.2,-4.8 -9.7,-10.4 -13.1,-16.6 -1.8,-3.3 -0.5,-7.9 2.2,-10 v 0 c 3,-2.3 7.5,-2.2 10.3,0.2 5.3,4.7 9.7,10.4 13.1,16.6 1.8,3.3 0.5,7.9 -2.2,10 v 0 c -2.8,2.2 -7.5,2.2 -10.3,-0.2 z" />
		<path
   id="XMLID_63_"
   class="st10"
   d="m 701.3,494.3 c -6,-3.4 -11.6,-7.7 -16.2,-12.9 -2.4,-2.7 -2.3,-7.4 -0.2,-10 v 0 c 2.4,-2.9 6.6,-3.8 9.8,-2.1 6.1,3.3 11.6,7.7 16.2,12.9 2.4,2.7 2.3,7.4 0.2,10 v 0 c -2.1,2.7 -6.6,3.8 -9.8,2.1 z" />
		<path
   id="XMLID_62_"
   class="st10"
   d="m 713.5,477.9 c -6.5,-1.9 -12.8,-4.7 -18.4,-8.6 -2.9,-2 -3.9,-6.5 -2.5,-9.5 v 0 c 1.7,-3.4 5.4,-5.2 8.9,-4.2 6.6,1.8 12.8,4.7 18.4,8.6 2.9,2 3.9,6.5 2.5,9.5 v 0 c -1.4,3 -5.5,5.1 -8.9,4.2 z" />
		<path
   id="XMLID_61_"
   class="st10"
   d="m 721.7,458.9 c -6.7,-0.3 -13.3,-1.4 -19.5,-3.8 -3.2,-1.2 -5.2,-5.3 -4.6,-8.5 v 0 c 0.9,-3.8 4,-6.2 7.4,-6.1 6.7,0.1 13.3,1.4 19.5,3.8 3.2,1.2 5.2,5.3 4.6,8.5 v 0 c -0.5,3.1 -3.9,6.1 -7.4,6.1 z" />
		<path
   id="XMLID_60_"
   class="st10"
   d="m 724.5,439.3 c -6.5,0.4 -13,-0.2 -19.3,-1.8 -3.3,-1 -5.6,-4.6 -5.3,-7.8 v 0 c 0.5,-3.9 3.3,-6.3 6.7,-6.7 6.5,-0.4 13,0.2 19.3,1.8 3.3,1 5.6,4.6 5.3,7.8 v 0 c -0.3,3.2 -3.3,6.4 -6.7,6.7 z" />
	</g>
	<path
   id="XMLID_57_"
   class="st6"
   d="m 726.8,371.7 v 19.5 c 0,5.3 -4.3,9.6 -9.6,9.6 -5.3,0 -9.6,-4.3 -9.6,-9.6 v -12.8 h -19.3 v 16.4 c 0,16 12.9,28.9 28.9,28.9 v 0 c 16,0 28.9,-12.9 28.9,-28.9 v -23.1 z" />
	<path
   id="XMLID_187_"
   class="st8"
   d="m 711.4,398.9 c -2.3,-1.8 -3.8,-4.5 -3.8,-7.6 V 383 c 0,-0.8 -0.1,-1.7 -0.1,-2.5 0,-0.7 0,-1.3 0,-2 h -19.2 v 16.4 c 0,16 12.9,28.9 28.9,28.9 v 0 c 5.2,0 10.1,-1.4 14.3,-3.8 -8.8,-4.3 -16,-11.8 -20.1,-21.1 z" />
	<path
   id="XMLID_59_"
   class="st7"
   d="m 726.8,371.7 v 19.5 c 0,5.3 -4.3,9.6 -9.6,9.6 -5.3,0 -9.6,-4.3 -9.6,-9.6 v -12.8 h -19.3 v 16.4 c 0,16 12.9,28.9 28.9,28.9 v 0 c 16,0 28.9,-12.9 28.9,-28.9 v -23.1 z" />
	<g
   id="XMLID_256_">
		<path
   id="XMLID_279_"
   class="st9"
   d="m 379.4,522.5 c 0.9,-7.5 0.6,-15 -0.8,-22.4 -0.9,-3.8 -5,-6.8 -8.6,-6.6 v 0 c -3.7,0.1 -7.5,3.3 -8.2,7.2 -0.9,7.5 -0.6,15 0.8,22.4 0.9,3.8 5,6.8 8.6,6.6 v 0 c 3.7,-0.1 7.6,-3.3 8.2,-7.2 z" />
		<g
   id="XMLID_257_">
			<path
   id="XMLID_276_"
   class="st4"
   d="m 358,522.1 c 2.5,-6.9 4.1,-14.2 4.3,-21.6 0.1,-3.8 -3.2,-7.6 -6.8,-8.3 v 0 c -3.6,-0.7 -8,1.5 -9.4,5.1 -2.7,6.9 -4.1,14.2 -4.3,21.6 -0.1,3.8 3.2,7.6 6.8,8.3 v 0 c 3.6,0.7 8,-1.5 9.4,-5.1 z" />
			<path
   id="XMLID_273_"
   class="st9"
   d="m 337.8,517 c 4,-6 7.2,-12.6 9.1,-19.6 1,-3.6 -1.3,-8 -4.5,-9.4 v 0 c -3.4,-1.5 -8,-0.5 -10.1,2.6 -4.1,5.9 -7.2,12.6 -9.1,19.6 -1,3.6 1.3,8 4.5,9.4 v 0 c 3.1,1.5 7.9,0.4 10.1,-2.6 z" />
			<path
   id="XMLID_270_"
   class="st9"
   d="m 319.6,507.5 c 5.2,-4.8 9.7,-10.4 13.1,-16.6 1.8,-3.3 0.5,-7.9 -2.2,-10 v 0 c -3,-2.3 -7.5,-2.2 -10.3,0.2 -5.3,4.7 -9.7,10.4 -13.1,16.6 -1.8,3.3 -0.5,7.9 2.2,10 v 0 c 2.7,2.2 7.5,2.2 10.3,-0.2 z" />
			<path
   id="XMLID_267_"
   class="st9"
   d="m 304.1,494.3 c 6,-3.4 11.6,-7.7 16.2,-12.9 2.4,-2.7 2.3,-7.4 0.2,-10 v 0 c -2.4,-2.9 -6.6,-3.8 -9.8,-2.1 -6.1,3.3 -11.6,7.7 -16.2,12.9 -2.4,2.7 -2.3,7.4 -0.2,10 v 0 c 2.1,2.7 6.6,3.8 9.8,2.1 z" />
			<path
   id="XMLID_264_"
   class="st9"
   d="m 291.9,477.9 c 6.5,-1.9 12.8,-4.7 18.4,-8.6 2.9,-2 3.9,-6.5 2.5,-9.5 v 0 c -1.7,-3.4 -5.4,-5.2 -8.9,-4.2 -6.6,1.8 -12.8,4.7 -18.4,8.6 -2.9,2 -3.9,6.5 -2.5,9.5 v 0 c 1.4,3 5.4,5.1 8.9,4.2 z" />
			<path
   id="XMLID_261_"
   class="st9"
   d="m 283.6,458.9 c 6.7,-0.3 13.3,-1.4 19.5,-3.8 3.2,-1.2 5.2,-5.3 4.6,-8.5 v 0 c -0.9,-3.8 -4,-6.2 -7.4,-6.1 -6.7,0.1 -13.3,1.4 -19.5,3.8 -3.2,1.2 -5.2,5.3 -4.6,8.5 v 0 c 0.6,3.1 4,6.1 7.4,6.1 z" />
			<path
   id="XMLID_258_"
   class="st9"
   d="m 280.8,439.3 c 6.5,0.4 13,-0.2 19.3,-1.8 3.3,-1 5.6,-4.6 5.3,-7.8 v 0 c -0.5,-3.9 -3.3,-6.3 -6.7,-6.7 -6.5,-0.4 -13,0.2 -19.3,1.8 -3.3,1 -5.6,4.6 -5.3,7.8 v 0 c 0.4,3.2 3.3,6.4 6.7,6.7 z" />
		</g>
	</g>
	<g
   id="XMLID_247_">
		<path
   id="XMLID_255_"
   class="st10"
   d="m 379.4,522.5 c 0.9,-7.5 0.6,-15 -0.8,-22.4 -0.9,-3.8 -5,-6.8 -8.6,-6.6 v 0 c -3.7,0.1 -7.5,3.3 -8.2,7.2 -0.9,7.5 -0.6,15 0.8,22.4 0.9,3.8 5,6.8 8.6,6.6 v 0 c 3.7,-0.1 7.6,-3.3 8.2,-7.2 z" />
		<path
   id="XMLID_254_"
   class="st10"
   d="m 358,522.1 c 2.5,-6.9 4.1,-14.2 4.3,-21.6 0.1,-3.8 -3.2,-7.6 -6.8,-8.3 v 0 c -3.6,-0.7 -8,1.5 -9.4,5.1 -2.7,6.9 -4.1,14.2 -4.3,21.6 -0.1,3.8 3.2,7.6 6.8,8.3 v 0 c 3.6,0.7 8,-1.5 9.4,-5.1 z" />
		<path
   id="XMLID_253_"
   class="st10"
   d="m 337.8,517 c 4,-6 7.2,-12.6 9.1,-19.6 1,-3.6 -1.3,-8 -4.5,-9.4 v 0 c -3.4,-1.5 -8,-0.5 -10.1,2.6 -4.1,5.9 -7.2,12.6 -9.1,19.6 -1,3.6 1.3,8 4.5,9.4 v 0 c 3.1,1.5 7.9,0.4 10.1,-2.6 z" />
		<path
   id="XMLID_252_"
   class="st10"
   d="m 319.6,507.5 c 5.2,-4.8 9.7,-10.4 13.1,-16.6 1.8,-3.3 0.5,-7.9 -2.2,-10 v 0 c -3,-2.3 -7.5,-2.2 -10.3,0.2 -5.3,4.7 -9.7,10.4 -13.1,16.6 -1.8,3.3 -0.5,7.9 2.2,10 v 0 c 2.7,2.2 7.5,2.2 10.3,-0.2 z" />
		<path
   id="XMLID_251_"
   class="st10"
   d="m 304.1,494.3 c 6,-3.4 11.6,-7.7 16.2,-12.9 2.4,-2.7 2.3,-7.4 0.2,-10 v 0 c -2.4,-2.9 -6.6,-3.8 -9.8,-2.1 -6.1,3.3 -11.6,7.7 -16.2,12.9 -2.4,2.7 -2.3,7.4 -0.2,10 v 0 c 2.1,2.7 6.6,3.8 9.8,2.1 z" />
		<path
   id="XMLID_250_"
   class="st10"
   d="m 291.9,477.9 c 6.5,-1.9 12.8,-4.7 18.4,-8.6 2.9,-2 3.9,-6.5 2.5,-9.5 v 0 c -1.7,-3.4 -5.4,-5.2 -8.9,-4.2 -6.6,1.8 -12.8,4.7 -18.4,8.6 -2.9,2 -3.9,6.5 -2.5,9.5 v 0 c 1.4,3 5.4,5.1 8.9,4.2 z" />
		<path
   id="XMLID_249_"
   class="st10"
   d="m 283.6,458.9 c 6.7,-0.3 13.3,-1.4 19.5,-3.8 3.2,-1.2 5.2,-5.3 4.6,-8.5 v 0 c -0.9,-3.8 -4,-6.2 -7.4,-6.1 -6.7,0.1 -13.3,1.4 -19.5,3.8 -3.2,1.2 -5.2,5.3 -4.6,8.5 v 0 c 0.6,3.1 4,6.1 7.4,6.1 z" />
		<path
   id="XMLID_248_"
   class="st10"
   d="m 280.8,439.3 c 6.5,0.4 13,-0.2 19.3,-1.8 3.3,-1 5.6,-4.6 5.3,-7.8 v 0 c -0.5,-3.9 -3.3,-6.3 -6.7,-6.7 -6.5,-0.4 -13,0.2 -19.3,1.8 -3.3,1 -5.6,4.6 -5.3,7.8 v 0 c 0.4,3.2 3.3,6.4 6.7,6.7 z" />
	</g>
	<path
   id="XMLID_191_"
   class="st6"
   d="m 278.5,371.7 v 19.5 c 0,5.3 4.3,9.6 9.6,9.6 5.3,0 9.6,-4.3 9.6,-9.6 V 378.4 H 317 v 16.4 c 0,16 -12.9,28.9 -28.9,28.9 v 0 c -16,0 -28.9,-12.9 -28.9,-28.9 v -23.1 z" />
	<path
   id="XMLID_183_"
   class="st8"
   d="m 294,398.9 c 2.3,-1.8 3.8,-4.5 3.8,-7.6 V 383 c 0,-0.8 0.1,-1.7 0.1,-2.5 0,-0.7 0,-1.3 0,-2 h 19.2 v 16.4 c 0,16 -12.9,28.9 -28.9,28.9 v 0 c -5.2,0 -10.1,-1.4 -14.3,-3.8 8.8,-4.3 16,-11.8 20.1,-21.1 z" />
	<path
   id="XMLID_84_"
   class="st7"
   d="m 278.5,371.7 v 19.5 c 0,5.3 4.3,9.6 9.6,9.6 5.3,0 9.6,-4.3 9.6,-9.6 V 378.4 H 317 v 16.4 c 0,16 -12.9,28.9 -28.9,28.9 v 0 c -16,0 -28.9,-12.9 -28.9,-28.9 v -23.1 z" />
	<path
   id="XMLID_52_"
   class="st8"
   d="m 608.7,326.1 h -16 v -82 h 16 c 4.4,0 8,3.6 8,8 v 66 c 0,4.5 -3.6,8 -8,8 z" />
	<path
   id="XMLID_20_"
   class="st11"
   d="m 608.7,244.1 h -16 v 11 h 16 c 4.4,0 8,3.6 8,8 v -11 c 0,-4.4 -3.6,-8 -8,-8 z" />
	<path
   id="XMLID_15_"
   class="st7"
   d="m 608.7,326.1 h -16 v -82 h 16 c 4.4,0 8,3.6 8,8 v 66 c 0,4.5 -3.6,8 -8,8 z" />
	<line
   id="XMLID_93_"
   class="st7"
   x1="392.89999"
   y1="285.10001"
   x2="356.89999"
   y2="285.10001" />
	<circle
   id="XMLID_69_"
   class="st8"
   cx="340.89999"
   cy="285.10001"
   r="16" />
	<circle
   id="XMLID_92_"
   class="st7"
   cx="340.89999"
   cy="285.10001"
   r="16" />
	<path
   id="XMLID_67_"
   class="st8"
   d="m 396.7,326.1 h 16 v -82 h -16 c -4.4,0 -8,3.6 -8,8 v 66 c 0,4.5 3.6,8 8,8 z" />
	<path
   id="XMLID_23_"
   class="st12"
   d="m 396.7,244.1 c -4.4,0 -8,3.6 -8,8 v 11 c 0,-4.4 3.6,-8 8,-8 h 16 v -11 z" />
	<path
   id="XMLID_94_"
   class="st7"
   d="m 396.7,326.1 h 16 v -82 h -16 c -4.4,0 -8,3.6 -8,8 v 66 c 0,4.5 3.6,8 8,8 z" />
	<path
   id="XMLID_5_"
   class="st7"
   d="m 608.7,326.1 h -16 v -82 h 16 c 4.4,0 8,3.6 8,8 v 66 c 0,4.5 -3.6,8 -8,8 z" />
	<path
   id="XMLID_4_"
   class="st7"
   d="m 396.7,326.1 h 16 v -82 h -16 c -4.4,0 -8,3.6 -8,8 v 66 c 0,4.5 3.6,8 8,8 z" />
	<path
   id="XMLID_88_"
   class="st5"
   d="m 556.7,379.1 h -108 c -22.1,0 -40,-17.9 -40,-40 v -108 c 0,-22.1 17.9,-40 40,-40 h 108 c 22.1,0 40,17.9 40,40 v 108 c 0,22.1 -17.9,40 -40,40 z" />
	<path
   id="XMLID_39_"
   class="st5"
   d="m 556.7,379.1 h -108 c -22.1,0 -40,-17.9 -40,-40 v -108 c 0,-22.1 17.9,-40 40,-40 h 108 c 22.1,0 40,17.9 40,40 v 108 c 0,22.1 -17.9,40 -40,40 z" />
	<path
   id="XMLID_108_"
   class="st5"
   d="m 556.7,379.1 h -108 c -22.1,0 -40,-17.9 -40,-40 v -108 c 0,-22.1 17.9,-40 40,-40 h 108 c 22.1,0 40,17.9 40,40 v 108 c 0,22.1 -17.9,40 -40,40 z" />
	<path
   id="XMLID_133_"
   class="st11"
   d="m 556.7,191.1 h -108 c -22.1,0 -40,17.9 -40,40 v 9.9 c 0,-22.1 17.9,-40 40,-40 h 108 c 22.1,0 40,17.9 40,40 v -9.9 c 0,-22.1 -17.9,-40 -40,-40 z" />
	<path
   id="XMLID_154_"
   class="st8"
   d="m 556.7,362.7 h -108 c -22.1,0 -40,-13 -40,-35.1 v 11.5 c 0,22.1 17.9,40 40,40 h 108 c 22.1,0 40,-17.9 40,-40 v -11.5 c 0,22.2 -17.9,35.1 -40,35.1 z" />
	<path
   id="XMLID_2_"
   class="st7"
   d="m 556.7,379.1 h -108 c -22.1,0 -40,-17.9 -40,-40 v -108 c 0,-22.1 17.9,-40 40,-40 h 108 c 22.1,0 40,17.9 40,40 v 108 c 0,22.1 -17.9,40 -40,40 z" />
	<ellipse
   id="XMLID_90_"
   class="st13"
   cx="502.70001"
   cy="191.10001"
   rx="40"
   ry="22" />
	<ellipse
   id="XMLID_76_"
   class="st14"
   cx="502.70001"
   cy="191.10001"
   rx="40"
   ry="22" />
	<ellipse
   id="XMLID_38_"
   class="st5"
   cx="502.70001"
   cy="191.10001"
   rx="40"
   ry="18.9" />
	<path
   id="XMLID_126_"
   class="st8"
   d="m 541.4,186.6 c -3,10.5 -19.5,13.5 -39.5,13.5 -18.6,0 -34.2,-1.9 -38.7,-11.3 -0.3,1.1 -0.5,-1.8 -0.5,-0.6 0,12.1 17.9,21.9 40,21.9 22.1,0 40,-9.8 40,-21.9 0,-2 -0.5,0.1 -1.3,-1.6 z" />
	<ellipse
   id="XMLID_6_"
   class="st7"
   cx="502.70001"
   cy="191.10001"
   rx="40"
   ry="18.9" />
	<circle
   id="XMLID_74_"
   class="st15"
   cx="502.70001"
   cy="284.29999"
   r="42.099998" />
	<circle
   id="XMLID_89_"
   class="st12"
   cx="502.70001"
   cy="277.60001"
   r="42.099998" />
	<circle
   id="XMLID_7_"
   class="st7"
   cx="502.70001"
   cy="277.60001"
   r="42.099998" />
	<circle
   id="XMLID_58_"
   class="st16"
   cx="501.89999"
   cy="287"
   r="20.9" />
	<circle
   id="XMLID_54_"
   class="st7"
   cx="501.89999"
   cy="287"
   r="20.9" />
	<circle
   id="XMLID_55_"
   class="st4"
   cx="501.89999"
   cy="287"
   r="11.1" />
	<g
   id="XMLID_107_">
		<g
   id="XMLID_239_">
			<line
   id="XMLID_246_"
   class="st17"
   x1="546.90002"
   y1="346.70001"
   x2="546.90002"
   y2="354.70001" />
			<line
   id="XMLID_245_"
   class="st17"
   x1="532.09998"
   y1="345.10001"
   x2="532.09998"
   y2="356.39999" />
			<line
   id="XMLID_244_"
   class="st17"
   x1="517.40002"
   y1="343.39999"
   x2="517.40002"
   y2="358.10001" />
			<line
   id="XMLID_243_"
   class="st17"
   x1="502.70001"
   y1="341.70001"
   x2="502.70001"
   y2="359.70001" />
			<line
   id="XMLID_242_"
   class="st17"
   x1="458.5"
   y1="346.70001"
   x2="458.5"
   y2="354.70001" />
			<line
   id="XMLID_241_"
   class="st17"
   x1="473.20001"
   y1="345.10001"
   x2="473.20001"
   y2="356.39999" />
			<line
   id="XMLID_240_"
   class="st17"
   x1="488"
   y1="343.39999"
   x2="488"
   y2="358.10001" />
		</g>
	</g>
	<g
   id="XMLID_8_">
		<g
   id="XMLID_220_">
			<line
   id="XMLID_227_"
   class="st7"
   x1="546.90002"
   y1="343.70001"
   x2="546.90002"
   y2="351.70001" />
			<line
   id="XMLID_226_"
   class="st7"
   x1="532.09998"
   y1="342.10001"
   x2="532.09998"
   y2="353.39999" />
			<line
   id="XMLID_225_"
   class="st7"
   x1="517.40002"
   y1="340.39999"
   x2="517.40002"
   y2="355.10001" />
			<line
   id="XMLID_224_"
   class="st7"
   x1="502.70001"
   y1="338.70001"
   x2="502.70001"
   y2="356.70001" />
			<line
   id="XMLID_223_"
   class="st7"
   x1="458.5"
   y1="343.70001"
   x2="458.5"
   y2="351.70001" />
			<line
   id="XMLID_222_"
   class="st7"
   x1="473.20001"
   y1="342.10001"
   x2="473.20001"
   y2="353.39999" />
			<line
   id="XMLID_221_"
   class="st7"
   x1="488"
   y1="340.39999"
   x2="488"
   y2="355.10001" />
		</g>
	</g>
	<rect
   id="XMLID_91_"
   x="486.70001"
   y="379.10001"
   class="st6"
   width="32"
   height="44" />
	<rect
   id="XMLID_87_"
   x="486.70001"
   y="379.10001"
   class="st4"
   width="32"
   height="16.4" />
	<rect
   id="XMLID_18_"
   x="486.70001"
   y="379.10001"
   class="st7"
   width="32"
   height="44" />
	<path
   id="XMLID_95_"
   class="st5"
   d="m 638.3,530.2 c -18.4,50 -49.4,93.9 -89.1,127.9 -26.7,22.9 -66.3,22.9 -93,0 -39.7,-34 -70.7,-77.9 -89.1,-127.9 -14.5,-39.3 7.3,-82.4 47.4,-94.3 27.9,-8.3 57.5,-12.8 88.2,-12.8 30.7,0 60.2,4.5 88.2,12.8 40.1,11.9 61.9,55 47.4,94.3 z" />
	<path
   id="XMLID_119_"
   class="st5"
   d="m 638.3,530.2 c -18.4,50 -49.4,93.9 -89.1,127.9 -26.7,22.9 -66.3,22.9 -93,0 -39.7,-34 -70.7,-77.9 -89.1,-127.9 -14.5,-39.3 7.3,-82.4 47.4,-94.3 27.9,-8.3 57.5,-12.8 88.2,-12.8 30.7,0 60.2,4.5 88.2,12.8 40.1,11.9 61.9,55 47.4,94.3 z" />
	<path
   id="XMLID_195_"
   class="st11"
   d="m 414.5,443.9 c 27.9,-8.3 57.5,-12.8 88.2,-12.8 30.7,0 60.2,4.5 88.2,12.8 30.3,9 50.1,35.7 51.8,65.2 1.8,-32.5 -18.8,-63.4 -51.8,-73.2 -27.9,-8.3 -57.5,-12.8 -88.2,-12.8 -30.7,0 -60.2,4.5 -88.2,12.8 -33,9.8 -53.6,40.7 -51.8,73.2 1.7,-29.4 21.5,-56.2 51.8,-65.2 z" />
	<path
   id="XMLID_175_"
   class="st6"
   d="m 551.3,624 c -27.9,22.9 -69.4,22.9 -97.3,0 -40.2,-32.9 -71.8,-75 -91.3,-122.9 -0.5,9.6 0.8,19.5 4.4,29.1 18.4,50 49.4,93.9 89.1,127.9 26.7,22.9 66.3,22.9 93,0 39.7,-34 70.7,-77.9 89.1,-127.9 3.6,-9.6 4.9,-19.5 4.4,-29.1 -19.5,47.9 -51.2,90 -91.4,122.9 z" />
	<path
   id="XMLID_28_"
   class="st7"
   d="m 638.3,530.2 c -18.4,50 -49.4,93.9 -89.1,127.9 -26.7,22.9 -66.3,22.9 -93,0 -39.7,-34 -70.7,-77.9 -89.1,-127.9 -14.5,-39.3 7.3,-82.4 47.4,-94.3 27.9,-8.3 57.5,-12.8 88.2,-12.8 30.7,0 60.2,4.5 88.2,12.8 40.1,11.9 61.9,55 47.4,94.3 z" />
	<linearGradient
   id="XMLID_198_"
   gradientUnits="userSpaceOnUse"
   x1="502.6864"
   y1="552.9848"
   x2="502.6864"
   y2="488.9848">
		<stop
   offset="0"
   style="stop-color:#57AA63"
   id="stop454" />
		<stop
   offset="1"
   style="stop-color:#9AA642"
   id="stop456" />
	</linearGradient>
	<path
   id="XMLID_96_"
   class="st18"
   d="m 547,553 h -88.7 c -6.4,0 -11.7,-5.2 -11.7,-11.7 v -40.7 c 0,-6.4 5.2,-11.7 11.7,-11.7 H 547 c 6.4,0 11.7,5.2 11.7,11.7 v 40.7 c 0,6.5 -5.2,11.7 -11.7,11.7 z"
   style="fill:url(#XMLID_198_)" />
	<polyline
   id="XMLID_21_"
   class="st19"
   points="446.7,535 460.8,510.8 472.2,544.6 488.3,507.9 500.8,534.3 509.8,500.3    526.2,544.6 540.9,508.4 558.7,534.3  " />
	<path
   id="XMLID_103_"
   class="st20"
   d="m 548.6,509.1 h -91.9 c -5.6,0 -10.1,-4.5 -10.1,-10.1 v 0 c 0,-5.6 4.5,-10.1 10.1,-10.1 h 91.9 c 5.6,0 10.1,4.5 10.1,10.1 v 0 c 0,5.6 -4.5,10.1 -10.1,10.1 z" />
	<path
   id="XMLID_19_"
   class="st10"
   d="m 547,553 h -88.7 c -6.4,0 -11.7,-5.2 -11.7,-11.7 v -40.7 c 0,-6.4 5.2,-11.7 11.7,-11.7 H 547 c 6.4,0 11.7,5.2 11.7,11.7 v 40.7 c 0,6.5 -5.2,11.7 -11.7,11.7 z" />
	<ellipse
   id="XMLID_51_"
   class="st11"
   cx="502.70001"
   cy="185.5"
   rx="13.5"
   ry="5.5999999" />
	<ellipse
   id="XMLID_70_"
   class="st12"
   cx="501.39999"
   cy="279.10001"
   rx="6.3000002"
   ry="4.9000001" />
	<ellipse
   id="XMLID_116_"
   class="st11"
   cx="666.09998"
   cy="280.10001"
   rx="5.1999998"
   ry="4" />
	<ellipse
   id="XMLID_134_"
   class="st11"
   cx="339.29999"
   cy="280.10001"
   rx="5.1999998"
   ry="4" />
	<circle
   id="XMLID_25_"
   class="st6"
   cx="503.29999"
   cy="575.70001"
   r="11.7" />
	<circle
   id="XMLID_9_"
   class="st21"
   cx="503.29999"
   cy="575.70001"
   r="11.7" />
	<path
   id="XMLID_37_"
   class="st4"
   d="m 509.8,573.3 -1.3,-2.2 c -0.2,-0.3 -0.6,-0.5 -1,-0.3 v 0 c -1.1,0.6 -2.4,-0.2 -2.4,-1.4 v 0 c 0,-0.4 -0.3,-0.7 -0.7,-0.7 h -2.5 c -0.4,0 -0.7,0.3 -0.7,0.7 v 0 c 0,1.2 -1.3,2 -2.4,1.4 v 0 c -0.3,-0.2 -0.8,-0.1 -1,0.3 l -1.3,2.2 c -0.2,0.3 -0.1,0.8 0.3,1 v 0 c 1.1,0.6 1.1,2.1 0,2.7 v 0 c -0.3,0.2 -0.5,0.6 -0.3,1 l 1.3,2.2 c 0.2,0.3 0.6,0.5 1,0.3 v 0 c 1.1,-0.6 2.4,0.2 2.4,1.4 v 0 c 0,0.4 0.3,0.7 0.7,0.7 h 2.5 c 0.4,0 0.7,-0.3 0.7,-0.7 v 0 c 0,-1.2 1.3,-2 2.4,-1.4 v 0 c 0.3,0.2 0.8,0.1 1,-0.3 l 1.3,-2.2 c 0.2,-0.3 0.1,-0.8 -0.3,-1 v 0 c -1.1,-0.6 -1.1,-2.1 0,-2.7 v 0 c 0.4,-0.2 0.5,-0.6 0.3,-1 z" />
</g>





<circle
   id="XMLID_111_"
   class="st20"
   cx="-221.2"
   cy="327.2"
   r="36.2" />


<linearGradient
   id="XMLID_202_"
   gradientUnits="userSpaceOnUse"
   x1="-348.0031"
   y1="292.1782"
   x2="-275.6718"
   y2="292.1782">
	<stop
   offset="0"
   style="stop-color:#57AA63"
   id="stop480" />
	<stop
   offset="1"
   style="stop-color:#9AA642"
   id="stop482" />
</linearGradient>


</svg>
