<?xml version="1.0" encoding="UTF-8" standalone="no"?>
<svg
   xmlns:dc="http://purl.org/dc/elements/1.1/"
   xmlns:cc="http://creativecommons.org/ns#"
   xmlns:rdf="http://www.w3.org/1999/02/22-rdf-syntax-ns#"
   xmlns:svg="http://www.w3.org/2000/svg"
   xmlns="http://www.w3.org/2000/svg"
   xmlns:sodipodi="http://sodipodi.sourceforge.net/DTD/sodipodi-0.dtd"
   xmlns:inkscape="http://www.inkscape.org/namespaces/inkscape"
   version="1.1"
   id="Layer_1"
   x="0px"
   y="0px"
   viewBox="0 0 1000 1000"
   style="enable-background:new 0 0 1000 1000;"
   xml:space="preserve"
   sodipodi:docname="rocket.svg"
   inkscape:version="1.0.1 (3bc2e813f5, 2020-09-07)"><metadata
   id="metadata3155"><rdf:RDF><cc:Work
       rdf:about=""><dc:format>image/svg+xml</dc:format><dc:type
         rdf:resource="http://purl.org/dc/dcmitype/StillImage" /><dc:title /></cc:Work></rdf:RDF></metadata><defs
   id="defs3153" /><sodipodi:namedview
   pagecolor="#ffffff"
   bordercolor="#666666"
   borderopacity="1"
   objecttolerance="10"
   gridtolerance="10"
   guidetolerance="10"
   inkscape:pageopacity="0"
   inkscape:pageshadow="2"
   inkscape:window-width="1920"
   inkscape:window-height="1017"
   id="namedview3151"
   showgrid="false"
   inkscape:zoom="0.85"
   inkscape:cx="101.94516"
   inkscape:cy="431.16793"
   inkscape:window-x="-8"
   inkscape:window-y="-8"
   inkscape:window-maximized="1"
   inkscape:current-layer="Layer_1"
   inkscape:document-rotation="0"
   showguides="false" />
<style
   type="text/css"
   id="style2853">
	.st0{fill:none;stroke:#601B23;stroke-width:6;stroke-linecap:round;stroke-linejoin:round;stroke-miterlimit:10;}
	.st1{fill:#E36535;}
	.st2{fill:#F4A045;}
	.st3{fill:#554D84;}
	.st4{fill:#FFFFFF;}
	.st5{fill:#601B23;}
	.st6{fill:#C11A4D;}
	.st7{fill:#CF264D;}
	.st8{opacity:0.72;fill:#A5143A;}
	.st9{opacity:0.23;fill:#F4A15D;}
	.st10{opacity:0.32;fill:#F4A15D;}
	.st11{opacity:0.37;fill:#A5143A;}
	.st12{fill:none;stroke:#601B23;stroke-width:4;stroke-linecap:round;stroke-linejoin:round;stroke-miterlimit:10;}
	.st13{fill:#4E8280;}
	.st14{opacity:0.32;}
	.st15{fill:#F4A15D;}
	.st16{fill:#37605D;}
	.st17{opacity:0.72;fill:#A5143A;stroke:#A5143A;stroke-width:6;stroke-linecap:round;stroke-linejoin:round;stroke-miterlimit:10;}
	.st18{fill:#ABCFD8;}
	.st19{opacity:0.93;fill:#E2F0F2;}
	.st20{fill:#BC1D4E;}
	.st21{opacity:0.74;fill:#A5143A;}
	.st22{opacity:0.53;}
	.st23{opacity:0.41;fill:#FFFFFF;}
</style>
<path
   id="XMLID_29_"
   class="st0"
   d="m 488.15557,516.62434 c -12.00816,1.31356 -21.58913,15.76284 -23.37758,27.69443 -0.51098,3.50286 -0.76648,6.89625 -0.76648,10.39909 0,11.38428 2.81042,22.22124 7.92027,33.27712 5.10986,10.83695 12.77464,21.89283 21.97237,28.24175 9.32549,-6.34892 16.86252,-17.4048 21.97238,-28.24175 5.10985,-11.05588 7.92027,-21.89284 7.92027,-33.27712 0,-3.50284 -0.2555,-6.89623 -0.76648,-10.39909 -1.78845,-12.04106 -11.36943,-26.38087 -23.37757,-27.69443 -3.70465,-0.3284 -7.66479,-0.3284 -11.49718,0 z" />
<path
   id="XMLID_35_"
   class="st1"
   d="m 488.15557,516.62434 c -12.00816,1.31356 -21.58913,15.76284 -23.37758,27.69443 -0.51098,3.50286 -0.76648,6.89625 -0.76648,10.39909 0,11.38428 2.81042,22.22124 7.92027,33.27712 5.10986,10.83695 12.77464,21.89283 21.97237,28.24175 9.32549,-6.34892 16.86252,-17.4048 21.97238,-28.24175 5.10985,-11.05588 7.92027,-21.89284 7.92027,-33.27712 0,-3.50284 -0.2555,-6.89623 -0.76648,-10.39909 -1.78845,-12.04106 -11.36943,-26.38087 -23.37757,-27.69443 -3.70465,-0.3284 -7.66479,-0.3284 -11.49718,0 z"
   style="stroke-width:1.18253" />
<path
   id="XMLID_178_"
   class="st2"
   d="m 547.55762,585.25837 c 0,20.36034 -4.9821,39.84496 -14.17984,59.65798 -0.2555,0.65679 -0.63874,1.31357 -1.02198,2.07983 -9.19773,18.82783 -22.3556,37.65567 -38.3239,48.71155 -16.47927,-11.38427 -29.89264,-30.97836 -39.21812,-50.35352 -0.12775,-0.10946 -0.12775,-0.21892 -0.2555,-0.43786 -9.19774,-19.81302 -14.17984,-39.29764 -14.17984,-59.65798 0,-6.23946 0.51098,-12.36945 1.40521,-18.71837 3.06591,-21.23605 19.92842,-46.85067 41.00657,-49.58727 0.2555,0 0.51099,-0.10947 0.76648,-0.10947 6.64281,-0.65679 13.41336,-0.65679 20.05618,-0.10946 0.25549,0 0.63872,0 0.89422,0.10946 21.46139,2.29875 38.70714,28.24176 41.77306,49.69674 0.76648,6.34892 1.27746,12.47891 1.27746,18.71837 z"
   style="stroke-width:1.18253" />
<path
   id="XMLID_177_"
   class="st0"
   d="m 547.55762,585.25837 c 0,20.36034 -4.9821,39.84496 -14.17984,59.65798 -0.2555,0.65679 -0.63874,1.31357 -1.02198,2.07983 -9.19773,18.82783 -22.3556,37.65567 -38.3239,48.71155 -16.47927,-11.38427 -29.89264,-30.97836 -39.21812,-50.35352 -0.12775,-0.10946 -0.12775,-0.21892 -0.2555,-0.43786 -9.19774,-19.81302 -14.17984,-39.29764 -14.17984,-59.65798 0,-6.23946 0.51098,-12.36945 1.40521,-18.71837 3.06591,-21.23605 19.92842,-46.85067 41.00657,-49.58727 0.2555,0 0.51099,-0.10947 0.76648,-0.10947 6.64281,-0.65679 13.41336,-0.65679 20.05618,-0.10946 0.25549,0 0.63872,0 0.89422,0.10946 21.46139,2.29875 38.70714,28.24176 41.77306,49.69674 0.76648,6.34892 1.27746,12.47891 1.27746,18.71837 z" />

<path
   id="XMLID_62_"
   class="st4"
   d="m 999.79823,797.61436 c -15.20008,5.17313 -27.60008,17.93353 -33.80008,34.48757 -12,-4.94322 -25,-7.70223 -38.5,-7.70223 -40,0 -75.2,23.68147 -95.6,59.43358 -10.6,-5.74793 -22.4,-8.85181 -34.9,-8.85181 -5.5,0 -10.8,0.5748 -15.9,1.83934 0,-0.57479 0,-1.14959 0,-1.83934 0,-29.31443 -18,-53.80061 -41.9,-59.66349 -9.2,-36.21195 -38.2,-62.76738 -72.7,-62.76738 -28.7,0 -53.7,18.39337 -66.5,45.40863 -8.9,-9.54156 -20.8,-15.5194 -33.9,-15.5194 -7.5,0 -14.6,1.95429 -21,5.28809 -7.8,-13.90998 -14.7,-28.50972 -20.6,-43.91417 -14.6,-37.93633 -22.7,-80.24108 -22.7,-124.61509 0,-4.02355 0.1,-7.93214 0.2,-11.95569 1.7,-51.38648 14.2,-99.55411 35.1,-141.62895 h -86.5 c 20.9,42.07484 33.4,90.35743 35.1,141.74391 0.1,3.90859 0.2,7.81718 0.2,11.72578 0,43.68425 -7.9,85.41421 -22.1,123.12062 -9.3,24.60113 -21.2,47.59285 -35.5,68.40035 -12.1,-17.24379 -30.6,-28.16485 -51.3,-28.16485 -20.8,0 -39.3,11.03602 -51.4,28.27981 -9.7,-6.55264 -20.9,-10.34628 -33,-10.34628 -19.4,0 -36.9,9.88644 -48.8,25.40585 -17.6,-30.00419 -47.4,-49.77706 -81.2,-49.77706 -54,0 -97.800001,50.35185 -97.800001,112.42948 0,0.34487 0,0.68975 0,1.03462 -36.6,21.3823 -62.2999995,63.91697 -64.79999952,113.69405 H 235.99815 h 483.9 279.90008 z"
   style="fill:#ffffff;stroke-width:1.07219" />

<path
   id="XMLID_79_"
   class="st6"
   d="m 339.84207,349.47252 -41.64531,13.90196 v -67.75833 l 127.87408,-85.49152 v 128.18256 l -30.91461,13.90194 c -16.47928,-7.44356 -36.53545,-8.97606 -55.31416,-2.73661 z"
   style="stroke-width:1.18253" />
<path
   id="XMLID_19_"
   class="st7"
   d="m 284.65565,381.10768 c -13.03013,-16.2007 -20.56716,-35.35693 -20.56716,-55.82673 0,-25.94302 11.88041,-49.69674 31.68108,-67.97727 19.80069,18.28053 31.80885,42.03425 31.9366,67.97727 0,20.57927 -7.53704,39.62603 -20.43942,55.82673 z"
   style="stroke-width:1.18253" />
<path
   id="XMLID_83_"
   class="st8"
   d="M 298.19676,363.37448 339.58658,349.582 c 0.51097,-9.41392 -0.2555,-19.04677 -2.29944,-28.67962 -3.06592,-14.44927 -8.8145,-28.02283 -16.73477,-40.28282 l -22.35561,14.99659 z"
   style="stroke-width:1.18253" />
<polygon
   id="XMLID_63_"
   class="st9"
   points="441.6,375.5 341.4,453.5 341.4,515.5 345.6,513.9 345.6,470.9 441.6,396.1 "
   transform="matrix(1.2774635,0,0,1.0946418,-137.92925,-200.91337)" />
<path
   id="XMLID_69_"
   class="st8"
   d="m 375.22781,346.40753 c 7.02604,0.98518 13.66886,2.95553 19.92842,5.8016 l 30.91461,-13.90194 V 210.12463 l -53.90895,36.01372 c -2.68267,13.90195 -3.96013,28.46068 -3.96013,43.45727 0.12774,19.81302 2.55492,38.96926 7.02605,56.81191 z"
   style="stroke-width:1.18253" />
<path
   id="XMLID_72_"
   class="st0"
   d="m 339.84207,349.47252 -41.64531,13.90196 v -67.75833 l 127.87408,-85.49152 v 128.18256 l -30.91461,13.90194 c -16.47928,-7.44356 -36.53545,-8.97606 -55.31416,-2.73661 z" />
<path
   id="XMLID_34_"
   class="st7"
   d="m 284.65565,381.10768 c -13.03013,-16.2007 -20.56716,-35.35693 -20.56716,-55.82673 0,-25.94302 11.88041,-49.69674 31.68108,-67.97727 19.80069,18.28053 31.80885,42.03425 31.9366,67.97727 0,20.57927 -7.53704,39.62603 -20.43942,55.82673 z"
   style="stroke-width:1.18253" />
<path
   id="XMLID_37_"
   class="st9"
   d="m 293.85339,257.30368 c 1.53295,1.42304 3.06591,2.95554 4.47112,4.48804 -13.28562,17.51427 -20.9504,38.09354 -21.07815,59.98637 0,21.67391 3.83238,41.92478 16.86252,59.43905 h -11.75266 c -12.90239,-16.20069 -20.43943,-35.35692 -20.43943,-55.82673 0.12775,-26.05248 12.13591,-49.8062 31.9366,-68.08673 z"
   style="stroke-width:1.18253" />
<path
   id="XMLID_4_"
   class="st10"
   d="m 293.85339,257.30368 c 0.51097,0.43787 1.02196,0.98519 1.53295,1.53251 -14.94632,18.9373 -23.50532,41.15853 -23.63307,65.02172 0,20.68873 6.51506,40.17335 17.88449,57.35923 h -7.28154 c -12.90239,-16.20069 -20.43943,-35.35692 -20.43943,-55.82673 0.12775,-26.05248 12.13591,-49.8062 31.9366,-68.08673 z"
   style="stroke-width:1.18253" />
<path
   id="XMLID_9_"
   class="st11"
   d="m 327.70617,325.28095 c 0,-25.94302 -12.00816,-49.58728 -31.9366,-67.97727 -1.53294,1.42304 -3.0659,2.95554 -4.47111,4.48804 13.28562,17.51427 20.95039,38.09354 21.07814,59.98637 0,21.67391 -7.40929,41.92478 -20.43941,59.43905 h 15.32956 c 12.90238,-16.31016 20.43942,-35.46639 20.43942,-55.93619 z"
   style="stroke-width:1.18253" />
<path
   id="XMLID_45_"
   class="st8"
   d="m 327.70617,325.28095 c 0,-25.94302 -12.00816,-49.58728 -31.9366,-67.97727 -0.51098,0.43787 -1.02196,0.98519 -1.53294,1.53251 14.94631,18.9373 23.50532,41.15853 23.63307,65.02172 0,20.68873 -6.51507,40.17335 -17.88449,57.35923 h 7.28154 c 12.90238,-16.31016 20.43942,-35.46639 20.43942,-55.93619 z"
   style="stroke-width:1.18253" />
<path
   id="XMLID_10_"
   class="st11"
   d="m 295.76957,257.30368 c -1.53294,1.42304 -3.0659,2.95554 -4.47111,4.48804 13.28562,17.51427 20.95039,38.09354 21.07814,59.98637 0,21.67391 -7.40929,41.92478 -20.43941,59.43905 h 15.32956 c 12.90238,-16.20069 20.43942,-35.35692 20.43942,-55.82673 -0.12775,-26.05248 -12.13591,-49.8062 -31.9366,-68.08673 z"
   style="stroke-width:1.18253" />
<path
   id="XMLID_16_"
   class="st8"
   d="m 295.76957,257.30368 c -0.51098,0.43787 -1.02196,0.98519 -1.53294,1.53251 14.94631,18.9373 23.50532,41.15853 23.63307,65.02172 0,20.68873 -6.51507,40.17335 -17.88449,57.35923 h 7.28154 c 12.90238,-16.20069 20.43942,-35.35692 20.43942,-55.82673 -0.12775,-26.05248 -12.13591,-49.8062 -31.9366,-68.08673 z"
   style="stroke-width:1.18253" />
<path
   id="XMLID_95_"
   class="st5"
   d="m 310.33266,277.00724 c -4.72661,-7.11517 -10.34745,-13.68302 -16.86252,-19.81302 -6.51505,6.02054 -12.1359,12.69785 -16.86252,19.81302 z"
   style="stroke-width:1.18253" />
<path
   id="XMLID_28_"
   class="st0"
   d="m 284.65565,381.10768 c -13.03013,-16.2007 -20.56716,-35.35693 -20.56716,-55.82673 0,-25.94302 11.88041,-49.69674 31.68108,-67.97727 19.80069,18.28053 31.80885,42.03425 31.9366,67.97727 0,20.57927 -7.53704,39.62603 -20.43942,55.82673 z" />
<path
   id="XMLID_31_"
   class="st7"
   d="m 450.59815,465.61402 c 0,0 -15.45731,2.84607 -37.68518,21.89284 -8.04801,6.89624 -20.69491,20.90766 -30.02038,31.52569 -3.8324,4.37856 -12.00816,2.18928 -12.13591,-3.28393 l -3.06591,-116.57936 c -0.63874,-3.28391 0.38324,-6.67731 2.81042,-9.19498 l 33.46954,-35.68533 z"
   style="stroke-width:1.18253" />
<path
   id="XMLID_24_"
   class="st10"
   d="m 370.50119,518.04736 v 0 c 7.28154,-0.8757 12.77463,-6.23945 12.90238,-12.58837 l 1.40521,-108.36955 c -0.63873,-3.28391 0.38324,-6.67731 2.81041,-9.19498 l 20.95041,-22.44016 -4.72662,-11.16535 -33.34179,35.57587 c -2.42718,2.62713 -3.44916,5.91106 -2.81042,9.19498 z"
   style="stroke-width:1.18253" />
<path
   id="XMLID_84_"
   class="st8"
   d="m 450.59815,465.61402 -46.62742,-111.32507 -18.52322,19.81302 c 9.96421,32.83925 25.67701,66.22583 46.88291,99.50294 11.24167,-6.67731 18.26773,-7.99089 18.26773,-7.99089 z"
   style="stroke-width:1.18253" />
<path
   id="XMLID_21_"
   class="st0"
   d="m 450.59815,465.61402 c 0,0 -15.45731,2.84607 -37.68518,21.89284 -8.04801,6.89624 -20.69491,20.90766 -30.02038,31.52569 -3.8324,4.37856 -12.00816,2.18928 -12.13591,-3.28393 l -3.06591,-116.57936 c -0.63874,-3.28391 0.38324,-6.67731 2.81042,-9.19498 l 33.46954,-35.68533 z" />
<line
   id="XMLID_32_"
   class="st12"
   x1="272.51971"
   y1="366.65839"
   x2="314.54831"
   y2="366.65839" />
<path
   id="XMLID_192_"
   class="st7"
   d="m 284.65565,381.10768 c -13.03013,-16.2007 -20.56716,-35.35693 -20.56716,-55.82673 0,-25.94302 11.88041,-49.69674 31.68108,-67.97727 19.80069,18.28053 31.80885,42.03425 31.9366,67.97727 0,20.57927 -7.53704,39.62603 -20.43942,55.82673 z"
   style="stroke-width:1.18253" />
<path
   id="XMLID_161_"
   class="st7"
   d="m 284.65565,381.10768 c -13.03013,-16.2007 -20.56716,-35.35693 -20.56716,-55.82673 0,-25.94302 11.88041,-49.69674 31.68108,-67.97727 19.80069,18.28053 31.80885,42.03425 31.9366,67.97727 0,20.57927 -7.53704,39.62603 -20.43942,55.82673 z"
   style="stroke-width:1.18253" />
<path
   id="XMLID_155_"
   class="st9"
   d="m 293.85339,257.30368 c 1.53295,1.42304 3.06591,2.95554 4.47112,4.48804 -13.28562,17.51427 -20.9504,38.09354 -21.07815,59.98637 0,21.67391 3.83238,41.92478 16.86252,59.43905 h -11.75266 c -12.90239,-16.20069 -20.43943,-35.35692 -20.43943,-55.82673 0.12775,-26.05248 12.13591,-49.8062 31.9366,-68.08673 z"
   style="stroke-width:1.18253" />
<path
   id="XMLID_147_"
   class="st10"
   d="m 293.85339,257.30368 c 0.51097,0.43787 1.02196,0.98519 1.53295,1.53251 -14.94632,18.9373 -23.50532,41.15853 -23.63307,65.02172 0,20.68873 6.51506,40.17335 17.88449,57.35923 h -7.28154 c -12.90239,-16.20069 -20.43943,-35.35692 -20.43943,-55.82673 0.12775,-26.05248 12.13591,-49.8062 31.9366,-68.08673 z"
   style="stroke-width:1.18253" />
<path
   id="XMLID_144_"
   class="st11"
   d="m 327.70617,325.28095 c 0,-25.94302 -12.00816,-49.58728 -31.9366,-67.97727 -1.53294,1.42304 -3.0659,2.95554 -4.47111,4.48804 13.28562,17.51427 20.95039,38.09354 21.07814,59.98637 0,21.67391 -7.40929,41.92478 -20.43941,59.43905 h 15.32956 c 12.90238,-16.31016 20.43942,-35.46639 20.43942,-55.93619 z"
   style="stroke-width:1.18253" />
<path
   id="XMLID_140_"
   class="st8"
   d="m 327.70617,325.28095 c 0,-25.94302 -12.00816,-49.58728 -31.9366,-67.97727 -0.51098,0.43787 -1.02196,0.98519 -1.53294,1.53251 14.94631,18.9373 23.50532,41.15853 23.63307,65.02172 0,20.68873 -6.51507,40.17335 -17.88449,57.35923 h 7.28154 c 12.90238,-16.31016 20.43942,-35.46639 20.43942,-55.93619 z"
   style="stroke-width:1.18253" />
<path
   id="XMLID_134_"
   class="st11"
   d="m 295.76957,257.30368 c -1.53294,1.42304 -3.0659,2.95554 -4.47111,4.48804 13.28562,17.51427 20.95039,38.09354 21.07814,59.98637 0,21.67391 -7.40929,41.92478 -20.43941,59.43905 h 15.32956 c 12.90238,-16.20069 20.43942,-35.35692 20.43942,-55.82673 -0.12775,-26.05248 -12.13591,-49.8062 -31.9366,-68.08673 z"
   style="stroke-width:1.18253" />
<path
   id="XMLID_130_"
   class="st8"
   d="m 295.76957,257.30368 c -0.51098,0.43787 -1.02196,0.98519 -1.53294,1.53251 14.94631,18.9373 23.50532,41.15853 23.63307,65.02172 0,20.68873 -6.51507,40.17335 -17.88449,57.35923 h 7.28154 c 12.90238,-16.20069 20.43942,-35.35692 20.43942,-55.82673 -0.12775,-26.05248 -12.13591,-49.8062 -31.9366,-68.08673 z"
   style="stroke-width:1.18253" />
<path
   id="XMLID_67_"
   class="st5"
   d="m 312.63209,277.00724 c -4.72661,-7.11517 -10.34745,-13.68302 -16.86252,-19.81302 -6.51505,6.02054 -12.13589,12.69785 -16.86251,19.81302 z"
   style="stroke-width:1.18253" />
<path
   id="XMLID_39_"
   class="st0"
   d="m 284.65565,381.10768 c -13.03013,-16.2007 -20.56716,-35.35693 -20.56716,-55.82673 0,-25.94302 11.88041,-49.69674 31.68108,-67.97727 19.80069,18.28053 31.80885,42.03425 31.9366,67.97727 0,20.57927 -7.53704,39.62603 -20.43942,55.82673 z" />
<line
   id="XMLID_12_"
   class="st12"
   x1="272.51971"
   y1="366.65839"
   x2="314.54831"
   y2="366.65839" />
<path
   id="XMLID_196_"
   class="st6"
   d="m 640.6847,349.47252 41.64531,13.90196 V 295.61615 L 554.45593,210.12463 v 128.18256 l 30.91461,13.90194 c 16.47927,-7.44356 36.53545,-8.97606 55.31416,-2.73661 z"
   style="stroke-width:1.18253" />
<path
   id="XMLID_188_"
   class="st8"
   d="M 682.33001,363.37448 640.9402,349.582 c -0.51099,-9.41392 0.25549,-19.04677 2.29943,-28.67962 3.06591,-14.44927 8.81449,-28.02283 16.73477,-40.28282 l 22.35561,14.99659 z"
   style="stroke-width:1.18253" />
<polygon
   id="XMLID_181_"
   class="st9"
   points="542,375.5 642.1,453.5 642.1,515.5 638,513.9 638,470.9 542,396.1 "
   transform="matrix(1.2774635,0,0,1.0946418,-137.92925,-200.91337)" />
<path
   id="XMLID_175_"
   class="st8"
   d="m 605.29896,346.40753 c -7.02604,0.98518 -13.66886,2.95553 -19.92842,5.8016 L 554.45593,338.30719 V 210.12463 l 53.90895,36.01372 c 2.68267,13.90195 3.96013,28.46068 3.96013,43.45727 0,19.81302 -2.42718,38.96926 -7.02605,56.81191 z"
   style="stroke-width:1.18253" />
<path
   id="XMLID_166_"
   class="st0"
   d="m 640.6847,349.47252 41.64531,13.90196 V 295.61615 L 554.45593,210.12463 v 128.18256 l 30.91461,13.90194 c 16.47927,-7.44356 36.53545,-8.97606 55.31416,-2.73661 z" />
<path
   id="XMLID_59_"
   class="st7"
   d="m 530.05637,465.61402 c 0,0 15.45731,2.84607 37.68518,21.89284 8.04801,6.89624 20.69489,20.90766 30.02038,31.52569 3.8324,4.37856 12.00816,2.18928 12.1359,-3.28393 l 3.06592,-116.57936 c 0.63872,-3.28391 -0.38324,-6.67731 -2.81042,-9.19498 l -33.46955,-35.68533 z"
   style="stroke-width:1.18253" />
<path
   id="XMLID_48_"
   class="st8"
   d="m 610.02558,518.04736 v 0 c -7.28154,-0.8757 -12.77463,-6.23945 -12.90238,-12.58837 l -1.40521,-108.36955 c 0.63873,-3.28391 -0.38324,-6.67731 -2.81041,-9.19498 l -20.95041,-22.44016 4.72661,-11.16535 33.46955,35.68533 c 2.42718,2.62714 3.44914,5.91107 2.81042,9.19498 z"
   style="stroke-width:1.18253" />
<path
   id="XMLID_47_"
   class="st8"
   d="m 530.05637,465.61402 46.62741,-111.32507 18.52323,19.81302 c -9.96422,32.83925 -25.67702,66.22583 -46.88291,99.50294 -11.24168,-6.67731 -18.26773,-7.99089 -18.26773,-7.99089 z"
   style="stroke-width:1.18253" />
<path
   id="XMLID_33_"
   class="st0"
   d="m 530.05637,465.61402 c 0,0 15.45731,2.84607 37.68518,21.89284 8.04801,6.89624 20.69489,20.90766 30.02038,31.52569 3.8324,4.37856 12.00816,2.18928 12.1359,-3.28393 l 3.06592,-116.57936 c 0.63872,-3.28391 -0.38324,-6.67731 -2.81042,-9.19498 l -33.46955,-35.68533 z" />
<path
   id="XMLID_22_"
   class="st13"
   d="m 529.41763,528.22754 c 1.40521,-13.02624 -0.63872,-25.28623 -26.18799,-57.57816 -4.21563,-5.14482 -14.30759,-5.14482 -18.52322,0 -25.54927,32.4014 -27.59321,44.66138 -26.18801,57.57816 0.2555,1.64195 3.70465,3.50284 5.87634,2.84606 14.69082,-6.45838 44.45572,-6.45838 59.14655,0 2.1717,0.65678 5.62085,-1.09463 5.87633,-2.84606 z"
   style="stroke-width:1.18253" />
<g
   id="XMLID_107_"
   class="st14"
   transform="matrix(1.2774635,0,0,1.0946418,-137.92925,-200.91337)">
	<g
   id="XMLID_222_">
		<g
   id="XMLID_225_">
			<path
   id="XMLID_226_"
   class="st15"
   d="m 477,666.1 c -1.1,-11.9 0.5,-23.1 20.5,-52.6 0.6,-0.9 1.4,-1.6 2.2,-2.1 -3.8,-2.5 -9.6,-1.8 -12.3,2.1 -20,29.6 -21.6,40.8 -20.5,52.6 0.2,1.5 2.9,3.2 4.6,2.6 1.7,-0.8 3.6,-1.6 5.6,-2.2 0,-0.1 -0.1,-0.2 -0.1,-0.4 z" />
		</g>
		<g
   id="XMLID_223_">
			<path
   id="XMLID_224_"
   class="st15"
   d="m 499.7,664.5 c 6.9,0.5 13.4,1.9 18.1,4.2 1.5,0.6 3.9,-0.8 4.5,-2.2 -6.6,-1.9 -14.8,-2.6 -22.6,-2 z" />
		</g>
	</g>
</g>
<g
   id="XMLID_46_"
   transform="matrix(1.2774635,0,0,1.0946418,-137.92925,-200.91337)">
	<g
   id="XMLID_168_">
		<g
   id="XMLID_169_">
			<path
   id="XMLID_170_"
   class="st16"
   d="m 490.9,613.5 c -0.3,-0.4 -0.6,-0.7 -0.9,-1 3.7,-3.7 10.6,-3.3 13.6,1 20,29.6 21.6,40.8 20.5,52.6 -0.2,1.5 -2.9,3.2 -4.6,2.6 -2.3,-1.2 -5.1,-2.1 -8.1,-2.8 1.1,-11.8 -0.6,-23 -20.5,-52.4 z" />
		</g>
	</g>
</g>
<path
   id="XMLID_17_"
   class="st0"
   d="m 529.41763,528.22754 c 1.40521,-13.02624 -0.63872,-25.28623 -26.18799,-57.57816 -4.21563,-5.14482 -14.30759,-5.14482 -18.52322,0 -25.54927,32.4014 -27.59321,44.66138 -26.18801,57.57816 0.2555,1.64195 3.70465,3.50284 5.87634,2.84606 14.69082,-6.45838 44.45572,-6.45838 59.14655,0 2.1717,0.65678 5.62085,-1.09463 5.87633,-2.84606 z" />
<path
   id="XMLID_15_"
   class="st7"
   d="m 522.77483,488.92989 c 60.16852,-84.39688 82.01315,-167.26126 68.47204,-236.33316 -11.75266,-59.98637 -49.56558,-103.22472 -97.34272,-130.26238 -47.77712,27.03766 -85.59005,70.27601 -97.34271,130.26238 -13.5411,69.0719 8.43126,151.93628 68.47204,236.33316 z"
   style="stroke-width:1.18253" />
<path
   id="XMLID_20_"
   class="st9"
   d="m 442.29463,253.80084 c 7.66478,-54.29424 27.59322,-97.42312 54.41995,-129.71506 -0.89423,-0.54732 -1.9162,-1.09463 -2.81043,-1.64196 -47.77712,27.03765 -85.59005,70.27601 -97.34271,130.26237 -13.5411,69.0719 8.43126,151.93628 68.47204,236.33317 h 12.13591 C 443.82759,404.64247 432.58591,323.52952 442.29463,253.80084 Z"
   style="stroke-width:1.18253" />
<path
   id="XMLID_54_"
   class="st11"
   d="M 591.24687,252.59673 C 579.62196,193.04822 542.32002,150.0288 494.92613,122.99115 c 8.8145,12.15052 20.05617,29.66478 29.5094,51.88602 17.24576,40.39228 19.16195,73.66939 20.18392,94.57705 4.59887,94.02973 -37.42968,198.0207 -46.24418,219.58514 h 24.39956 c 60.16852,-84.50635 82.01315,-167.37073 68.47204,-236.44263 z"
   style="stroke-width:1.18253" />
<path
   id="XMLID_5_"
   class="st8"
   d="m 591.24687,252.59673 c -11.75266,-59.98637 -49.56558,-103.22472 -97.34272,-130.26238 -1.27746,0.6568 -2.42718,1.42304 -3.70464,2.07982 18.13999,12.15053 31.93658,25.17676 42.41178,37.65568 94.02132,112.09132 3.8324,279.89992 -8.559,302.12114 -0.51099,-15.10606 -2.81042,-33.82443 -9.32548,-54.73209 -4.21563,-13.35463 -9.32548,-25.06729 -14.43534,-35.02853 -1.9162,37.10835 -3.83239,74.21671 -5.74858,111.32506 h 15.84054 c -0.38323,1.09464 -0.76647,2.07983 -1.27746,3.17446 h 13.41337 c 60.42401,-84.39688 82.26864,-167.26126 68.72753,-236.33316 z"
   style="stroke-width:1.18253" />
<path
   id="XMLID_6_"
   class="st10"
   d="m 412.65748,271.6435 c 1.78845,-17.51427 8.43126,-74.43565 49.43784,-121.17685 6.51506,-7.3341 16.22378,-17.29534 15.45731,-17.84266 -1.14973,-0.87572 -23.63307,16.52909 -39.60138,35.02854 -20.05617,23.09694 -34.747,51.44817 -41.26206,84.9442 -13.54112,69.0719 8.43126,151.93628 68.47204,236.33316 h 5.23759 c -16.47926,-28.13229 -27.33771,-53.52798 -34.747,-73.55992 -4.85436,-13.4641 -13.41336,-37.32729 -18.7787,-69.29083 -3.44916,-21.45497 -7.28156,-44.44245 -4.21564,-74.43564 z"
   style="stroke-width:1.18253" />
<ellipse
   id="XMLID_13_"
   class="st17"
   cx="500.80246"
   cy="264.41885"
   rx="34.747005"
   ry="29.774258" />
<path
   id="XMLID_11_"
   class="st0"
   d="m 522.77483,488.92989 c 60.16852,-84.39688 82.01315,-167.26126 68.47204,-236.33316 -11.75266,-59.98637 -49.56558,-103.22472 -97.34272,-130.26238 -47.77712,27.03766 -85.59005,70.27601 -97.34271,130.26238 -13.5411,69.0719 8.43126,151.93628 68.47204,236.33316 z" />
<ellipse
   id="XMLID_25_"
   class="st18"
   cx="493.90414"
   cy="259.82135"
   rx="34.747005"
   ry="29.774258"
   style="stroke-width:1.18253" />
<ellipse
   id="XMLID_26_"
   class="st19"
   cx="489.17752"
   cy="258.17941"
   rx="20.950399"
   ry="17.952126"
   style="stroke-width:1.18253" />
<ellipse
   id="XMLID_1_"
   class="st0"
   cx="493.90414"
   cy="259.82135"
   rx="34.747005"
   ry="29.774258" />
<path
   id="XMLID_44_"
   class="st5"
   d="m 444.84956,160.0995 c 31.80884,-9.41392 66.6836,-9.41392 98.49243,0.10946 -14.43533,-14.99659 -31.17011,-27.58497 -49.31009,-37.87461 -18.13998,10.28964 -34.87475,22.87802 -49.18234,37.76515 z"
   style="stroke-width:1.18253" />
<path
   id="XMLID_23_"
   class="st0"
   d="m 444.84956,160.0995 c 31.80884,-9.41392 66.6836,-9.41392 98.49243,0.10946 -14.43533,-14.99659 -31.17011,-27.58497 -49.31009,-37.87461 -18.13998,10.28964 -34.87475,22.87802 -49.18234,37.76515 z" />
<path
   id="XMLID_18_"
   class="st20"
   d="m 493.90415,540.15913 v 0 c 1.40522,0 2.55493,-1.31357 2.68268,-3.065 l 9.58097,-133.98416 c 1.02197,-13.79248 -4.08788,-26.59978 -11.62491,-29.66478 -0.51099,-0.21893 -1.02197,-0.21893 -1.40521,0 -7.53704,2.95553 -12.6469,15.76283 -11.62492,29.66478 l 9.58097,133.98416 c 0.2555,1.75143 1.53296,3.065 2.81042,3.065 z"
   style="stroke-width:1.18253" />
<path
   id="XMLID_2_"
   class="st21"
   d="m 493.90415,540.15913 v 0 c 1.40522,0 2.55493,-1.31357 2.68268,-3.065 l 9.58097,-133.98416 c 1.02197,-13.79248 -4.08788,-26.59978 -11.62491,-29.66478 -0.51099,-0.21893 -1.02197,-0.21893 -1.40521,0 -7.53704,2.95553 -12.6469,15.76283 -11.62492,29.66478 l 9.58097,133.98416 c 0.2555,1.75143 1.53296,3.065 2.81042,3.065 z"
   style="stroke-width:1.18253" />
<g
   id="XMLID_8_"
   class="st22"
   transform="matrix(1.2774635,0,0,1.0946418,-137.92925,-200.91337)">
	<g
   id="XMLID_199_">
		<g
   id="XMLID_202_">
			<path
   id="XMLID_203_"
   class="st15"
   d="m 494.1,524.7 c -5.9,2.7 -9.9,14.4 -9.1,27.1 l 7.5,122.4 c 0.1,1.3 0.7,2.4 1.5,2.7 V 524.7 Z" />
		</g>
		<g
   id="XMLID_200_">
			<path
   id="XMLID_201_"
   class="st15"
   d="m 494.1,524.7 h 1.1 c -0.4,-0.2 -0.8,-0.2 -1.1,0 z" />
		</g>
	</g>
</g>
<path
   id="XMLID_27_"
   class="st0"
   d="m 493.90415,540.15913 v 0 c 1.40522,0 2.55493,-1.31357 2.68268,-3.065 l 9.58097,-133.98416 c 1.02197,-13.79248 -4.08788,-26.59978 -11.62491,-29.66478 -0.51099,-0.21893 -1.02197,-0.21893 -1.40521,0 -7.53704,2.95553 -12.6469,15.76283 -11.62492,29.66478 l 9.58097,133.98416 c 0.2555,1.75143 1.53296,3.065 2.81042,3.065 z" />
<path
   id="XMLID_255_"
   class="st7"
   d="m 681.43579,381.10768 c -13.03014,-16.2007 -20.56716,-35.35693 -20.56716,-55.82673 0,-25.94302 11.8804,-49.69674 31.68109,-67.97727 19.80068,18.28053 31.80884,42.03425 31.93658,67.97727 0,20.57927 -7.53703,39.62603 -20.43941,55.82673 z"
   style="stroke-width:1.18253" />
<path
   id="XMLID_249_"
   class="st7"
   d="m 681.43579,381.10768 c -13.03014,-16.2007 -20.56716,-35.35693 -20.56716,-55.82673 0,-25.94302 11.8804,-49.69674 31.68109,-67.97727 19.80068,18.28053 31.80884,42.03425 31.93658,67.97727 0,20.57927 -7.53703,39.62603 -20.43941,55.82673 z"
   style="stroke-width:1.18253" />
<path
   id="XMLID_245_"
   class="st9"
   d="m 690.76127,257.30368 c 1.53295,1.42304 3.06591,2.95554 4.47112,4.48804 -13.28562,17.51427 -20.9504,38.09354 -21.07814,59.98637 0,21.67391 3.83239,41.92478 16.86251,59.43905 H 679.2641 c -12.90238,-16.20069 -20.43942,-35.35692 -20.43942,-55.82673 0,-26.05248 12.00816,-49.8062 31.93659,-68.08673 z"
   style="stroke-width:1.18253" />
<path
   id="XMLID_242_"
   class="st10"
   d="m 690.76127,257.30368 c 0.51098,0.43787 1.02197,0.98519 1.53295,1.53251 -14.94632,18.9373 -23.50532,41.15853 -23.63307,65.02172 0,20.68873 6.51507,40.17335 17.88449,57.35923 h -7.28154 c -12.90238,-16.20069 -20.43942,-35.35692 -20.43942,-55.82673 0,-26.05248 12.00816,-49.8062 31.93659,-68.08673 z"
   style="stroke-width:1.18253" />
<path
   id="XMLID_239_"
   class="st11"
   d="m 724.4863,325.28095 c 0,-25.94302 -12.00815,-49.58728 -31.93658,-67.97727 -1.53296,1.42304 -3.06592,2.95554 -4.47113,4.48804 13.28562,17.51427 20.95041,38.09354 21.07815,59.98637 0,21.67391 -7.40928,41.92478 -20.43941,59.43905 h 15.32956 c 12.90238,-16.31016 20.43941,-35.46639 20.43941,-55.93619 z"
   style="stroke-width:1.18253" />
<path
   id="XMLID_236_"
   class="st8"
   d="m 724.4863,325.28095 c 0,-25.94302 -12.00815,-49.58728 -31.93658,-67.97727 -0.51099,0.43787 -1.02197,0.98519 -1.53296,1.53251 14.94632,18.9373 23.50533,41.15853 23.63307,65.02172 0,20.68873 -6.51505,40.17335 -17.88449,57.35923 h 7.28155 c 12.90238,-16.31016 20.43941,-35.46639 20.43941,-55.93619 z"
   style="stroke-width:1.18253" />
<path
   id="XMLID_233_"
   class="st11"
   d="m 692.54972,257.30368 c -1.53296,1.42304 -3.06592,2.95554 -4.47113,4.48804 13.28562,17.51427 20.95041,38.09354 21.07815,59.98637 0,21.67391 -7.40928,41.92478 -20.43941,59.43905 h 15.32956 c 12.90238,-16.20069 20.43941,-35.35692 20.43941,-55.82673 0,-26.05248 -12.00815,-49.8062 -31.93658,-68.08673 z"
   style="stroke-width:1.18253" />
<path
   id="XMLID_230_"
   class="st8"
   d="m 692.54972,257.30368 c -0.51099,0.43787 -1.02197,0.98519 -1.53296,1.53251 14.94632,18.9373 23.50533,41.15853 23.63307,65.02172 0,20.68873 -6.51505,40.17335 -17.88449,57.35923 h 7.28155 c 12.90238,-16.20069 20.43941,-35.35692 20.43941,-55.82673 0,-26.05248 -12.00815,-49.8062 -31.93658,-68.08673 z"
   style="stroke-width:1.18253" />
<path
   id="XMLID_227_"
   class="st5"
   d="m 709.53999,277.00724 c -4.72662,-7.11517 -10.34746,-13.68302 -16.86253,-19.81302 -6.51506,6.02054 -12.1359,12.69785 -16.86252,19.81302 z"
   style="stroke-width:1.18253" />
<path
   id="XMLID_219_"
   class="st0"
   d="m 681.43579,381.10768 c -13.03014,-16.2007 -20.56716,-35.35693 -20.56716,-55.82673 0,-25.94302 11.8804,-49.69674 31.68109,-67.97727 19.80068,18.28053 31.80884,42.03425 31.93658,67.97727 0,20.57927 -7.53703,39.62603 -20.43941,55.82673 z" />
<line
   id="XMLID_210_"
   class="st12"
   x1="671.72705"
   y1="366.65839"
   x2="713.75568"
   y2="366.65839" />
<path
   id="XMLID_228_"
   class="st23"
   d="m 454.55828,156.37772 c 0,0 8.68675,-11.71267 38.19616,-31.41622 -13.66887,15.8723 -16.35154,25.83354 -17.24576,26.59979 -8.68675,1.42303 -20.9504,4.81643 -20.9504,4.81643 z"
   style="stroke-width:1.18253" />
</svg>
